G04 #@! TF.GenerationSoftware,KiCad,Pcbnew,(5.1.10-1-10_14)*
G04 #@! TF.CreationDate,2021-12-18T16:14:33+09:00*
G04 #@! TF.ProjectId,K65-SBC,4b36352d-5342-4432-9e6b-696361645f70,rev?*
G04 #@! TF.SameCoordinates,PX5f5e100PY7a12000*
G04 #@! TF.FileFunction,Copper,L2,Bot*
G04 #@! TF.FilePolarity,Positive*
%FSLAX46Y46*%
G04 Gerber Fmt 4.6, Leading zero omitted, Abs format (unit mm)*
G04 Created by KiCad (PCBNEW (5.1.10-1-10_14)) date 2021-12-18 16:14:33*
%MOMM*%
%LPD*%
G01*
G04 APERTURE LIST*
G04 #@! TA.AperFunction,ComponentPad*
%ADD10O,2.400000X1.600000*%
G04 #@! TD*
G04 #@! TA.AperFunction,ComponentPad*
%ADD11R,2.400000X1.600000*%
G04 #@! TD*
G04 #@! TA.AperFunction,ComponentPad*
%ADD12C,2.300000*%
G04 #@! TD*
G04 #@! TA.AperFunction,ComponentPad*
%ADD13O,1.600000X2.400000*%
G04 #@! TD*
G04 #@! TA.AperFunction,ComponentPad*
%ADD14R,1.600000X2.400000*%
G04 #@! TD*
G04 #@! TA.AperFunction,ComponentPad*
%ADD15O,1.700000X1.700000*%
G04 #@! TD*
G04 #@! TA.AperFunction,ComponentPad*
%ADD16R,1.700000X1.700000*%
G04 #@! TD*
G04 #@! TA.AperFunction,ComponentPad*
%ADD17C,2.000000*%
G04 #@! TD*
G04 #@! TA.AperFunction,ComponentPad*
%ADD18O,1.600000X1.600000*%
G04 #@! TD*
G04 #@! TA.AperFunction,ComponentPad*
%ADD19R,1.600000X1.600000*%
G04 #@! TD*
G04 #@! TA.AperFunction,ComponentPad*
%ADD20C,1.600000*%
G04 #@! TD*
G04 #@! TA.AperFunction,ComponentPad*
%ADD21R,3.500000X3.500000*%
G04 #@! TD*
G04 #@! TA.AperFunction,ComponentPad*
%ADD22C,1.800000*%
G04 #@! TD*
G04 #@! TA.AperFunction,ComponentPad*
%ADD23R,1.800000X1.800000*%
G04 #@! TD*
G04 #@! TA.AperFunction,ComponentPad*
%ADD24O,1.500000X1.500000*%
G04 #@! TD*
G04 #@! TA.AperFunction,ComponentPad*
%ADD25R,1.500000X1.500000*%
G04 #@! TD*
G04 #@! TA.AperFunction,ViaPad*
%ADD26C,0.800000*%
G04 #@! TD*
G04 #@! TA.AperFunction,Conductor*
%ADD27C,0.600000*%
G04 #@! TD*
G04 #@! TA.AperFunction,Conductor*
%ADD28C,0.250000*%
G04 #@! TD*
G04 #@! TA.AperFunction,Conductor*
%ADD29C,0.254000*%
G04 #@! TD*
G04 #@! TA.AperFunction,Conductor*
%ADD30C,0.100000*%
G04 #@! TD*
G04 APERTURE END LIST*
D10*
X64740000Y56000000D03*
X49500000Y22980000D03*
X64740000Y53460000D03*
X49500000Y25520000D03*
X64740000Y50920000D03*
X49500000Y28060000D03*
X64740000Y48380000D03*
X49500000Y30600000D03*
X64740000Y45840000D03*
X49500000Y33140000D03*
X64740000Y43300000D03*
X49500000Y35680000D03*
X64740000Y40760000D03*
X49500000Y38220000D03*
X64740000Y38220000D03*
X49500000Y40760000D03*
X64740000Y35680000D03*
X49500000Y43300000D03*
X64740000Y33140000D03*
X49500000Y45840000D03*
X64740000Y30600000D03*
X49500000Y48380000D03*
X64740000Y28060000D03*
X49500000Y50920000D03*
X64740000Y25520000D03*
X49500000Y53460000D03*
X64740000Y22980000D03*
D11*
X49500000Y56000000D03*
D12*
X34400000Y3500000D03*
X29500000Y3500000D03*
D13*
X28000000Y19120000D03*
X43240000Y11500000D03*
X30540000Y19120000D03*
X40700000Y11500000D03*
X33080000Y19120000D03*
X38160000Y11500000D03*
X35620000Y19120000D03*
X35620000Y11500000D03*
X38160000Y19120000D03*
X33080000Y11500000D03*
X40700000Y19120000D03*
X30540000Y11500000D03*
X43240000Y19120000D03*
D14*
X28000000Y11500000D03*
D13*
X50500000Y19120000D03*
X65740000Y11500000D03*
X53040000Y19120000D03*
X63200000Y11500000D03*
X55580000Y19120000D03*
X60660000Y11500000D03*
X58120000Y19120000D03*
X58120000Y11500000D03*
X60660000Y19120000D03*
X55580000Y11500000D03*
X63200000Y19120000D03*
X53040000Y11500000D03*
X65740000Y19120000D03*
D14*
X50500000Y11500000D03*
D13*
X73000000Y56120000D03*
X88240000Y48500000D03*
X75540000Y56120000D03*
X85700000Y48500000D03*
X78080000Y56120000D03*
X83160000Y48500000D03*
X80620000Y56120000D03*
X80620000Y48500000D03*
X83160000Y56120000D03*
X78080000Y48500000D03*
X85700000Y56120000D03*
X75540000Y48500000D03*
X88240000Y56120000D03*
D14*
X73000000Y48500000D03*
D10*
X21740000Y59000000D03*
X6500000Y10740000D03*
X21740000Y56460000D03*
X6500000Y13280000D03*
X21740000Y53920000D03*
X6500000Y15820000D03*
X21740000Y51380000D03*
X6500000Y18360000D03*
X21740000Y48840000D03*
X6500000Y20900000D03*
X21740000Y46300000D03*
X6500000Y23440000D03*
X21740000Y43760000D03*
X6500000Y25980000D03*
X21740000Y41220000D03*
X6500000Y28520000D03*
X21740000Y38680000D03*
X6500000Y31060000D03*
X21740000Y36140000D03*
X6500000Y33600000D03*
X21740000Y33600000D03*
X6500000Y36140000D03*
X21740000Y31060000D03*
X6500000Y38680000D03*
X21740000Y28520000D03*
X6500000Y41220000D03*
X21740000Y25980000D03*
X6500000Y43760000D03*
X21740000Y23440000D03*
X6500000Y46300000D03*
X21740000Y20900000D03*
X6500000Y48840000D03*
X21740000Y18360000D03*
X6500000Y51380000D03*
X21740000Y15820000D03*
X6500000Y53920000D03*
X21740000Y13280000D03*
X6500000Y56460000D03*
X21740000Y10740000D03*
D11*
X6500000Y59000000D03*
D13*
X69500000Y40740000D03*
X97440000Y25500000D03*
X72040000Y40740000D03*
X94900000Y25500000D03*
X74580000Y40740000D03*
X92360000Y25500000D03*
X77120000Y40740000D03*
X89820000Y25500000D03*
X79660000Y40740000D03*
X87280000Y25500000D03*
X82200000Y40740000D03*
X84740000Y25500000D03*
X84740000Y40740000D03*
X82200000Y25500000D03*
X87280000Y40740000D03*
X79660000Y25500000D03*
X89820000Y40740000D03*
X77120000Y25500000D03*
X92360000Y40740000D03*
X74580000Y25500000D03*
X94900000Y40740000D03*
X72040000Y25500000D03*
X97440000Y40740000D03*
D14*
X69500000Y25500000D03*
D10*
X45240000Y56000000D03*
X30000000Y22980000D03*
X45240000Y53460000D03*
X30000000Y25520000D03*
X45240000Y50920000D03*
X30000000Y28060000D03*
X45240000Y48380000D03*
X30000000Y30600000D03*
X45240000Y45840000D03*
X30000000Y33140000D03*
X45240000Y43300000D03*
X30000000Y35680000D03*
X45240000Y40760000D03*
X30000000Y38220000D03*
X45240000Y38220000D03*
X30000000Y40760000D03*
X45240000Y35680000D03*
X30000000Y43300000D03*
X45240000Y33140000D03*
X30000000Y45840000D03*
X45240000Y30600000D03*
X30000000Y48380000D03*
X45240000Y28060000D03*
X30000000Y50920000D03*
X45240000Y25520000D03*
X30000000Y53460000D03*
X45240000Y22980000D03*
D11*
X30000000Y56000000D03*
D15*
X70420000Y3500000D03*
X72960000Y3500000D03*
D16*
X75500000Y3500000D03*
D17*
X97500000Y14000000D03*
X93000000Y14000000D03*
X97500000Y20500000D03*
X93000000Y20500000D03*
D18*
X26000000Y44820000D03*
X26000000Y42280000D03*
X26000000Y39740000D03*
X26000000Y37200000D03*
X26000000Y34660000D03*
X26000000Y32120000D03*
X26000000Y29580000D03*
X26000000Y27040000D03*
D19*
X26000000Y24500000D03*
D18*
X3000000Y38680000D03*
X3000000Y41220000D03*
X3000000Y43760000D03*
X3000000Y46300000D03*
X3000000Y48840000D03*
X3000000Y51380000D03*
X3000000Y53920000D03*
X3000000Y56460000D03*
D19*
X3000000Y59000000D03*
D18*
X68500000Y45840000D03*
X68500000Y48380000D03*
X68500000Y50920000D03*
X68500000Y53460000D03*
D19*
X68500000Y56000000D03*
D18*
X57660000Y3500000D03*
D20*
X47500000Y3500000D03*
D18*
X35160000Y8000000D03*
D20*
X25000000Y8000000D03*
D18*
X48660000Y8000000D03*
D20*
X38500000Y8000000D03*
D18*
X78840000Y20500000D03*
D20*
X89000000Y20500000D03*
G04 #@! TA.AperFunction,ComponentPad*
G36*
G01*
X89575000Y8750000D02*
X87825000Y8750000D01*
G75*
G02*
X86950000Y9625000I0J875000D01*
G01*
X86950000Y11375000D01*
G75*
G02*
X87825000Y12250000I875000J0D01*
G01*
X89575000Y12250000D01*
G75*
G02*
X90450000Y11375000I0J-875000D01*
G01*
X90450000Y9625000D01*
G75*
G02*
X89575000Y8750000I-875000J0D01*
G01*
G37*
G04 #@! TD.AperFunction*
G04 #@! TA.AperFunction,ComponentPad*
G36*
G01*
X85000000Y6000000D02*
X83000000Y6000000D01*
G75*
G02*
X82250000Y6750000I0J750000D01*
G01*
X82250000Y8250000D01*
G75*
G02*
X83000000Y9000000I750000J0D01*
G01*
X85000000Y9000000D01*
G75*
G02*
X85750000Y8250000I0J-750000D01*
G01*
X85750000Y6750000D01*
G75*
G02*
X85000000Y6000000I-750000J0D01*
G01*
G37*
G04 #@! TD.AperFunction*
D21*
X84000000Y13500000D03*
D15*
X74260000Y65540000D03*
X74260000Y63000000D03*
X71720000Y65540000D03*
X71720000Y63000000D03*
X69180000Y65540000D03*
X69180000Y63000000D03*
X66640000Y65540000D03*
X66640000Y63000000D03*
X64100000Y65540000D03*
X64100000Y63000000D03*
X61560000Y65540000D03*
X61560000Y63000000D03*
X59020000Y65540000D03*
X59020000Y63000000D03*
X56480000Y65540000D03*
X56480000Y63000000D03*
X53940000Y65540000D03*
X53940000Y63000000D03*
X51400000Y65540000D03*
X51400000Y63000000D03*
X48860000Y65540000D03*
X48860000Y63000000D03*
X46320000Y65540000D03*
X46320000Y63000000D03*
X43780000Y65540000D03*
X43780000Y63000000D03*
X41240000Y65540000D03*
X41240000Y63000000D03*
X38700000Y65540000D03*
X38700000Y63000000D03*
X36160000Y65540000D03*
X36160000Y63000000D03*
X33620000Y65540000D03*
X33620000Y63000000D03*
X31080000Y65540000D03*
X31080000Y63000000D03*
X28540000Y65540000D03*
X28540000Y63000000D03*
X26000000Y65540000D03*
D16*
X26000000Y63000000D03*
D15*
X92500000Y46800000D03*
X92500000Y49340000D03*
X92500000Y51880000D03*
X92500000Y54420000D03*
X92500000Y56960000D03*
D16*
X92500000Y59500000D03*
D22*
X61960000Y3500000D03*
D23*
X64500000Y3500000D03*
D24*
X78840000Y17500000D03*
D25*
X89000000Y17500000D03*
D20*
X72000000Y11000000D03*
D19*
X74500000Y11000000D03*
D20*
X73000000Y59000000D03*
X75500000Y59000000D03*
X47500000Y19000000D03*
X47500000Y16500000D03*
X25000000Y19000000D03*
X25000000Y16500000D03*
X39500000Y4500000D03*
X39500000Y2000000D03*
X24500000Y4500000D03*
X24500000Y2000000D03*
X72000000Y19000000D03*
D19*
X74500000Y19000000D03*
D20*
X45000000Y59000000D03*
X42500000Y59000000D03*
X64500000Y59000000D03*
X62000000Y59000000D03*
X94500000Y34500000D03*
X94500000Y32000000D03*
X12500000Y41500000D03*
X15000000Y41500000D03*
D26*
X35362900Y56000000D03*
X23282700Y63514900D03*
X80663500Y50751500D03*
X24028300Y64261000D03*
X26459300Y60472800D03*
X59020000Y58098600D03*
X34824000Y33739200D03*
X34056800Y20634900D03*
X35703700Y60576300D03*
X67905100Y17710600D03*
X59770900Y53013900D03*
X32603800Y64364700D03*
X19944500Y50110200D03*
X24246500Y48199900D03*
X34693800Y61599800D03*
X47047000Y61660600D03*
X56756500Y32712900D03*
X36324200Y35221200D03*
X73503200Y28570900D03*
X67337300Y33779800D03*
X32371200Y38912000D03*
X72777900Y27819900D03*
X40617300Y58626000D03*
X19495400Y32156500D03*
X73892300Y38014800D03*
D27*
X35362900Y56000000D02*
X35362900Y34909300D01*
X35362900Y34909300D02*
X35724300Y34547900D01*
X35724300Y34547900D02*
X35724300Y30217800D01*
X35724300Y30217800D02*
X46942100Y19000000D01*
X46942100Y19000000D02*
X47500000Y19000000D01*
X89000000Y20500000D02*
X92299700Y23799700D01*
X92299700Y23799700D02*
X97440000Y23799700D01*
X89000000Y17500000D02*
X89000000Y20500000D01*
X97440000Y25500000D02*
X97440000Y23799700D01*
X6500000Y41220000D02*
X4799700Y41220000D01*
X4799700Y41220000D02*
X4799700Y57200300D01*
X4799700Y57200300D02*
X3000000Y59000000D01*
X50500000Y9799700D02*
X50500000Y6500000D01*
X50500000Y6500000D02*
X47500000Y3500000D01*
X50500000Y9799700D02*
X56419700Y9799700D01*
X56419700Y9799700D02*
X58120000Y11500000D01*
X50500000Y11500000D02*
X50500000Y9799700D01*
X50500000Y19120000D02*
X50500000Y11500000D01*
X58120000Y11933500D02*
X58120000Y11500000D01*
X58120000Y11933500D02*
X58120000Y13200300D01*
X60660000Y19120000D02*
X60660000Y15740300D01*
X60660000Y15740300D02*
X58120000Y13200300D01*
X26000000Y24500000D02*
X26000000Y23199700D01*
X26000000Y23199700D02*
X25000000Y22199700D01*
X25000000Y22199700D02*
X25000000Y19000000D01*
X74260000Y63000000D02*
X74260000Y60260000D01*
X74260000Y60260000D02*
X73000000Y59000000D01*
X73000000Y59000000D02*
X73000000Y56120000D01*
X45000000Y59000000D02*
X45240000Y58760000D01*
X45240000Y58760000D02*
X45240000Y56000000D01*
X64500000Y59000000D02*
X64740000Y58760000D01*
X64740000Y58760000D02*
X64740000Y56000000D01*
X97440000Y25500000D02*
X97440000Y27200300D01*
X94500000Y34500000D02*
X93187500Y33187500D01*
X93187500Y33187500D02*
X93187500Y31452800D01*
X93187500Y31452800D02*
X97440000Y27200300D01*
X47500000Y16500000D02*
X49000000Y18000000D01*
X49000000Y18000000D02*
X49000000Y22480000D01*
X49000000Y22480000D02*
X49500000Y22980000D01*
X43240000Y13200300D02*
X44200300Y13200300D01*
X44200300Y13200300D02*
X47500000Y16500000D01*
X20039700Y10740000D02*
X15000000Y15779700D01*
X15000000Y15779700D02*
X15000000Y41500000D01*
X88240000Y48500000D02*
X88240000Y50200300D01*
X92500000Y59500000D02*
X89940300Y56940300D01*
X89940300Y56940300D02*
X89940300Y51900600D01*
X89940300Y51900600D02*
X88240000Y50200300D01*
X72040000Y40740000D02*
X72040000Y39039700D01*
X72040000Y39039700D02*
X69500000Y36499700D01*
X69500000Y36499700D02*
X69500000Y27200300D01*
X38160000Y15000500D02*
X38160000Y13200300D01*
X40700000Y17419700D02*
X40579200Y17419700D01*
X40579200Y17419700D02*
X38160000Y15000500D01*
X38160000Y15000500D02*
X38039200Y15000500D01*
X38039200Y15000500D02*
X35620000Y17419700D01*
X30540000Y17419700D02*
X35620000Y17419700D01*
X25000000Y16500000D02*
X29620300Y16500000D01*
X29620300Y16500000D02*
X30540000Y17419700D01*
X35620000Y19120000D02*
X35620000Y17419700D01*
X22590200Y10740000D02*
X25000000Y13149800D01*
X25000000Y13149800D02*
X25000000Y16500000D01*
X30540000Y19120000D02*
X30540000Y17419700D01*
X40700000Y19120000D02*
X40700000Y17419700D01*
X38160000Y11500000D02*
X38160000Y13200300D01*
X65740000Y11000000D02*
X65740000Y11500000D01*
X64500000Y4900300D02*
X65740000Y6140300D01*
X65740000Y6140300D02*
X65740000Y11000000D01*
X65740000Y11000000D02*
X72000000Y11000000D01*
X84000000Y7500000D02*
X75500000Y7500000D01*
X75500000Y7500000D02*
X72000000Y11000000D01*
X72000000Y11000000D02*
X72000000Y19000000D01*
X39820700Y8544300D02*
X38565300Y9799700D01*
X38565300Y9799700D02*
X38160000Y9799700D01*
X39500000Y4500000D02*
X39820700Y4820700D01*
X39820700Y4820700D02*
X39820700Y8544300D01*
X39820700Y8544300D02*
X41984600Y8544300D01*
X41984600Y8544300D02*
X43240000Y9799700D01*
X43240000Y11500000D02*
X43240000Y13200300D01*
X43240000Y11500000D02*
X43240000Y9799700D01*
X22590200Y10740000D02*
X22590200Y6409800D01*
X22590200Y6409800D02*
X24500000Y4500000D01*
X21740000Y10740000D02*
X22590200Y10740000D01*
X30540000Y19120000D02*
X30540000Y22440000D01*
X30540000Y22440000D02*
X30000000Y22980000D01*
X69500000Y25500000D02*
X69500000Y27200300D01*
X69500000Y25500000D02*
X69500000Y21500000D01*
X69500000Y21500000D02*
X72000000Y19000000D01*
X97500000Y20500000D02*
X97500000Y14000000D01*
X94500000Y32000000D02*
X98812100Y27687900D01*
X98812100Y27687900D02*
X98812100Y21812100D01*
X98812100Y21812100D02*
X97500000Y20500000D01*
X64500000Y3500000D02*
X64500000Y4900300D01*
X75500000Y59000000D02*
X75610400Y59110400D01*
X75610400Y59110400D02*
X75610400Y64189600D01*
X75610400Y64189600D02*
X74260000Y65540000D01*
X38160000Y11500000D02*
X38160000Y9799700D01*
X21740000Y10740000D02*
X20039700Y10740000D01*
D28*
X21740000Y59000000D02*
X21740000Y61972200D01*
X21740000Y61972200D02*
X23282700Y63514900D01*
X61560000Y64364700D02*
X61927400Y64364700D01*
X61927400Y64364700D02*
X62735300Y63556800D01*
X62735300Y63556800D02*
X62735300Y62627700D01*
X62735300Y62627700D02*
X64547000Y60816000D01*
X64547000Y60816000D02*
X65759200Y60816000D01*
X65759200Y60816000D02*
X71093500Y55481700D01*
X71093500Y55481700D02*
X71093500Y53057300D01*
X71093500Y53057300D02*
X74125400Y50025400D01*
X74125400Y50025400D02*
X74125400Y44581600D01*
X74125400Y44581600D02*
X73165400Y43621600D01*
X73165400Y43621600D02*
X73165400Y30532600D01*
X73165400Y30532600D02*
X70908900Y28276100D01*
X70908900Y28276100D02*
X70908900Y23716400D01*
X70908900Y23716400D02*
X74500000Y20125300D01*
X77315000Y20100300D02*
X77714700Y20500000D01*
X74500000Y19562700D02*
X76777400Y19562700D01*
X76777400Y19562700D02*
X77315000Y20100300D01*
X78840000Y18575300D02*
X77315000Y20100300D01*
X78840000Y17500000D02*
X78840000Y18575300D01*
X78840000Y20500000D02*
X77714700Y20500000D01*
X74500000Y19562700D02*
X74500000Y20125300D01*
X74500000Y19000000D02*
X74500000Y19562700D01*
X61560000Y65540000D02*
X61560000Y64364700D01*
X93000000Y20500000D02*
X93000000Y14000000D01*
X35160000Y8000000D02*
X35160000Y6874700D01*
X34525400Y3500000D02*
X36025400Y2000000D01*
X36025400Y2000000D02*
X39500000Y2000000D01*
X35160000Y6874700D02*
X34525400Y6240100D01*
X34525400Y6240100D02*
X34525400Y3500000D01*
X34525400Y3500000D02*
X34400000Y3500000D01*
X80663500Y50751500D02*
X79494600Y49582600D01*
X79494600Y49582600D02*
X79494600Y45354800D01*
X79494600Y45354800D02*
X78390000Y44250200D01*
X78390000Y44250200D02*
X78390000Y35120300D01*
X78390000Y35120300D02*
X72040000Y28770300D01*
X72040000Y28770300D02*
X72040000Y27025300D01*
X72040000Y25500000D02*
X72040000Y27025300D01*
X79660000Y25500000D02*
X79660000Y23974700D01*
X92500000Y56960000D02*
X92500000Y55784700D01*
X92500000Y55784700D02*
X92867300Y55784700D01*
X92867300Y55784700D02*
X96025300Y52626700D01*
X96025300Y52626700D02*
X96025300Y39849200D01*
X96025300Y39849200D02*
X91090000Y34913900D01*
X91090000Y34913900D02*
X91090000Y24759700D01*
X91090000Y24759700D02*
X90305000Y23974700D01*
X90305000Y23974700D02*
X79660000Y23974700D01*
X60384700Y63000000D02*
X60384700Y63367400D01*
X60384700Y63367400D02*
X59576800Y64175300D01*
X59576800Y64175300D02*
X58683700Y64175300D01*
X58683700Y64175300D02*
X57750000Y65109000D01*
X57750000Y65109000D02*
X57750000Y65972200D01*
X57750000Y65972200D02*
X55645600Y68076600D01*
X55645600Y68076600D02*
X24721900Y68076600D01*
X24721900Y68076600D02*
X8025300Y51380000D01*
X6500000Y51380000D02*
X8025300Y51380000D01*
X61560000Y63000000D02*
X60384700Y63000000D01*
X23265300Y56460000D02*
X24028300Y57223000D01*
X24028300Y57223000D02*
X24028300Y64261000D01*
X21740000Y56460000D02*
X23265300Y56460000D01*
X85700000Y56120000D02*
X85700000Y57645300D01*
X72990000Y65932300D02*
X73820800Y66763100D01*
X73820800Y66763100D02*
X76582200Y66763100D01*
X76582200Y66763100D02*
X85700000Y57645300D01*
X72990000Y65932300D02*
X72207000Y66715300D01*
X72207000Y66715300D02*
X61003200Y66715300D01*
X61003200Y66715300D02*
X60195300Y65907400D01*
X60195300Y65907400D02*
X60195300Y65540000D01*
X75540000Y50025300D02*
X71853100Y53712200D01*
X71853100Y53712200D02*
X71853100Y60023800D01*
X71853100Y60023800D02*
X72990000Y61160700D01*
X72990000Y61160700D02*
X72990000Y65932300D01*
X94900000Y40740000D02*
X94900000Y42265300D01*
X85700000Y56120000D02*
X85700000Y54594700D01*
X85700000Y54594700D02*
X86825400Y53469300D01*
X86825400Y53469300D02*
X86825400Y47874300D01*
X86825400Y47874300D02*
X92434400Y42265300D01*
X92434400Y42265300D02*
X94900000Y42265300D01*
X59020000Y65540000D02*
X60195300Y65540000D01*
X75540000Y48500000D02*
X75540000Y50025300D01*
X59020000Y58098600D02*
X59020000Y61824700D01*
X73000000Y50025300D02*
X69625400Y53399900D01*
X69625400Y53399900D02*
X69625400Y53972900D01*
X69625400Y53972900D02*
X68723700Y54874600D01*
X68723700Y54874600D02*
X62244000Y54874600D01*
X62244000Y54874600D02*
X59020000Y58098600D01*
X21740000Y43760000D02*
X23265300Y43760000D01*
X26459300Y60472800D02*
X25118500Y59132000D01*
X25118500Y59132000D02*
X25118500Y47883300D01*
X25118500Y47883300D02*
X23265300Y46030100D01*
X23265300Y46030100D02*
X23265300Y43760000D01*
X59020000Y63000000D02*
X59020000Y61824700D01*
X73000000Y48500000D02*
X73000000Y50025300D01*
X87280000Y25500000D02*
X87280000Y27025300D01*
X78080000Y56120000D02*
X78080000Y54594700D01*
X78080000Y54594700D02*
X81890000Y50784700D01*
X81890000Y50784700D02*
X81890000Y47530800D01*
X81890000Y47530800D02*
X85865400Y43555400D01*
X85865400Y43555400D02*
X85865400Y28439900D01*
X85865400Y28439900D02*
X87280000Y27025300D01*
X34056800Y20634900D02*
X34056800Y32972000D01*
X34056800Y32972000D02*
X34824000Y33739200D01*
X31525300Y56000000D02*
X35703700Y60178400D01*
X35703700Y60178400D02*
X35703700Y60576300D01*
X30000000Y56000000D02*
X28474700Y56000000D01*
X28474700Y56000000D02*
X28474700Y47913600D01*
X28474700Y47913600D02*
X29278300Y47110000D01*
X29278300Y47110000D02*
X30726600Y47110000D01*
X30726600Y47110000D02*
X31525400Y46311200D01*
X31525400Y46311200D02*
X31525400Y35742200D01*
X31525400Y35742200D02*
X32008400Y35259200D01*
X32008400Y35259200D02*
X32008400Y28013000D01*
X32008400Y28013000D02*
X30930000Y26934600D01*
X30930000Y26934600D02*
X28587300Y26934600D01*
X28587300Y26934600D02*
X27278100Y25625400D01*
X27278100Y25625400D02*
X25048500Y25625400D01*
X25048500Y25625400D02*
X23265300Y23842200D01*
X23265300Y23842200D02*
X23265300Y18360000D01*
X30762700Y56000000D02*
X30000000Y56000000D01*
X21740000Y18360000D02*
X23265300Y18360000D01*
X30762700Y56000000D02*
X31525300Y56000000D01*
X89820000Y25500000D02*
X89820000Y27025300D01*
X75540000Y56120000D02*
X75540000Y57645300D01*
X75540000Y57645300D02*
X76934400Y57645300D01*
X76934400Y57645300D02*
X77399200Y58110100D01*
X77399200Y58110100D02*
X80798700Y58110100D01*
X80798700Y58110100D02*
X81745400Y57163400D01*
X81745400Y57163400D02*
X81745400Y53864600D01*
X81745400Y53864600D02*
X84430000Y51180000D01*
X84430000Y51180000D02*
X84430000Y47126200D01*
X84430000Y47126200D02*
X88550000Y43006200D01*
X88550000Y43006200D02*
X88550000Y28295300D01*
X88550000Y28295300D02*
X89820000Y27025300D01*
X64740000Y50920000D02*
X63214700Y50920000D01*
X53940000Y65540000D02*
X53940000Y64364700D01*
X53940000Y64364700D02*
X54307400Y64364700D01*
X54307400Y64364700D02*
X55115300Y63556800D01*
X55115300Y63556800D02*
X55115300Y59019400D01*
X55115300Y59019400D02*
X63214700Y50920000D01*
X67905100Y17710600D02*
X68071000Y17876500D01*
X68071000Y17876500D02*
X68071000Y42731300D01*
X68071000Y42731300D02*
X67165900Y43636400D01*
X67165900Y43636400D02*
X67165900Y50019400D01*
X67165900Y50019400D02*
X66265300Y50920000D01*
X64740000Y50920000D02*
X66265300Y50920000D01*
X53940000Y63000000D02*
X53940000Y58844800D01*
X53940000Y58844800D02*
X59770900Y53013900D01*
X23265300Y13280000D02*
X23265300Y16385800D01*
X23265300Y16385800D02*
X24587200Y17707700D01*
X24587200Y17707700D02*
X25299700Y17707700D01*
X25299700Y17707700D02*
X26148400Y18556400D01*
X26148400Y18556400D02*
X26148400Y21153000D01*
X26148400Y21153000D02*
X29245400Y24250000D01*
X29245400Y24250000D02*
X30730800Y24250000D01*
X30730800Y24250000D02*
X33111300Y26630500D01*
X33111300Y26630500D02*
X33111300Y51874000D01*
X33111300Y51874000D02*
X31525300Y53460000D01*
X21740000Y13280000D02*
X23265300Y13280000D01*
X30000000Y53460000D02*
X31525300Y53460000D01*
X63214700Y43300000D02*
X51927400Y54587300D01*
X51927400Y54587300D02*
X51927400Y57959500D01*
X51927400Y57959500D02*
X47669900Y62217000D01*
X47669900Y62217000D02*
X47669900Y66602500D01*
X47669900Y66602500D02*
X46646100Y67626300D01*
X46646100Y67626300D02*
X25092700Y67626300D01*
X25092700Y67626300D02*
X8955000Y51488600D01*
X8955000Y51488600D02*
X8955000Y41676100D01*
X8955000Y41676100D02*
X7228900Y39950000D01*
X7228900Y39950000D02*
X5750700Y39950000D01*
X5750700Y39950000D02*
X4524400Y38723700D01*
X4524400Y38723700D02*
X4524400Y11190300D01*
X4524400Y11190300D02*
X4974700Y10740000D01*
X50224700Y65540000D02*
X50224700Y65907300D01*
X50224700Y65907300D02*
X49413200Y66718800D01*
X49413200Y66718800D02*
X47786200Y66718800D01*
X47786200Y66718800D02*
X47669900Y66602500D01*
X64740000Y43300000D02*
X63214700Y43300000D01*
X6500000Y10740000D02*
X4974700Y10740000D01*
X51400000Y65540000D02*
X50224700Y65540000D01*
X51400000Y63000000D02*
X51400000Y61824700D01*
X66265300Y38220000D02*
X66715600Y38670300D01*
X66715600Y38670300D02*
X66715600Y48463900D01*
X66715600Y48463900D02*
X65529500Y49650000D01*
X65529500Y49650000D02*
X62109100Y49650000D01*
X62109100Y49650000D02*
X53278300Y58480800D01*
X53278300Y58480800D02*
X53278300Y59946400D01*
X53278300Y59946400D02*
X51400000Y61824700D01*
X64740000Y38220000D02*
X66265300Y38220000D01*
X8025300Y13280000D02*
X20479900Y825400D01*
X20479900Y825400D02*
X49454600Y825400D01*
X49454600Y825400D02*
X59534600Y10905400D01*
X59534600Y10905400D02*
X59534600Y12423000D01*
X59534600Y12423000D02*
X61832700Y14721100D01*
X61832700Y14721100D02*
X61832700Y24620600D01*
X61832700Y24620600D02*
X64002100Y26790000D01*
X64002100Y26790000D02*
X65487400Y26790000D01*
X65487400Y26790000D02*
X66265300Y27567900D01*
X66265300Y27567900D02*
X66265300Y38220000D01*
X6500000Y13280000D02*
X8025300Y13280000D01*
X32603800Y64364700D02*
X32350000Y64618500D01*
X32350000Y64618500D02*
X32350000Y65981300D01*
X32350000Y65981300D02*
X31605600Y66725700D01*
X31605600Y66725700D02*
X25465900Y66725700D01*
X25465900Y66725700D02*
X10075300Y51335100D01*
X10075300Y51335100D02*
X10075300Y27556400D01*
X10075300Y27556400D02*
X7228900Y24710000D01*
X7228900Y24710000D02*
X5774400Y24710000D01*
X5774400Y24710000D02*
X4974700Y23910300D01*
X4974700Y23910300D02*
X4974700Y15820000D01*
X64740000Y45840000D02*
X52828000Y57752000D01*
X52828000Y57752000D02*
X52828000Y58332800D01*
X52828000Y58332800D02*
X50035300Y61125500D01*
X50035300Y61125500D02*
X50035300Y63556800D01*
X50035300Y63556800D02*
X49227400Y64364700D01*
X49227400Y64364700D02*
X48860000Y64364700D01*
X6500000Y15820000D02*
X4974700Y15820000D01*
X48860000Y65540000D02*
X48860000Y64364700D01*
X64740000Y48380000D02*
X66265300Y46854700D01*
X66265300Y46854700D02*
X66265300Y45341500D01*
X66265300Y45341500D02*
X65578600Y44654800D01*
X65578600Y44654800D02*
X63913300Y44654800D01*
X63913300Y44654800D02*
X52377700Y56190400D01*
X52377700Y56190400D02*
X52377700Y58146200D01*
X52377700Y58146200D02*
X48860000Y61663900D01*
X48860000Y61663900D02*
X48860000Y63000000D01*
X46320000Y65540000D02*
X46320000Y64364700D01*
X46320000Y64364700D02*
X45952700Y64364700D01*
X45952700Y64364700D02*
X45137700Y63549700D01*
X45137700Y63549700D02*
X45137700Y61834100D01*
X45137700Y61834100D02*
X47643300Y59328500D01*
X47643300Y59328500D02*
X47643300Y58279700D01*
X47643300Y58279700D02*
X47961600Y57961400D01*
X47961600Y57961400D02*
X47961600Y52458400D01*
X47961600Y52458400D02*
X49500000Y50920000D01*
X6500000Y20900000D02*
X8025300Y20900000D01*
X19944500Y50110200D02*
X13750000Y43915700D01*
X13750000Y43915700D02*
X13750000Y26624700D01*
X13750000Y26624700D02*
X8025300Y20900000D01*
X6500000Y23440000D02*
X8025300Y23440000D01*
X24246500Y48199900D02*
X24246500Y50868800D01*
X24246500Y50868800D02*
X22608100Y52507200D01*
X22608100Y52507200D02*
X20831500Y52507200D01*
X20831500Y52507200D02*
X10790900Y42466600D01*
X10790900Y42466600D02*
X10790900Y26205600D01*
X10790900Y26205600D02*
X8025300Y23440000D01*
X51025300Y48380000D02*
X51025300Y56951000D01*
X51025300Y56951000D02*
X48488400Y59487900D01*
X48488400Y59487900D02*
X48120700Y59487900D01*
X48120700Y59487900D02*
X48120700Y59488000D01*
X48120700Y59488000D02*
X46320000Y61288700D01*
X46320000Y61288700D02*
X46320000Y63000000D01*
X49500000Y48380000D02*
X51025300Y48380000D01*
X51025300Y45840000D02*
X51477100Y46291800D01*
X51477100Y46291800D02*
X51477100Y57230500D01*
X51477100Y57230500D02*
X47047000Y61660600D01*
X30000000Y45840000D02*
X30000000Y45840100D01*
X30000000Y45840100D02*
X29908900Y45840100D01*
X29908900Y45840100D02*
X28013600Y47735400D01*
X28013600Y47735400D02*
X28013600Y56516100D01*
X28013600Y56516100D02*
X32021300Y60523800D01*
X32021300Y60523800D02*
X33617800Y60523800D01*
X33617800Y60523800D02*
X34693800Y61599800D01*
X49500000Y45840000D02*
X51025300Y45840000D01*
X43780000Y61824700D02*
X47060900Y58543800D01*
X47060900Y58543800D02*
X47060900Y57907000D01*
X47060900Y57907000D02*
X47511200Y57456700D01*
X47511200Y57456700D02*
X47511200Y52067700D01*
X47511200Y52067700D02*
X47974700Y51604200D01*
X47974700Y51604200D02*
X47974700Y43300000D01*
X49500000Y43300000D02*
X47974700Y43300000D01*
X43780000Y63000000D02*
X43780000Y61824700D01*
X41240000Y64364700D02*
X41607400Y64364700D01*
X41607400Y64364700D02*
X42415300Y63556800D01*
X42415300Y63556800D02*
X42415300Y61442600D01*
X42415300Y61442600D02*
X43687800Y60170100D01*
X43687800Y60170100D02*
X43687800Y55488400D01*
X43687800Y55488400D02*
X44446200Y54730000D01*
X44446200Y54730000D02*
X45966700Y54730000D01*
X45966700Y54730000D02*
X47034000Y53662700D01*
X47034000Y53662700D02*
X47034000Y51589800D01*
X47034000Y51589800D02*
X47325300Y51298500D01*
X47325300Y51298500D02*
X47325300Y41409400D01*
X47325300Y41409400D02*
X47974700Y40760000D01*
X41240000Y65540000D02*
X41240000Y64364700D01*
X49500000Y40760000D02*
X47974700Y40760000D01*
X47974700Y38220000D02*
X46765400Y39429300D01*
X46765400Y39429300D02*
X46765400Y46310600D01*
X46765400Y46310600D02*
X45966000Y47110000D01*
X45966000Y47110000D02*
X44505000Y47110000D01*
X44505000Y47110000D02*
X41342600Y50272400D01*
X41342600Y50272400D02*
X41342600Y61722100D01*
X41342600Y61722100D02*
X41240000Y61824700D01*
X49500000Y38220000D02*
X47974700Y38220000D01*
X41240000Y63000000D02*
X41240000Y61824700D01*
X38700000Y64364700D02*
X38999100Y64364700D01*
X38999100Y64364700D02*
X39891900Y63471900D01*
X39891900Y63471900D02*
X39891900Y44067500D01*
X39891900Y44067500D02*
X44469400Y39490000D01*
X44469400Y39490000D02*
X45995600Y39490000D01*
X45995600Y39490000D02*
X49500000Y35985600D01*
X49500000Y35985600D02*
X49500000Y35680000D01*
X38700000Y65540000D02*
X38700000Y64364700D01*
X38700000Y63000000D02*
X37430000Y64270000D01*
X37430000Y64270000D02*
X37430000Y65961400D01*
X37430000Y65961400D02*
X36215400Y67176000D01*
X36215400Y67176000D02*
X25279300Y67176000D01*
X25279300Y67176000D02*
X9545000Y51441700D01*
X9545000Y51441700D02*
X9545000Y40199700D01*
X9545000Y40199700D02*
X8025300Y38680000D01*
X38700000Y63000000D02*
X38700000Y61824700D01*
X38700000Y61824700D02*
X38700000Y42766800D01*
X38700000Y42766800D02*
X44516800Y36950000D01*
X44516800Y36950000D02*
X45978600Y36950000D01*
X45978600Y36950000D02*
X49500000Y33428600D01*
X49500000Y33428600D02*
X49500000Y33140000D01*
X6500000Y38680000D02*
X8025300Y38680000D01*
X56756500Y32712900D02*
X56329400Y33140000D01*
X56329400Y33140000D02*
X49500000Y33140000D01*
X43714700Y33140000D02*
X37391200Y39463500D01*
X37391200Y39463500D02*
X37391200Y63436400D01*
X37391200Y63436400D02*
X36462900Y64364700D01*
X36462900Y64364700D02*
X36160000Y64364700D01*
X45240000Y33140000D02*
X43714700Y33140000D01*
X36160000Y65540000D02*
X36160000Y64364700D01*
X46765300Y33140000D02*
X47955800Y31949500D01*
X47955800Y31949500D02*
X62024200Y31949500D01*
X62024200Y31949500D02*
X63214700Y33140000D01*
X26000000Y27040000D02*
X24874700Y27040000D01*
X24874700Y27040000D02*
X21740000Y23905300D01*
X21740000Y23905300D02*
X21740000Y23440000D01*
X64740000Y33140000D02*
X63214700Y33140000D01*
X45240000Y33140000D02*
X46765300Y33140000D01*
X26000000Y29580000D02*
X24874700Y29580000D01*
X24874700Y29580000D02*
X24874700Y28949700D01*
X24874700Y28949700D02*
X21905000Y25980000D01*
X21905000Y25980000D02*
X21740000Y25980000D01*
X43714700Y30600000D02*
X36902500Y37412200D01*
X36902500Y37412200D02*
X36902500Y61082200D01*
X36902500Y61082200D02*
X36160000Y61824700D01*
X45240000Y30600000D02*
X43714700Y30600000D01*
X36160000Y63000000D02*
X36160000Y61824700D01*
X64740000Y30600000D02*
X63214700Y30600000D01*
X45240000Y30600000D02*
X46765300Y30600000D01*
X46765300Y30600000D02*
X47955800Y29409500D01*
X47955800Y29409500D02*
X62024200Y29409500D01*
X62024200Y29409500D02*
X63214700Y30600000D01*
X36452100Y35322600D02*
X43714700Y28060000D01*
X33620000Y64364700D02*
X33987400Y64364700D01*
X33987400Y64364700D02*
X34795300Y63556800D01*
X34795300Y63556800D02*
X34795300Y62552500D01*
X34795300Y62552500D02*
X36452100Y60895700D01*
X36452100Y60895700D02*
X36452100Y35322600D01*
X36324200Y35221200D02*
X36350700Y35221200D01*
X36350700Y35221200D02*
X36452100Y35322600D01*
X45240000Y28060000D02*
X43714700Y28060000D01*
X33620000Y65540000D02*
X33620000Y64364700D01*
X26000000Y32120000D02*
X24874700Y32120000D01*
X24874700Y32120000D02*
X24874700Y31654700D01*
X24874700Y31654700D02*
X21740000Y28520000D01*
X64740000Y28060000D02*
X63214700Y28060000D01*
X45240000Y28060000D02*
X46765300Y28060000D01*
X46765300Y28060000D02*
X47955800Y26869500D01*
X47955800Y26869500D02*
X62024200Y26869500D01*
X62024200Y26869500D02*
X63214700Y28060000D01*
X26000000Y34660000D02*
X28112100Y36772100D01*
X28112100Y36772100D02*
X28112100Y46726700D01*
X28112100Y46726700D02*
X27563300Y47275500D01*
X27563300Y47275500D02*
X27563300Y56702700D01*
X27563300Y56702700D02*
X32685300Y61824700D01*
X32685300Y61824700D02*
X33620000Y61824700D01*
X84740000Y40740000D02*
X84740000Y39214700D01*
X73503200Y28570900D02*
X84147000Y39214700D01*
X84147000Y39214700D02*
X84740000Y39214700D01*
X33620000Y63000000D02*
X33620000Y61824700D01*
X26000000Y37200000D02*
X27638200Y38838200D01*
X27638200Y38838200D02*
X27638200Y46563700D01*
X27638200Y46563700D02*
X27113000Y47088900D01*
X27113000Y47088900D02*
X27113000Y56889300D01*
X27113000Y56889300D02*
X32302200Y62078500D01*
X32302200Y62078500D02*
X32302200Y63509800D01*
X32302200Y63509800D02*
X31447300Y64364700D01*
X31447300Y64364700D02*
X31080000Y64364700D01*
X31080000Y65540000D02*
X31080000Y64364700D01*
X64740000Y22980000D02*
X66265300Y22980000D01*
X67337300Y33779800D02*
X67337300Y24052000D01*
X67337300Y24052000D02*
X66265300Y22980000D01*
X26000000Y37200000D02*
X26000000Y36074700D01*
X21740000Y33600000D02*
X23265300Y33600000D01*
X26000000Y36074700D02*
X25740000Y36074700D01*
X25740000Y36074700D02*
X23265300Y33600000D01*
X32371200Y38912000D02*
X32532600Y38750600D01*
X32532600Y38750600D02*
X32532600Y27882100D01*
X32532600Y27882100D02*
X30170500Y25520000D01*
X30170500Y25520000D02*
X30000000Y25520000D01*
X26000000Y40865300D02*
X26281400Y40865300D01*
X26281400Y40865300D02*
X27142400Y41726300D01*
X27142400Y41726300D02*
X27142400Y46422600D01*
X27142400Y46422600D02*
X26662700Y46902300D01*
X26662700Y46902300D02*
X26662700Y57075900D01*
X26662700Y57075900D02*
X31080000Y61493200D01*
X31080000Y61493200D02*
X31080000Y63000000D01*
X79660000Y40740000D02*
X79660000Y35753400D01*
X79660000Y35753400D02*
X72777900Y28871300D01*
X72777900Y28871300D02*
X72777900Y27819900D01*
X26000000Y39740000D02*
X26000000Y40865300D01*
X26000000Y39740000D02*
X26000000Y38614700D01*
X26000000Y38614700D02*
X25740000Y38614700D01*
X25740000Y38614700D02*
X23265300Y36140000D01*
X21740000Y36140000D02*
X23265300Y36140000D01*
X24874700Y42280000D02*
X21740000Y39145300D01*
X21740000Y39145300D02*
X21740000Y38680000D01*
X28540000Y64364700D02*
X28172600Y64364700D01*
X28172600Y64364700D02*
X27364700Y63556800D01*
X27364700Y63556800D02*
X27364700Y60121800D01*
X27364700Y60121800D02*
X25662200Y58419300D01*
X25662200Y58419300D02*
X25662200Y47459200D01*
X25662200Y47459200D02*
X24874700Y46671700D01*
X24874700Y46671700D02*
X24874700Y42481000D01*
X24874700Y42481000D02*
X24874800Y42480900D01*
X24874800Y42480900D02*
X24874900Y42480900D01*
X24874900Y42480900D02*
X24882000Y42473800D01*
X24882000Y42473800D02*
X24882000Y42370400D01*
X24882000Y42370400D02*
X24874700Y42363100D01*
X24874700Y42363100D02*
X24874700Y42280000D01*
X28540000Y65540000D02*
X28540000Y64364700D01*
X21740000Y38680000D02*
X20214700Y38680000D01*
X20214700Y38680000D02*
X20214700Y33133000D01*
X20214700Y33133000D02*
X20913900Y32433800D01*
X20913900Y32433800D02*
X23503800Y32433800D01*
X23503800Y32433800D02*
X24329400Y33259400D01*
X24329400Y33259400D02*
X27680400Y33259400D01*
X27680400Y33259400D02*
X29069800Y31870000D01*
X29069800Y31870000D02*
X30746400Y31870000D01*
X30746400Y31870000D02*
X31558000Y31058400D01*
X31558000Y31058400D02*
X31558000Y29618000D01*
X31558000Y29618000D02*
X30000000Y28060000D01*
X26000000Y42280000D02*
X24874700Y42280000D01*
X28474700Y30600000D02*
X28349700Y30725000D01*
X28349700Y30725000D02*
X25339700Y30725000D01*
X25339700Y30725000D02*
X24373100Y29758400D01*
X24373100Y29758400D02*
X24373100Y29158200D01*
X24373100Y29158200D02*
X22577100Y27362200D01*
X22577100Y27362200D02*
X20902600Y27362200D01*
X20902600Y27362200D02*
X20123000Y28141800D01*
X20123000Y28141800D02*
X20123000Y31758300D01*
X20123000Y31758300D02*
X20220700Y31856000D01*
X20220700Y31856000D02*
X20220700Y32457000D01*
X20220700Y32457000D02*
X19750800Y32926900D01*
X19750800Y32926900D02*
X19750800Y40756100D01*
X19750800Y40756100D02*
X20214700Y41220000D01*
X30000000Y30600000D02*
X28474700Y30600000D01*
X21740000Y41220000D02*
X20214700Y41220000D01*
X26000000Y45945300D02*
X26212400Y46157700D01*
X26212400Y46157700D02*
X26212400Y57262500D01*
X26212400Y57262500D02*
X28540000Y59590100D01*
X28540000Y59590100D02*
X28540000Y61824700D01*
X26000000Y44820000D02*
X26000000Y45945300D01*
X28540000Y63000000D02*
X28540000Y61824700D01*
X40617300Y58626000D02*
X40617300Y45382700D01*
X40617300Y45382700D02*
X45240000Y40760000D01*
X30540000Y11500000D02*
X30540000Y9974700D01*
X30540000Y9974700D02*
X26974700Y9974700D01*
X26974700Y9974700D02*
X25000000Y8000000D01*
X19495400Y32156500D02*
X19288900Y32363000D01*
X19288900Y32363000D02*
X19288900Y48404600D01*
X19288900Y48404600D02*
X21740000Y50855700D01*
X21740000Y50855700D02*
X21740000Y51380000D01*
X83160000Y54594700D02*
X85700000Y52054700D01*
X85700000Y52054700D02*
X85700000Y48500000D01*
X83160000Y56120000D02*
X83160000Y54594700D01*
X80620000Y57645300D02*
X77609600Y57645300D01*
X77609600Y57645300D02*
X76821400Y56857100D01*
X76821400Y56857100D02*
X76821400Y42641600D01*
X76821400Y42641600D02*
X75850000Y41670200D01*
X75850000Y41670200D02*
X75850000Y39972500D01*
X75850000Y39972500D02*
X73892300Y38014800D01*
X80620000Y56120000D02*
X80620000Y57645300D01*
X58120000Y19120000D02*
X58120000Y17594700D01*
X53040000Y11500000D02*
X53040000Y13025300D01*
X53040000Y13025300D02*
X57609400Y17594700D01*
X57609400Y17594700D02*
X58120000Y17594700D01*
D29*
X99340001Y660000D02*
X50364001Y660000D01*
X53345336Y3641335D01*
X56225000Y3641335D01*
X56225000Y3358665D01*
X56280147Y3081426D01*
X56388320Y2820273D01*
X56545363Y2585241D01*
X56745241Y2385363D01*
X56980273Y2228320D01*
X57241426Y2120147D01*
X57518665Y2065000D01*
X57801335Y2065000D01*
X58078574Y2120147D01*
X58339727Y2228320D01*
X58574759Y2385363D01*
X58774637Y2585241D01*
X58931680Y2820273D01*
X59039853Y3081426D01*
X59095000Y3358665D01*
X59095000Y3641335D01*
X59093041Y3651184D01*
X60425000Y3651184D01*
X60425000Y3348816D01*
X60483989Y3052257D01*
X60599701Y2772905D01*
X60767688Y2521495D01*
X60981495Y2307688D01*
X61232905Y2139701D01*
X61512257Y2023989D01*
X61808816Y1965000D01*
X62111184Y1965000D01*
X62407743Y2023989D01*
X62687095Y2139701D01*
X62938505Y2307688D01*
X63004944Y2374127D01*
X63010498Y2355820D01*
X63069463Y2245506D01*
X63148815Y2148815D01*
X63245506Y2069463D01*
X63355820Y2010498D01*
X63475518Y1974188D01*
X63600000Y1961928D01*
X64214250Y1965000D01*
X64373000Y2123750D01*
X64373000Y3373000D01*
X64627000Y3373000D01*
X64627000Y2123750D01*
X64785750Y1965000D01*
X65400000Y1961928D01*
X65524482Y1974188D01*
X65644180Y2010498D01*
X65754494Y2069463D01*
X65851185Y2148815D01*
X65930537Y2245506D01*
X65989502Y2355820D01*
X66025812Y2475518D01*
X66038072Y2600000D01*
X66035000Y3214250D01*
X65876250Y3373000D01*
X64627000Y3373000D01*
X64373000Y3373000D01*
X64353000Y3373000D01*
X64353000Y3627000D01*
X64373000Y3627000D01*
X64373000Y4876250D01*
X64627000Y4876250D01*
X64627000Y3627000D01*
X65876250Y3627000D01*
X65895510Y3646260D01*
X68935000Y3646260D01*
X68935000Y3353740D01*
X68992068Y3066842D01*
X69104010Y2796589D01*
X69266525Y2553368D01*
X69473368Y2346525D01*
X69716589Y2184010D01*
X69986842Y2072068D01*
X70273740Y2015000D01*
X70566260Y2015000D01*
X70853158Y2072068D01*
X71123411Y2184010D01*
X71366632Y2346525D01*
X71573475Y2553368D01*
X71690000Y2727760D01*
X71806525Y2553368D01*
X72013368Y2346525D01*
X72256589Y2184010D01*
X72526842Y2072068D01*
X72813740Y2015000D01*
X73106260Y2015000D01*
X73393158Y2072068D01*
X73663411Y2184010D01*
X73906632Y2346525D01*
X74038487Y2478380D01*
X74060498Y2405820D01*
X74119463Y2295506D01*
X74198815Y2198815D01*
X74295506Y2119463D01*
X74405820Y2060498D01*
X74525518Y2024188D01*
X74650000Y2011928D01*
X76350000Y2011928D01*
X76474482Y2024188D01*
X76594180Y2060498D01*
X76704494Y2119463D01*
X76801185Y2198815D01*
X76880537Y2295506D01*
X76939502Y2405820D01*
X76975812Y2525518D01*
X76988072Y2650000D01*
X76988072Y4350000D01*
X76975812Y4474482D01*
X76939502Y4594180D01*
X76880537Y4704494D01*
X76867707Y4720128D01*
X92265000Y4720128D01*
X92265000Y4279872D01*
X92350890Y3848075D01*
X92519369Y3441331D01*
X92763962Y3075271D01*
X93075271Y2763962D01*
X93441331Y2519369D01*
X93848075Y2350890D01*
X94279872Y2265000D01*
X94720128Y2265000D01*
X95151925Y2350890D01*
X95558669Y2519369D01*
X95924729Y2763962D01*
X96236038Y3075271D01*
X96480631Y3441331D01*
X96649110Y3848075D01*
X96735000Y4279872D01*
X96735000Y4720128D01*
X96649110Y5151925D01*
X96480631Y5558669D01*
X96236038Y5924729D01*
X95924729Y6236038D01*
X95558669Y6480631D01*
X95151925Y6649110D01*
X94720128Y6735000D01*
X94279872Y6735000D01*
X93848075Y6649110D01*
X93441331Y6480631D01*
X93075271Y6236038D01*
X92763962Y5924729D01*
X92519369Y5558669D01*
X92350890Y5151925D01*
X92265000Y4720128D01*
X76867707Y4720128D01*
X76801185Y4801185D01*
X76704494Y4880537D01*
X76594180Y4939502D01*
X76474482Y4975812D01*
X76350000Y4988072D01*
X74650000Y4988072D01*
X74525518Y4975812D01*
X74405820Y4939502D01*
X74295506Y4880537D01*
X74198815Y4801185D01*
X74119463Y4704494D01*
X74060498Y4594180D01*
X74038487Y4521620D01*
X73906632Y4653475D01*
X73663411Y4815990D01*
X73393158Y4927932D01*
X73106260Y4985000D01*
X72813740Y4985000D01*
X72526842Y4927932D01*
X72256589Y4815990D01*
X72013368Y4653475D01*
X71806525Y4446632D01*
X71690000Y4272240D01*
X71573475Y4446632D01*
X71366632Y4653475D01*
X71123411Y4815990D01*
X70853158Y4927932D01*
X70566260Y4985000D01*
X70273740Y4985000D01*
X69986842Y4927932D01*
X69716589Y4815990D01*
X69473368Y4653475D01*
X69266525Y4446632D01*
X69104010Y4203411D01*
X68992068Y3933158D01*
X68935000Y3646260D01*
X65895510Y3646260D01*
X66035000Y3785750D01*
X66038072Y4400000D01*
X66025812Y4524482D01*
X65989502Y4644180D01*
X65930537Y4754494D01*
X65851185Y4851185D01*
X65754494Y4930537D01*
X65644180Y4989502D01*
X65524482Y5025812D01*
X65400000Y5038072D01*
X64785750Y5035000D01*
X64627000Y4876250D01*
X64373000Y4876250D01*
X64214250Y5035000D01*
X63600000Y5038072D01*
X63475518Y5025812D01*
X63355820Y4989502D01*
X63245506Y4930537D01*
X63148815Y4851185D01*
X63069463Y4754494D01*
X63010498Y4644180D01*
X63004944Y4625873D01*
X62938505Y4692312D01*
X62687095Y4860299D01*
X62407743Y4976011D01*
X62111184Y5035000D01*
X61808816Y5035000D01*
X61512257Y4976011D01*
X61232905Y4860299D01*
X60981495Y4692312D01*
X60767688Y4478505D01*
X60599701Y4227095D01*
X60483989Y3947743D01*
X60425000Y3651184D01*
X59093041Y3651184D01*
X59039853Y3918574D01*
X58931680Y4179727D01*
X58774637Y4414759D01*
X58574759Y4614637D01*
X58339727Y4771680D01*
X58078574Y4879853D01*
X57801335Y4935000D01*
X57518665Y4935000D01*
X57241426Y4879853D01*
X56980273Y4771680D01*
X56745241Y4614637D01*
X56545363Y4414759D01*
X56388320Y4179727D01*
X56280147Y3918574D01*
X56225000Y3641335D01*
X53345336Y3641335D01*
X55704001Y6000000D01*
X81611928Y6000000D01*
X81624188Y5875518D01*
X81660498Y5755820D01*
X81719463Y5645506D01*
X81798815Y5548815D01*
X81895506Y5469463D01*
X82005820Y5410498D01*
X82125518Y5374188D01*
X82250000Y5361928D01*
X83714250Y5365000D01*
X83873000Y5523750D01*
X83873000Y7373000D01*
X84127000Y7373000D01*
X84127000Y5523750D01*
X84285750Y5365000D01*
X85750000Y5361928D01*
X85874482Y5374188D01*
X85994180Y5410498D01*
X86104494Y5469463D01*
X86201185Y5548815D01*
X86280537Y5645506D01*
X86339502Y5755820D01*
X86375812Y5875518D01*
X86388072Y6000000D01*
X86385000Y7214250D01*
X86226250Y7373000D01*
X84127000Y7373000D01*
X83873000Y7373000D01*
X81773750Y7373000D01*
X81615000Y7214250D01*
X81611928Y6000000D01*
X55704001Y6000000D01*
X58704001Y9000000D01*
X81611928Y9000000D01*
X81615000Y7785750D01*
X81773750Y7627000D01*
X83873000Y7627000D01*
X83873000Y9476250D01*
X84127000Y9476250D01*
X84127000Y7627000D01*
X86226250Y7627000D01*
X86385000Y7785750D01*
X86388072Y9000000D01*
X86375812Y9124482D01*
X86339502Y9244180D01*
X86280537Y9354494D01*
X86201185Y9451185D01*
X86104494Y9530537D01*
X85994180Y9589502D01*
X85874482Y9625812D01*
X85750000Y9638072D01*
X84285750Y9635000D01*
X84127000Y9476250D01*
X83873000Y9476250D01*
X83714250Y9635000D01*
X82250000Y9638072D01*
X82125518Y9625812D01*
X82005820Y9589502D01*
X81895506Y9530537D01*
X81798815Y9451185D01*
X81719463Y9354494D01*
X81660498Y9244180D01*
X81624188Y9124482D01*
X81611928Y9000000D01*
X58704001Y9000000D01*
X59719485Y10015483D01*
X59858900Y9901068D01*
X60108193Y9767818D01*
X60378692Y9685764D01*
X60660000Y9658057D01*
X60941309Y9685764D01*
X61211808Y9767818D01*
X61461101Y9901068D01*
X61679608Y10080392D01*
X61858932Y10298899D01*
X61930000Y10431858D01*
X62001068Y10298899D01*
X62180393Y10080392D01*
X62398900Y9901068D01*
X62648193Y9767818D01*
X62918692Y9685764D01*
X63200000Y9658057D01*
X63481309Y9685764D01*
X63751808Y9767818D01*
X64001101Y9901068D01*
X64219608Y10080392D01*
X64398932Y10298899D01*
X64467265Y10426741D01*
X64617399Y10197161D01*
X64815105Y9995500D01*
X65048354Y9836285D01*
X65308182Y9725633D01*
X65390961Y9708096D01*
X65613000Y9830085D01*
X65613000Y11373000D01*
X65867000Y11373000D01*
X65867000Y9830085D01*
X66089039Y9708096D01*
X66171818Y9725633D01*
X66431646Y9836285D01*
X66664895Y9995500D01*
X66676461Y10007298D01*
X71186903Y10007298D01*
X71258486Y9763329D01*
X71513996Y9642429D01*
X71788184Y9573700D01*
X72070512Y9559783D01*
X72350130Y9601213D01*
X72616292Y9696397D01*
X72741514Y9763329D01*
X72813097Y10007298D01*
X72000000Y10820395D01*
X71186903Y10007298D01*
X66676461Y10007298D01*
X66862601Y10197161D01*
X67017166Y10433517D01*
X67122650Y10695486D01*
X67166791Y10929488D01*
X70559783Y10929488D01*
X70601213Y10649870D01*
X70696397Y10383708D01*
X70763329Y10258486D01*
X71007298Y10186903D01*
X71820395Y11000000D01*
X72179605Y11000000D01*
X72992702Y10186903D01*
X73061928Y10207215D01*
X73061928Y10200000D01*
X73074188Y10075518D01*
X73110498Y9955820D01*
X73169463Y9845506D01*
X73248815Y9748815D01*
X73345506Y9669463D01*
X73455820Y9610498D01*
X73575518Y9574188D01*
X73700000Y9561928D01*
X75300000Y9561928D01*
X75424482Y9574188D01*
X75544180Y9610498D01*
X75654494Y9669463D01*
X75751185Y9748815D01*
X75830537Y9845506D01*
X75889502Y9955820D01*
X75925812Y10075518D01*
X75938072Y10200000D01*
X75938072Y11800000D01*
X75925812Y11924482D01*
X75889502Y12044180D01*
X75830537Y12154494D01*
X75751185Y12251185D01*
X75654494Y12330537D01*
X75544180Y12389502D01*
X75424482Y12425812D01*
X75300000Y12438072D01*
X73700000Y12438072D01*
X73575518Y12425812D01*
X73455820Y12389502D01*
X73345506Y12330537D01*
X73248815Y12251185D01*
X73169463Y12154494D01*
X73110498Y12044180D01*
X73074188Y11924482D01*
X73061928Y11800000D01*
X73061928Y11792785D01*
X72992702Y11813097D01*
X72179605Y11000000D01*
X71820395Y11000000D01*
X71007298Y11813097D01*
X70763329Y11741514D01*
X70642429Y11486004D01*
X70573700Y11211816D01*
X70559783Y10929488D01*
X67166791Y10929488D01*
X67175000Y10973000D01*
X67175000Y11373000D01*
X65867000Y11373000D01*
X65613000Y11373000D01*
X65593000Y11373000D01*
X65593000Y11627000D01*
X65613000Y11627000D01*
X65613000Y13169915D01*
X65867000Y13169915D01*
X65867000Y11627000D01*
X67175000Y11627000D01*
X67175000Y11992702D01*
X71186903Y11992702D01*
X72000000Y11179605D01*
X72813097Y11992702D01*
X72741514Y12236671D01*
X72486004Y12357571D01*
X72211816Y12426300D01*
X71929488Y12440217D01*
X71649870Y12398787D01*
X71383708Y12303603D01*
X71258486Y12236671D01*
X71186903Y11992702D01*
X67175000Y11992702D01*
X67175000Y12027000D01*
X67122650Y12304514D01*
X67017166Y12566483D01*
X66862601Y12802839D01*
X66664895Y13004500D01*
X66431646Y13163715D01*
X66171818Y13274367D01*
X66089039Y13291904D01*
X65867000Y13169915D01*
X65613000Y13169915D01*
X65390961Y13291904D01*
X65308182Y13274367D01*
X65048354Y13163715D01*
X64815105Y13004500D01*
X64617399Y12802839D01*
X64467265Y12573259D01*
X64398932Y12701101D01*
X64219607Y12919608D01*
X64001100Y13098932D01*
X63751807Y13232182D01*
X63481308Y13314236D01*
X63200000Y13341943D01*
X62918691Y13314236D01*
X62648192Y13232182D01*
X62398899Y13098932D01*
X62180392Y12919607D01*
X62001068Y12701100D01*
X61930000Y12568142D01*
X61858932Y12701101D01*
X61679607Y12919608D01*
X61461100Y13098932D01*
X61346558Y13160156D01*
X62343704Y14157302D01*
X62372701Y14181099D01*
X62467674Y14296824D01*
X62538246Y14428853D01*
X62581703Y14572114D01*
X62592700Y14683767D01*
X62592700Y14683776D01*
X62596376Y14721099D01*
X62592700Y14758422D01*
X62592700Y15250000D01*
X81611928Y15250000D01*
X81611928Y11750000D01*
X81624188Y11625518D01*
X81660498Y11505820D01*
X81719463Y11395506D01*
X81798815Y11298815D01*
X81895506Y11219463D01*
X82005820Y11160498D01*
X82125518Y11124188D01*
X82250000Y11111928D01*
X85750000Y11111928D01*
X85874482Y11124188D01*
X85994180Y11160498D01*
X86104494Y11219463D01*
X86201185Y11298815D01*
X86280537Y11395506D01*
X86321494Y11472131D01*
X86311928Y11375000D01*
X86311928Y9625000D01*
X86341001Y9329814D01*
X86427104Y9045972D01*
X86566927Y8784382D01*
X86755097Y8555097D01*
X86984382Y8366927D01*
X87245972Y8227104D01*
X87529814Y8141001D01*
X87825000Y8111928D01*
X89575000Y8111928D01*
X89870186Y8141001D01*
X90154028Y8227104D01*
X90415618Y8366927D01*
X90644903Y8555097D01*
X90833073Y8784382D01*
X90972896Y9045972D01*
X91058999Y9329814D01*
X91088072Y9625000D01*
X91088072Y11375000D01*
X91058999Y11670186D01*
X90972896Y11954028D01*
X90833073Y12215618D01*
X90644903Y12444903D01*
X90415618Y12633073D01*
X90154028Y12772896D01*
X89870186Y12858999D01*
X89575000Y12888072D01*
X87825000Y12888072D01*
X87529814Y12858999D01*
X87245972Y12772896D01*
X86984382Y12633073D01*
X86755097Y12444903D01*
X86566927Y12215618D01*
X86427104Y11954028D01*
X86388072Y11825357D01*
X86388072Y15250000D01*
X86375812Y15374482D01*
X86339502Y15494180D01*
X86280537Y15604494D01*
X86201185Y15701185D01*
X86104494Y15780537D01*
X85994180Y15839502D01*
X85874482Y15875812D01*
X85750000Y15888072D01*
X82250000Y15888072D01*
X82125518Y15875812D01*
X82005820Y15839502D01*
X81895506Y15780537D01*
X81798815Y15701185D01*
X81719463Y15604494D01*
X81660498Y15494180D01*
X81624188Y15374482D01*
X81611928Y15250000D01*
X62592700Y15250000D01*
X62592700Y17417480D01*
X62648193Y17387818D01*
X62918692Y17305764D01*
X63200000Y17278057D01*
X63481309Y17305764D01*
X63751808Y17387818D01*
X64001101Y17521068D01*
X64219608Y17700392D01*
X64398932Y17918899D01*
X64470000Y18051858D01*
X64541068Y17918899D01*
X64720393Y17700392D01*
X64938900Y17521068D01*
X65188193Y17387818D01*
X65458692Y17305764D01*
X65740000Y17278057D01*
X66021309Y17305764D01*
X66291808Y17387818D01*
X66541101Y17521068D01*
X66759608Y17700392D01*
X66876004Y17842221D01*
X66870100Y17812539D01*
X66870100Y17608661D01*
X66909874Y17408702D01*
X66987895Y17220344D01*
X67101163Y17050826D01*
X67245326Y16906663D01*
X67414844Y16793395D01*
X67603202Y16715374D01*
X67803161Y16675600D01*
X68007039Y16675600D01*
X68206998Y16715374D01*
X68395356Y16793395D01*
X68564874Y16906663D01*
X68709037Y17050826D01*
X68822305Y17220344D01*
X68900326Y17408702D01*
X68940100Y17608661D01*
X68940100Y17812539D01*
X68901361Y18007298D01*
X71186903Y18007298D01*
X71258486Y17763329D01*
X71513996Y17642429D01*
X71788184Y17573700D01*
X72070512Y17559783D01*
X72350130Y17601213D01*
X72616292Y17696397D01*
X72741514Y17763329D01*
X72813097Y18007298D01*
X72000000Y18820395D01*
X71186903Y18007298D01*
X68901361Y18007298D01*
X68900326Y18012498D01*
X68831000Y18179865D01*
X68831000Y18929488D01*
X70559783Y18929488D01*
X70601213Y18649870D01*
X70696397Y18383708D01*
X70763329Y18258486D01*
X71007298Y18186903D01*
X71820395Y19000000D01*
X71007298Y19813097D01*
X70763329Y19741514D01*
X70642429Y19486004D01*
X70573700Y19211816D01*
X70559783Y18929488D01*
X68831000Y18929488D01*
X68831000Y19992702D01*
X71186903Y19992702D01*
X72000000Y19179605D01*
X72813097Y19992702D01*
X72741514Y20236671D01*
X72486004Y20357571D01*
X72211816Y20426300D01*
X71929488Y20440217D01*
X71649870Y20398787D01*
X71383708Y20303603D01*
X71258486Y20236671D01*
X71186903Y19992702D01*
X68831000Y19992702D01*
X68831000Y23662711D01*
X69214250Y23665000D01*
X69373000Y23823750D01*
X69373000Y25373000D01*
X69353000Y25373000D01*
X69353000Y25627000D01*
X69373000Y25627000D01*
X69373000Y27176250D01*
X69214250Y27335000D01*
X68831000Y27337289D01*
X68831000Y39070459D01*
X68948193Y39007818D01*
X69218692Y38925764D01*
X69500000Y38898057D01*
X69781309Y38925764D01*
X70051808Y39007818D01*
X70301101Y39141068D01*
X70519608Y39320392D01*
X70698932Y39538899D01*
X70767265Y39666741D01*
X70917399Y39437161D01*
X71115105Y39235500D01*
X71348354Y39076285D01*
X71608182Y38965633D01*
X71690961Y38948096D01*
X71913000Y39070085D01*
X71913000Y40613000D01*
X71893000Y40613000D01*
X71893000Y40867000D01*
X71913000Y40867000D01*
X71913000Y42409915D01*
X71690961Y42531904D01*
X71608182Y42514367D01*
X71348354Y42403715D01*
X71115105Y42244500D01*
X70917399Y42042839D01*
X70767265Y41813259D01*
X70698932Y41941101D01*
X70519607Y42159608D01*
X70301100Y42338932D01*
X70051807Y42472182D01*
X69781308Y42554236D01*
X69500000Y42581943D01*
X69218691Y42554236D01*
X68948192Y42472182D01*
X68831000Y42409542D01*
X68831000Y42693975D01*
X68834676Y42731300D01*
X68831000Y42768625D01*
X68831000Y42768633D01*
X68820003Y42880286D01*
X68776546Y43023547D01*
X68705974Y43155576D01*
X68611001Y43271301D01*
X68582003Y43295099D01*
X67925900Y43951201D01*
X67925900Y44524568D01*
X68081426Y44460147D01*
X68358665Y44405000D01*
X68641335Y44405000D01*
X68918574Y44460147D01*
X69179727Y44568320D01*
X69414759Y44725363D01*
X69614637Y44925241D01*
X69771680Y45160273D01*
X69879853Y45421426D01*
X69935000Y45698665D01*
X69935000Y45981335D01*
X69879853Y46258574D01*
X69771680Y46519727D01*
X69614637Y46754759D01*
X69414759Y46954637D01*
X69182241Y47110000D01*
X69414759Y47265363D01*
X69614637Y47465241D01*
X69771680Y47700273D01*
X69879853Y47961426D01*
X69935000Y48238665D01*
X69935000Y48521335D01*
X69879853Y48798574D01*
X69771680Y49059727D01*
X69614637Y49294759D01*
X69414759Y49494637D01*
X69182241Y49650000D01*
X69414759Y49805363D01*
X69614637Y50005241D01*
X69771680Y50240273D01*
X69879853Y50501426D01*
X69935000Y50778665D01*
X69935000Y51061335D01*
X69879853Y51338574D01*
X69771680Y51599727D01*
X69614637Y51834759D01*
X69414759Y52034637D01*
X69182241Y52190000D01*
X69414759Y52345363D01*
X69509947Y52440551D01*
X71776551Y50173947D01*
X71748815Y50151185D01*
X71669463Y50054494D01*
X71610498Y49944180D01*
X71574188Y49824482D01*
X71561928Y49700000D01*
X71561928Y47300000D01*
X71574188Y47175518D01*
X71610498Y47055820D01*
X71669463Y46945506D01*
X71748815Y46848815D01*
X71845506Y46769463D01*
X71955820Y46710498D01*
X72075518Y46674188D01*
X72200000Y46661928D01*
X73365401Y46661928D01*
X73365401Y44896403D01*
X72654402Y44185404D01*
X72625399Y44161601D01*
X72571071Y44095401D01*
X72530426Y44045876D01*
X72471147Y43934974D01*
X72459854Y43913846D01*
X72416397Y43770585D01*
X72405400Y43658932D01*
X72405400Y43658922D01*
X72401724Y43621600D01*
X72405400Y43584278D01*
X72405400Y42528438D01*
X72389039Y42531904D01*
X72167000Y42409915D01*
X72167000Y40867000D01*
X72187000Y40867000D01*
X72187000Y40613000D01*
X72167000Y40613000D01*
X72167000Y39070085D01*
X72389039Y38948096D01*
X72405400Y38951562D01*
X72405401Y30847403D01*
X70397903Y28839904D01*
X70368899Y28816101D01*
X70327410Y28765546D01*
X70273926Y28700376D01*
X70231667Y28621315D01*
X70203354Y28568346D01*
X70159897Y28425085D01*
X70148900Y28313432D01*
X70148900Y28313422D01*
X70145224Y28276100D01*
X70148900Y28238777D01*
X70148900Y27337169D01*
X69785750Y27335000D01*
X69627000Y27176250D01*
X69627000Y25627000D01*
X69647000Y25627000D01*
X69647000Y25373000D01*
X69627000Y25373000D01*
X69627000Y23823750D01*
X69785750Y23665000D01*
X70150501Y23662821D01*
X70159898Y23567414D01*
X70166863Y23544454D01*
X70203354Y23424154D01*
X70273926Y23292124D01*
X70328441Y23225698D01*
X70368900Y23176399D01*
X70397898Y23152601D01*
X73276551Y20273947D01*
X73248815Y20251185D01*
X73169463Y20154494D01*
X73110498Y20044180D01*
X73074188Y19924482D01*
X73061928Y19800000D01*
X73061928Y19792785D01*
X72992702Y19813097D01*
X72179605Y19000000D01*
X72992702Y18186903D01*
X73061928Y18207215D01*
X73061928Y18200000D01*
X73074188Y18075518D01*
X73110498Y17955820D01*
X73169463Y17845506D01*
X73248815Y17748815D01*
X73345506Y17669463D01*
X73455820Y17610498D01*
X73575518Y17574188D01*
X73700000Y17561928D01*
X75300000Y17561928D01*
X75424482Y17574188D01*
X75544180Y17610498D01*
X75654494Y17669463D01*
X75751185Y17748815D01*
X75830537Y17845506D01*
X75889502Y17955820D01*
X75925812Y18075518D01*
X75938072Y18200000D01*
X75938072Y18802700D01*
X76740078Y18802700D01*
X76777400Y18799024D01*
X76814722Y18802700D01*
X76814733Y18802700D01*
X76926386Y18813697D01*
X77069647Y18857154D01*
X77201676Y18927726D01*
X77317401Y19022699D01*
X77317581Y19022918D01*
X77860907Y18479592D01*
X77764201Y18382886D01*
X77612629Y18156043D01*
X77508225Y17903989D01*
X77455000Y17636411D01*
X77455000Y17363589D01*
X77508225Y17096011D01*
X77612629Y16843957D01*
X77764201Y16617114D01*
X77957114Y16424201D01*
X78183957Y16272629D01*
X78436011Y16168225D01*
X78703589Y16115000D01*
X78976411Y16115000D01*
X79243989Y16168225D01*
X79496043Y16272629D01*
X79722886Y16424201D01*
X79915799Y16617114D01*
X80067371Y16843957D01*
X80171775Y17096011D01*
X80225000Y17363589D01*
X80225000Y17636411D01*
X80171775Y17903989D01*
X80067371Y18156043D01*
X79915799Y18382886D01*
X79722886Y18575799D01*
X79595226Y18661099D01*
X79589003Y18724286D01*
X79545546Y18867547D01*
X79474974Y18999576D01*
X79380001Y19115301D01*
X79351003Y19139099D01*
X79337332Y19152770D01*
X79519727Y19228320D01*
X79754759Y19385363D01*
X79954637Y19585241D01*
X80111680Y19820273D01*
X80219853Y20081426D01*
X80275000Y20358665D01*
X80275000Y20641335D01*
X80219853Y20918574D01*
X80111680Y21179727D01*
X79954637Y21414759D01*
X79754759Y21614637D01*
X79519727Y21771680D01*
X79258574Y21879853D01*
X78981335Y21935000D01*
X78698665Y21935000D01*
X78421426Y21879853D01*
X78160273Y21771680D01*
X77925241Y21614637D01*
X77725363Y21414759D01*
X77618053Y21254158D01*
X77565714Y21249003D01*
X77422453Y21205546D01*
X77290424Y21134974D01*
X77174699Y21040001D01*
X77150896Y21010997D01*
X76804003Y20664104D01*
X76774999Y20640301D01*
X76751200Y20611302D01*
X76462599Y20322700D01*
X75664043Y20322700D01*
X75654494Y20330537D01*
X75544180Y20389502D01*
X75424482Y20425812D01*
X75300000Y20438072D01*
X75194575Y20438072D01*
X75134974Y20549576D01*
X75040001Y20665301D01*
X75011003Y20689099D01*
X72041861Y23658240D01*
X72321309Y23685764D01*
X72591808Y23767818D01*
X72841101Y23901068D01*
X73059608Y24080392D01*
X73238932Y24298899D01*
X73310000Y24431858D01*
X73381068Y24298899D01*
X73560393Y24080392D01*
X73778900Y23901068D01*
X74028193Y23767818D01*
X74298692Y23685764D01*
X74580000Y23658057D01*
X74861309Y23685764D01*
X75131808Y23767818D01*
X75381101Y23901068D01*
X75599608Y24080392D01*
X75778932Y24298899D01*
X75850000Y24431858D01*
X75921068Y24298899D01*
X76100393Y24080392D01*
X76318900Y23901068D01*
X76568193Y23767818D01*
X76838692Y23685764D01*
X77120000Y23658057D01*
X77401309Y23685764D01*
X77671808Y23767818D01*
X77921101Y23901068D01*
X78139608Y24080392D01*
X78318932Y24298899D01*
X78390000Y24431858D01*
X78461068Y24298899D01*
X78640393Y24080392D01*
X78858900Y23901068D01*
X78906058Y23875862D01*
X78910997Y23825714D01*
X78954454Y23682453D01*
X79025026Y23550424D01*
X79119999Y23434699D01*
X79235724Y23339726D01*
X79367753Y23269154D01*
X79511014Y23225697D01*
X79622667Y23214700D01*
X79660000Y23211023D01*
X79697333Y23214700D01*
X90267678Y23214700D01*
X90305000Y23211024D01*
X90342322Y23214700D01*
X90342333Y23214700D01*
X90397881Y23220171D01*
X89112711Y21935000D01*
X88858665Y21935000D01*
X88581426Y21879853D01*
X88320273Y21771680D01*
X88085241Y21614637D01*
X87885363Y21414759D01*
X87728320Y21179727D01*
X87620147Y20918574D01*
X87565000Y20641335D01*
X87565000Y20358665D01*
X87620147Y20081426D01*
X87728320Y19820273D01*
X87885363Y19585241D01*
X88065001Y19405603D01*
X88065000Y18857454D01*
X88005820Y18839502D01*
X87895506Y18780537D01*
X87798815Y18701185D01*
X87719463Y18604494D01*
X87660498Y18494180D01*
X87624188Y18374482D01*
X87611928Y18250000D01*
X87611928Y16750000D01*
X87624188Y16625518D01*
X87660498Y16505820D01*
X87719463Y16395506D01*
X87798815Y16298815D01*
X87895506Y16219463D01*
X88005820Y16160498D01*
X88125518Y16124188D01*
X88250000Y16111928D01*
X89750000Y16111928D01*
X89874482Y16124188D01*
X89994180Y16160498D01*
X90104494Y16219463D01*
X90201185Y16298815D01*
X90280537Y16395506D01*
X90339502Y16505820D01*
X90375812Y16625518D01*
X90388072Y16750000D01*
X90388072Y18250000D01*
X90375812Y18374482D01*
X90339502Y18494180D01*
X90280537Y18604494D01*
X90201185Y18701185D01*
X90104494Y18780537D01*
X89994180Y18839502D01*
X89935000Y18857454D01*
X89935000Y19405604D01*
X90114637Y19585241D01*
X90271680Y19820273D01*
X90379853Y20081426D01*
X90435000Y20358665D01*
X90435000Y20612711D01*
X90483322Y20661033D01*
X91365000Y20661033D01*
X91365000Y20338967D01*
X91427832Y20023088D01*
X91551082Y19725537D01*
X91730013Y19457748D01*
X91957748Y19230013D01*
X92225537Y19051082D01*
X92240000Y19045091D01*
X92240001Y15454909D01*
X92225537Y15448918D01*
X91957748Y15269987D01*
X91730013Y15042252D01*
X91551082Y14774463D01*
X91427832Y14476912D01*
X91365000Y14161033D01*
X91365000Y13838967D01*
X91427832Y13523088D01*
X91551082Y13225537D01*
X91730013Y12957748D01*
X91957748Y12730013D01*
X92225537Y12551082D01*
X92523088Y12427832D01*
X92838967Y12365000D01*
X93161033Y12365000D01*
X93476912Y12427832D01*
X93774463Y12551082D01*
X94042252Y12730013D01*
X94176826Y12864587D01*
X96544192Y12864587D01*
X96639956Y12600186D01*
X96929571Y12459296D01*
X97241108Y12377616D01*
X97562595Y12358282D01*
X97881675Y12402039D01*
X98186088Y12507205D01*
X98360044Y12600186D01*
X98455808Y12864587D01*
X97500000Y13820395D01*
X96544192Y12864587D01*
X94176826Y12864587D01*
X94269987Y12957748D01*
X94448918Y13225537D01*
X94572168Y13523088D01*
X94635000Y13838967D01*
X94635000Y13937405D01*
X95858282Y13937405D01*
X95902039Y13618325D01*
X96007205Y13313912D01*
X96100186Y13139956D01*
X96364587Y13044192D01*
X97320395Y14000000D01*
X97679605Y14000000D01*
X98635413Y13044192D01*
X98899814Y13139956D01*
X99040704Y13429571D01*
X99122384Y13741108D01*
X99141718Y14062595D01*
X99097961Y14381675D01*
X98992795Y14686088D01*
X98899814Y14860044D01*
X98635413Y14955808D01*
X97679605Y14000000D01*
X97320395Y14000000D01*
X96364587Y14955808D01*
X96100186Y14860044D01*
X95959296Y14570429D01*
X95877616Y14258892D01*
X95858282Y13937405D01*
X94635000Y13937405D01*
X94635000Y14161033D01*
X94572168Y14476912D01*
X94448918Y14774463D01*
X94269987Y15042252D01*
X94176826Y15135413D01*
X96544192Y15135413D01*
X97500000Y14179605D01*
X98455808Y15135413D01*
X98360044Y15399814D01*
X98070429Y15540704D01*
X97758892Y15622384D01*
X97437405Y15641718D01*
X97118325Y15597961D01*
X96813912Y15492795D01*
X96639956Y15399814D01*
X96544192Y15135413D01*
X94176826Y15135413D01*
X94042252Y15269987D01*
X93774463Y15448918D01*
X93760000Y15454909D01*
X93760000Y19045091D01*
X93774463Y19051082D01*
X94042252Y19230013D01*
X94176826Y19364587D01*
X96544192Y19364587D01*
X96639956Y19100186D01*
X96929571Y18959296D01*
X97241108Y18877616D01*
X97562595Y18858282D01*
X97881675Y18902039D01*
X98186088Y19007205D01*
X98360044Y19100186D01*
X98455808Y19364587D01*
X97500000Y20320395D01*
X96544192Y19364587D01*
X94176826Y19364587D01*
X94269987Y19457748D01*
X94448918Y19725537D01*
X94572168Y20023088D01*
X94635000Y20338967D01*
X94635000Y20437405D01*
X95858282Y20437405D01*
X95902039Y20118325D01*
X96007205Y19813912D01*
X96100186Y19639956D01*
X96364587Y19544192D01*
X97320395Y20500000D01*
X97679605Y20500000D01*
X98635413Y19544192D01*
X98899814Y19639956D01*
X99040704Y19929571D01*
X99122384Y20241108D01*
X99141718Y20562595D01*
X99097961Y20881675D01*
X98992795Y21186088D01*
X98899814Y21360044D01*
X98635413Y21455808D01*
X97679605Y20500000D01*
X97320395Y20500000D01*
X96364587Y21455808D01*
X96100186Y21360044D01*
X95959296Y21070429D01*
X95877616Y20758892D01*
X95858282Y20437405D01*
X94635000Y20437405D01*
X94635000Y20661033D01*
X94572168Y20976912D01*
X94448918Y21274463D01*
X94269987Y21542252D01*
X94176826Y21635413D01*
X96544192Y21635413D01*
X97500000Y20679605D01*
X98455808Y21635413D01*
X98360044Y21899814D01*
X98070429Y22040704D01*
X97758892Y22122384D01*
X97437405Y22141718D01*
X97118325Y22097961D01*
X96813912Y21992795D01*
X96639956Y21899814D01*
X96544192Y21635413D01*
X94176826Y21635413D01*
X94042252Y21769987D01*
X93774463Y21948918D01*
X93476912Y22072168D01*
X93161033Y22135000D01*
X92838967Y22135000D01*
X92523088Y22072168D01*
X92225537Y21948918D01*
X91957748Y21769987D01*
X91730013Y21542252D01*
X91551082Y21274463D01*
X91427832Y20976912D01*
X91365000Y20661033D01*
X90483322Y20661033D01*
X92686990Y22864700D01*
X97394068Y22864700D01*
X97440000Y22860176D01*
X97485932Y22864700D01*
X97623292Y22878229D01*
X97799540Y22931693D01*
X97961972Y23018514D01*
X98104344Y23135356D01*
X98221186Y23277728D01*
X98308007Y23440160D01*
X98361471Y23616408D01*
X98379524Y23799700D01*
X98375000Y23845632D01*
X98375000Y24010956D01*
X98459608Y24080392D01*
X98638932Y24298899D01*
X98772182Y24548192D01*
X98854236Y24818691D01*
X98875000Y25029509D01*
X98875000Y25970492D01*
X98854236Y26181309D01*
X98772182Y26451808D01*
X98638932Y26701101D01*
X98459607Y26919608D01*
X98375000Y26989043D01*
X98375000Y27154369D01*
X98379524Y27200301D01*
X98361471Y27383593D01*
X98338953Y27457824D01*
X98308007Y27559840D01*
X98221186Y27722272D01*
X98104344Y27864644D01*
X98068664Y27893926D01*
X95213978Y30748611D01*
X95241514Y30763329D01*
X95313097Y31007298D01*
X94500000Y31820395D01*
X94485858Y31806252D01*
X94306253Y31985857D01*
X94320395Y32000000D01*
X94679605Y32000000D01*
X95492702Y31186903D01*
X95736671Y31258486D01*
X95857571Y31513996D01*
X95926300Y31788184D01*
X95940217Y32070512D01*
X95898787Y32350130D01*
X95803603Y32616292D01*
X95736671Y32741514D01*
X95492702Y32813097D01*
X94679605Y32000000D01*
X94320395Y32000000D01*
X94306253Y32014142D01*
X94485858Y32193747D01*
X94500000Y32179605D01*
X95313097Y32992702D01*
X95241514Y33236671D01*
X95212659Y33250324D01*
X95414759Y33385363D01*
X95614637Y33585241D01*
X95771680Y33820273D01*
X95879853Y34081426D01*
X95935000Y34358665D01*
X95935000Y34641335D01*
X95879853Y34918574D01*
X95771680Y35179727D01*
X95614637Y35414759D01*
X95414759Y35614637D01*
X95179727Y35771680D01*
X94918574Y35879853D01*
X94641335Y35935000D01*
X94358665Y35935000D01*
X94081426Y35879853D01*
X93820273Y35771680D01*
X93585241Y35614637D01*
X93385363Y35414759D01*
X93228320Y35179727D01*
X93120147Y34918574D01*
X93065000Y34641335D01*
X93065000Y34387289D01*
X92558841Y33881130D01*
X92523156Y33851844D01*
X92406314Y33709471D01*
X92319493Y33547039D01*
X92273760Y33396276D01*
X92266029Y33370791D01*
X92247976Y33187500D01*
X92252500Y33141568D01*
X92252501Y31498742D01*
X92247976Y31452800D01*
X92266029Y31269509D01*
X92314112Y31111003D01*
X92319494Y31093260D01*
X92406315Y30930828D01*
X92523157Y30788456D01*
X92558836Y30759175D01*
X96410480Y26907530D01*
X96241068Y26701100D01*
X96170000Y26568142D01*
X96098932Y26701101D01*
X95919607Y26919608D01*
X95701100Y27098932D01*
X95451807Y27232182D01*
X95181308Y27314236D01*
X94900000Y27341943D01*
X94618691Y27314236D01*
X94348192Y27232182D01*
X94098899Y27098932D01*
X93880392Y26919607D01*
X93701068Y26701100D01*
X93630000Y26568142D01*
X93558932Y26701101D01*
X93379607Y26919608D01*
X93161100Y27098932D01*
X92911807Y27232182D01*
X92641308Y27314236D01*
X92360000Y27341943D01*
X92078691Y27314236D01*
X91850000Y27244864D01*
X91850000Y34599099D01*
X96503275Y39252373D01*
X96638900Y39141068D01*
X96888193Y39007818D01*
X97158692Y38925764D01*
X97440000Y38898057D01*
X97721309Y38925764D01*
X97991808Y39007818D01*
X98241101Y39141068D01*
X98459608Y39320392D01*
X98638932Y39538899D01*
X98772182Y39788192D01*
X98854236Y40058691D01*
X98875000Y40269509D01*
X98875000Y41210492D01*
X98854236Y41421309D01*
X98772182Y41691808D01*
X98638932Y41941101D01*
X98459607Y42159608D01*
X98241100Y42338932D01*
X97991807Y42472182D01*
X97721308Y42554236D01*
X97440000Y42581943D01*
X97158691Y42554236D01*
X96888192Y42472182D01*
X96785300Y42417185D01*
X96785300Y52589378D01*
X96788976Y52626701D01*
X96785300Y52664024D01*
X96785300Y52664033D01*
X96774303Y52775686D01*
X96730846Y52918947D01*
X96660274Y53050976D01*
X96619284Y53100923D01*
X96589099Y53137704D01*
X96589095Y53137708D01*
X96565301Y53166701D01*
X96536309Y53190494D01*
X93677491Y56049310D01*
X93815990Y56256589D01*
X93927932Y56526842D01*
X93985000Y56813740D01*
X93985000Y57106260D01*
X93927932Y57393158D01*
X93815990Y57663411D01*
X93653475Y57906632D01*
X93521620Y58038487D01*
X93594180Y58060498D01*
X93704494Y58119463D01*
X93801185Y58198815D01*
X93880537Y58295506D01*
X93939502Y58405820D01*
X93975812Y58525518D01*
X93988072Y58650000D01*
X93985000Y59214250D01*
X93826250Y59373000D01*
X92627000Y59373000D01*
X92627000Y59353000D01*
X92373000Y59353000D01*
X92373000Y59373000D01*
X91173750Y59373000D01*
X91015000Y59214250D01*
X91011928Y58650000D01*
X91024188Y58525518D01*
X91060498Y58405820D01*
X91119463Y58295506D01*
X91198815Y58198815D01*
X91295506Y58119463D01*
X91405820Y58060498D01*
X91478380Y58038487D01*
X91346525Y57906632D01*
X91184010Y57663411D01*
X91072068Y57393158D01*
X91015000Y57106260D01*
X91015000Y56813740D01*
X91072068Y56526842D01*
X91184010Y56256589D01*
X91346525Y56013368D01*
X91553368Y55806525D01*
X91727760Y55690000D01*
X91553368Y55573475D01*
X91346525Y55366632D01*
X91184010Y55123411D01*
X91072068Y54853158D01*
X91015000Y54566260D01*
X91015000Y54273740D01*
X91072068Y53986842D01*
X91184010Y53716589D01*
X91346525Y53473368D01*
X91553368Y53266525D01*
X91727760Y53150000D01*
X91553368Y53033475D01*
X91346525Y52826632D01*
X91184010Y52583411D01*
X91072068Y52313158D01*
X91015000Y52026260D01*
X91015000Y51733740D01*
X91072068Y51446842D01*
X91184010Y51176589D01*
X91346525Y50933368D01*
X91553368Y50726525D01*
X91727760Y50610000D01*
X91553368Y50493475D01*
X91346525Y50286632D01*
X91184010Y50043411D01*
X91072068Y49773158D01*
X91015000Y49486260D01*
X91015000Y49193740D01*
X91072068Y48906842D01*
X91184010Y48636589D01*
X91346525Y48393368D01*
X91553368Y48186525D01*
X91727760Y48070000D01*
X91553368Y47953475D01*
X91346525Y47746632D01*
X91184010Y47503411D01*
X91072068Y47233158D01*
X91015000Y46946260D01*
X91015000Y46653740D01*
X91072068Y46366842D01*
X91184010Y46096589D01*
X91346525Y45853368D01*
X91553368Y45646525D01*
X91796589Y45484010D01*
X92066842Y45372068D01*
X92353740Y45315000D01*
X92646260Y45315000D01*
X92933158Y45372068D01*
X93203411Y45484010D01*
X93446632Y45646525D01*
X93653475Y45853368D01*
X93815990Y46096589D01*
X93927932Y46366842D01*
X93985000Y46653740D01*
X93985000Y46946260D01*
X93927932Y47233158D01*
X93815990Y47503411D01*
X93653475Y47746632D01*
X93446632Y47953475D01*
X93272240Y48070000D01*
X93446632Y48186525D01*
X93653475Y48393368D01*
X93815990Y48636589D01*
X93927932Y48906842D01*
X93985000Y49193740D01*
X93985000Y49486260D01*
X93927932Y49773158D01*
X93815990Y50043411D01*
X93653475Y50286632D01*
X93446632Y50493475D01*
X93272240Y50610000D01*
X93446632Y50726525D01*
X93653475Y50933368D01*
X93815990Y51176589D01*
X93927932Y51446842D01*
X93985000Y51733740D01*
X93985000Y52026260D01*
X93927932Y52313158D01*
X93815990Y52583411D01*
X93653475Y52826632D01*
X93446632Y53033475D01*
X93272240Y53150000D01*
X93446632Y53266525D01*
X93653475Y53473368D01*
X93815990Y53716589D01*
X93829059Y53748139D01*
X95265300Y52311897D01*
X95265301Y42931797D01*
X95192247Y42970846D01*
X95048986Y43014303D01*
X94900000Y43028977D01*
X94862667Y43025300D01*
X92749202Y43025300D01*
X88935551Y46838950D01*
X89164895Y46995500D01*
X89362601Y47197161D01*
X89517166Y47433517D01*
X89622650Y47695486D01*
X89675000Y47973000D01*
X89675000Y48373000D01*
X88367000Y48373000D01*
X88367000Y48353000D01*
X88113000Y48353000D01*
X88113000Y48373000D01*
X88093000Y48373000D01*
X88093000Y48627000D01*
X88113000Y48627000D01*
X88113000Y50169915D01*
X88367000Y50169915D01*
X88367000Y48627000D01*
X89675000Y48627000D01*
X89675000Y49027000D01*
X89622650Y49304514D01*
X89517166Y49566483D01*
X89362601Y49802839D01*
X89164895Y50004500D01*
X88931646Y50163715D01*
X88671818Y50274367D01*
X88589039Y50291904D01*
X88367000Y50169915D01*
X88113000Y50169915D01*
X87890961Y50291904D01*
X87808182Y50274367D01*
X87585400Y50179492D01*
X87585400Y53431977D01*
X87589076Y53469300D01*
X87585400Y53506623D01*
X87585400Y53506633D01*
X87574403Y53618286D01*
X87530946Y53761547D01*
X87497470Y53824176D01*
X87460374Y53893577D01*
X87389199Y53980303D01*
X87365401Y54009301D01*
X87336404Y54033098D01*
X86691872Y54677630D01*
X86719608Y54700392D01*
X86898932Y54918899D01*
X86970000Y55051858D01*
X87041068Y54918899D01*
X87220393Y54700392D01*
X87438900Y54521068D01*
X87688193Y54387818D01*
X87958692Y54305764D01*
X88240000Y54278057D01*
X88521309Y54305764D01*
X88791808Y54387818D01*
X89041101Y54521068D01*
X89259608Y54700392D01*
X89438932Y54918899D01*
X89572182Y55168192D01*
X89654236Y55438691D01*
X89675000Y55649509D01*
X89675000Y56590492D01*
X89654236Y56801309D01*
X89572182Y57071808D01*
X89438932Y57321101D01*
X89259607Y57539608D01*
X89041100Y57718932D01*
X88791807Y57852182D01*
X88521308Y57934236D01*
X88240000Y57961943D01*
X87958691Y57934236D01*
X87688192Y57852182D01*
X87438899Y57718932D01*
X87220392Y57539607D01*
X87041068Y57321100D01*
X86970000Y57188142D01*
X86898932Y57321101D01*
X86719607Y57539608D01*
X86501100Y57718932D01*
X86453942Y57744138D01*
X86449003Y57794286D01*
X86405546Y57937547D01*
X86334974Y58069576D01*
X86311155Y58098600D01*
X86263799Y58156304D01*
X86263795Y58156308D01*
X86240001Y58185301D01*
X86211008Y58209095D01*
X84070103Y60350000D01*
X91011928Y60350000D01*
X91015000Y59785750D01*
X91173750Y59627000D01*
X92373000Y59627000D01*
X92373000Y60826250D01*
X92627000Y60826250D01*
X92627000Y59627000D01*
X93826250Y59627000D01*
X93985000Y59785750D01*
X93988072Y60350000D01*
X93975812Y60474482D01*
X93939502Y60594180D01*
X93880537Y60704494D01*
X93801185Y60801185D01*
X93704494Y60880537D01*
X93594180Y60939502D01*
X93474482Y60975812D01*
X93350000Y60988072D01*
X92785750Y60985000D01*
X92627000Y60826250D01*
X92373000Y60826250D01*
X92214250Y60985000D01*
X91650000Y60988072D01*
X91525518Y60975812D01*
X91405820Y60939502D01*
X91295506Y60880537D01*
X91198815Y60801185D01*
X91119463Y60704494D01*
X91060498Y60594180D01*
X91024188Y60474482D01*
X91011928Y60350000D01*
X84070103Y60350000D01*
X77146004Y67274097D01*
X77122201Y67303101D01*
X77006476Y67398074D01*
X76874447Y67468646D01*
X76731186Y67512103D01*
X76619533Y67523100D01*
X76619522Y67523100D01*
X76582200Y67526776D01*
X76544878Y67523100D01*
X73858133Y67523100D01*
X73820800Y67526777D01*
X73783467Y67523100D01*
X73671814Y67512103D01*
X73528553Y67468646D01*
X73396524Y67398074D01*
X73280799Y67303101D01*
X73257001Y67274102D01*
X72990000Y67007101D01*
X72770803Y67226298D01*
X72747001Y67255301D01*
X72631276Y67350274D01*
X72499247Y67420846D01*
X72355986Y67464303D01*
X72244333Y67475300D01*
X72244322Y67475300D01*
X72207000Y67478976D01*
X72169678Y67475300D01*
X61040522Y67475300D01*
X61003199Y67478976D01*
X60965876Y67475300D01*
X60965867Y67475300D01*
X60854214Y67464303D01*
X60745238Y67431246D01*
X60710953Y67420846D01*
X60578923Y67350274D01*
X60504869Y67289499D01*
X60463199Y67255301D01*
X60439401Y67226302D01*
X59930630Y66717531D01*
X59723411Y66855990D01*
X59453158Y66967932D01*
X59166260Y67025000D01*
X58873740Y67025000D01*
X58586842Y66967932D01*
X58316589Y66855990D01*
X58091447Y66705555D01*
X56209404Y68587597D01*
X56185601Y68616601D01*
X56069876Y68711574D01*
X55937847Y68782146D01*
X55794586Y68825603D01*
X55682933Y68836600D01*
X55682922Y68836600D01*
X55645600Y68840276D01*
X55608278Y68836600D01*
X24759222Y68836600D01*
X24721899Y68840276D01*
X24684576Y68836600D01*
X24684567Y68836600D01*
X24572914Y68825603D01*
X24429653Y68782146D01*
X24297624Y68711574D01*
X24181899Y68616601D01*
X24158101Y68587603D01*
X7942371Y52371872D01*
X7919608Y52399608D01*
X7701101Y52578932D01*
X7568142Y52650000D01*
X7701101Y52721068D01*
X7919608Y52900392D01*
X8098932Y53118899D01*
X8232182Y53368192D01*
X8314236Y53638691D01*
X8341943Y53920000D01*
X8314236Y54201309D01*
X8232182Y54471808D01*
X8098932Y54721101D01*
X7919608Y54939608D01*
X7701101Y55118932D01*
X7568142Y55190000D01*
X7701101Y55261068D01*
X7919608Y55440392D01*
X8098932Y55658899D01*
X8232182Y55908192D01*
X8314236Y56178691D01*
X8341943Y56460000D01*
X8314236Y56741309D01*
X8232182Y57011808D01*
X8098932Y57261101D01*
X7919608Y57479608D01*
X7806518Y57572419D01*
X7824482Y57574188D01*
X7944180Y57610498D01*
X8054494Y57669463D01*
X8151185Y57748815D01*
X8230537Y57845506D01*
X8289502Y57955820D01*
X8325812Y58075518D01*
X8338072Y58200000D01*
X8338072Y59800000D01*
X8325812Y59924482D01*
X8289502Y60044180D01*
X8230537Y60154494D01*
X8151185Y60251185D01*
X8054494Y60330537D01*
X7944180Y60389502D01*
X7824482Y60425812D01*
X7700000Y60438072D01*
X5300000Y60438072D01*
X5175518Y60425812D01*
X5055820Y60389502D01*
X4945506Y60330537D01*
X4848815Y60251185D01*
X4769463Y60154494D01*
X4710498Y60044180D01*
X4674188Y59924482D01*
X4661928Y59800000D01*
X4661928Y58660362D01*
X4438072Y58884217D01*
X4438072Y59800000D01*
X4425812Y59924482D01*
X4389502Y60044180D01*
X4330537Y60154494D01*
X4251185Y60251185D01*
X4154494Y60330537D01*
X4044180Y60389502D01*
X3924482Y60425812D01*
X3800000Y60438072D01*
X2200000Y60438072D01*
X2075518Y60425812D01*
X1955820Y60389502D01*
X1845506Y60330537D01*
X1748815Y60251185D01*
X1669463Y60154494D01*
X1610498Y60044180D01*
X1574188Y59924482D01*
X1561928Y59800000D01*
X1561928Y58200000D01*
X1574188Y58075518D01*
X1610498Y57955820D01*
X1669463Y57845506D01*
X1748815Y57748815D01*
X1845506Y57669463D01*
X1955820Y57610498D01*
X2075518Y57574188D01*
X2083961Y57573357D01*
X1885363Y57374759D01*
X1728320Y57139727D01*
X1620147Y56878574D01*
X1565000Y56601335D01*
X1565000Y56318665D01*
X1620147Y56041426D01*
X1728320Y55780273D01*
X1885363Y55545241D01*
X2085241Y55345363D01*
X2317759Y55190000D01*
X2085241Y55034637D01*
X1885363Y54834759D01*
X1728320Y54599727D01*
X1620147Y54338574D01*
X1565000Y54061335D01*
X1565000Y53778665D01*
X1620147Y53501426D01*
X1728320Y53240273D01*
X1885363Y53005241D01*
X2085241Y52805363D01*
X2317759Y52650000D01*
X2085241Y52494637D01*
X1885363Y52294759D01*
X1728320Y52059727D01*
X1620147Y51798574D01*
X1565000Y51521335D01*
X1565000Y51238665D01*
X1620147Y50961426D01*
X1728320Y50700273D01*
X1885363Y50465241D01*
X2085241Y50265363D01*
X2317759Y50110000D01*
X2085241Y49954637D01*
X1885363Y49754759D01*
X1728320Y49519727D01*
X1620147Y49258574D01*
X1565000Y48981335D01*
X1565000Y48698665D01*
X1620147Y48421426D01*
X1728320Y48160273D01*
X1885363Y47925241D01*
X2085241Y47725363D01*
X2317759Y47570000D01*
X2085241Y47414637D01*
X1885363Y47214759D01*
X1728320Y46979727D01*
X1620147Y46718574D01*
X1565000Y46441335D01*
X1565000Y46158665D01*
X1620147Y45881426D01*
X1728320Y45620273D01*
X1885363Y45385241D01*
X2085241Y45185363D01*
X2317759Y45030000D01*
X2085241Y44874637D01*
X1885363Y44674759D01*
X1728320Y44439727D01*
X1620147Y44178574D01*
X1565000Y43901335D01*
X1565000Y43618665D01*
X1620147Y43341426D01*
X1728320Y43080273D01*
X1885363Y42845241D01*
X2085241Y42645363D01*
X2317759Y42490000D01*
X2085241Y42334637D01*
X1885363Y42134759D01*
X1728320Y41899727D01*
X1620147Y41638574D01*
X1565000Y41361335D01*
X1565000Y41078665D01*
X1620147Y40801426D01*
X1728320Y40540273D01*
X1885363Y40305241D01*
X2085241Y40105363D01*
X2317759Y39950000D01*
X2085241Y39794637D01*
X1885363Y39594759D01*
X1728320Y39359727D01*
X1620147Y39098574D01*
X1565000Y38821335D01*
X1565000Y38538665D01*
X1620147Y38261426D01*
X1728320Y38000273D01*
X1885363Y37765241D01*
X2085241Y37565363D01*
X2320273Y37408320D01*
X2581426Y37300147D01*
X2858665Y37245000D01*
X3141335Y37245000D01*
X3418574Y37300147D01*
X3679727Y37408320D01*
X3764400Y37464897D01*
X3764401Y11227633D01*
X3760724Y11190300D01*
X3764401Y11152967D01*
X3775398Y11041314D01*
X3784281Y11012029D01*
X3818854Y10898054D01*
X3889426Y10766024D01*
X3928171Y10718814D01*
X3984400Y10650299D01*
X4013398Y10626501D01*
X4410896Y10229003D01*
X4434699Y10199999D01*
X4550424Y10105026D01*
X4682453Y10034454D01*
X4825714Y9990997D01*
X4875861Y9986058D01*
X4901068Y9938899D01*
X5080392Y9720392D01*
X5298899Y9541068D01*
X5548192Y9407818D01*
X5818691Y9325764D01*
X6029508Y9305000D01*
X6970492Y9305000D01*
X7181309Y9325764D01*
X7451808Y9407818D01*
X7701101Y9541068D01*
X7919608Y9720392D01*
X8098932Y9938899D01*
X8232182Y10188192D01*
X8314236Y10458691D01*
X8341943Y10740000D01*
X8314236Y11021309D01*
X8232182Y11291808D01*
X8098932Y11541101D01*
X7919608Y11759608D01*
X7701101Y11938932D01*
X7568142Y12010000D01*
X7701101Y12081068D01*
X7919608Y12260392D01*
X7942371Y12288128D01*
X19570498Y660000D01*
X660000Y660000D01*
X660000Y4720128D01*
X3265000Y4720128D01*
X3265000Y4279872D01*
X3350890Y3848075D01*
X3519369Y3441331D01*
X3763962Y3075271D01*
X4075271Y2763962D01*
X4441331Y2519369D01*
X4848075Y2350890D01*
X5279872Y2265000D01*
X5720128Y2265000D01*
X6151925Y2350890D01*
X6558669Y2519369D01*
X6924729Y2763962D01*
X7236038Y3075271D01*
X7480631Y3441331D01*
X7649110Y3848075D01*
X7735000Y4279872D01*
X7735000Y4720128D01*
X7649110Y5151925D01*
X7480631Y5558669D01*
X7236038Y5924729D01*
X6924729Y6236038D01*
X6558669Y6480631D01*
X6151925Y6649110D01*
X5720128Y6735000D01*
X5279872Y6735000D01*
X4848075Y6649110D01*
X4441331Y6480631D01*
X4075271Y6236038D01*
X3763962Y5924729D01*
X3519369Y5558669D01*
X3350890Y5151925D01*
X3265000Y4720128D01*
X660000Y4720128D01*
X660000Y70720128D01*
X2765000Y70720128D01*
X2765000Y70279872D01*
X2850890Y69848075D01*
X3019369Y69441331D01*
X3263962Y69075271D01*
X3575271Y68763962D01*
X3941331Y68519369D01*
X4348075Y68350890D01*
X4779872Y68265000D01*
X5220128Y68265000D01*
X5651925Y68350890D01*
X6058669Y68519369D01*
X6424729Y68763962D01*
X6736038Y69075271D01*
X6980631Y69441331D01*
X7149110Y69848075D01*
X7235000Y70279872D01*
X7235000Y70720128D01*
X92265000Y70720128D01*
X92265000Y70279872D01*
X92350890Y69848075D01*
X92519369Y69441331D01*
X92763962Y69075271D01*
X93075271Y68763962D01*
X93441331Y68519369D01*
X93848075Y68350890D01*
X94279872Y68265000D01*
X94720128Y68265000D01*
X95151925Y68350890D01*
X95558669Y68519369D01*
X95924729Y68763962D01*
X96236038Y69075271D01*
X96480631Y69441331D01*
X96649110Y69848075D01*
X96735000Y70279872D01*
X96735000Y70720128D01*
X96649110Y71151925D01*
X96480631Y71558669D01*
X96236038Y71924729D01*
X95924729Y72236038D01*
X95558669Y72480631D01*
X95151925Y72649110D01*
X94720128Y72735000D01*
X94279872Y72735000D01*
X93848075Y72649110D01*
X93441331Y72480631D01*
X93075271Y72236038D01*
X92763962Y71924729D01*
X92519369Y71558669D01*
X92350890Y71151925D01*
X92265000Y70720128D01*
X7235000Y70720128D01*
X7149110Y71151925D01*
X6980631Y71558669D01*
X6736038Y71924729D01*
X6424729Y72236038D01*
X6058669Y72480631D01*
X5651925Y72649110D01*
X5220128Y72735000D01*
X4779872Y72735000D01*
X4348075Y72649110D01*
X3941331Y72480631D01*
X3575271Y72236038D01*
X3263962Y71924729D01*
X3019369Y71558669D01*
X2850890Y71151925D01*
X2765000Y70720128D01*
X660000Y70720128D01*
X660000Y74340000D01*
X99340000Y74340000D01*
X99340001Y660000D01*
G04 #@! TA.AperFunction,Conductor*
D30*
G36*
X99340001Y660000D02*
G01*
X50364001Y660000D01*
X53345336Y3641335D01*
X56225000Y3641335D01*
X56225000Y3358665D01*
X56280147Y3081426D01*
X56388320Y2820273D01*
X56545363Y2585241D01*
X56745241Y2385363D01*
X56980273Y2228320D01*
X57241426Y2120147D01*
X57518665Y2065000D01*
X57801335Y2065000D01*
X58078574Y2120147D01*
X58339727Y2228320D01*
X58574759Y2385363D01*
X58774637Y2585241D01*
X58931680Y2820273D01*
X59039853Y3081426D01*
X59095000Y3358665D01*
X59095000Y3641335D01*
X59093041Y3651184D01*
X60425000Y3651184D01*
X60425000Y3348816D01*
X60483989Y3052257D01*
X60599701Y2772905D01*
X60767688Y2521495D01*
X60981495Y2307688D01*
X61232905Y2139701D01*
X61512257Y2023989D01*
X61808816Y1965000D01*
X62111184Y1965000D01*
X62407743Y2023989D01*
X62687095Y2139701D01*
X62938505Y2307688D01*
X63004944Y2374127D01*
X63010498Y2355820D01*
X63069463Y2245506D01*
X63148815Y2148815D01*
X63245506Y2069463D01*
X63355820Y2010498D01*
X63475518Y1974188D01*
X63600000Y1961928D01*
X64214250Y1965000D01*
X64373000Y2123750D01*
X64373000Y3373000D01*
X64627000Y3373000D01*
X64627000Y2123750D01*
X64785750Y1965000D01*
X65400000Y1961928D01*
X65524482Y1974188D01*
X65644180Y2010498D01*
X65754494Y2069463D01*
X65851185Y2148815D01*
X65930537Y2245506D01*
X65989502Y2355820D01*
X66025812Y2475518D01*
X66038072Y2600000D01*
X66035000Y3214250D01*
X65876250Y3373000D01*
X64627000Y3373000D01*
X64373000Y3373000D01*
X64353000Y3373000D01*
X64353000Y3627000D01*
X64373000Y3627000D01*
X64373000Y4876250D01*
X64627000Y4876250D01*
X64627000Y3627000D01*
X65876250Y3627000D01*
X65895510Y3646260D01*
X68935000Y3646260D01*
X68935000Y3353740D01*
X68992068Y3066842D01*
X69104010Y2796589D01*
X69266525Y2553368D01*
X69473368Y2346525D01*
X69716589Y2184010D01*
X69986842Y2072068D01*
X70273740Y2015000D01*
X70566260Y2015000D01*
X70853158Y2072068D01*
X71123411Y2184010D01*
X71366632Y2346525D01*
X71573475Y2553368D01*
X71690000Y2727760D01*
X71806525Y2553368D01*
X72013368Y2346525D01*
X72256589Y2184010D01*
X72526842Y2072068D01*
X72813740Y2015000D01*
X73106260Y2015000D01*
X73393158Y2072068D01*
X73663411Y2184010D01*
X73906632Y2346525D01*
X74038487Y2478380D01*
X74060498Y2405820D01*
X74119463Y2295506D01*
X74198815Y2198815D01*
X74295506Y2119463D01*
X74405820Y2060498D01*
X74525518Y2024188D01*
X74650000Y2011928D01*
X76350000Y2011928D01*
X76474482Y2024188D01*
X76594180Y2060498D01*
X76704494Y2119463D01*
X76801185Y2198815D01*
X76880537Y2295506D01*
X76939502Y2405820D01*
X76975812Y2525518D01*
X76988072Y2650000D01*
X76988072Y4350000D01*
X76975812Y4474482D01*
X76939502Y4594180D01*
X76880537Y4704494D01*
X76867707Y4720128D01*
X92265000Y4720128D01*
X92265000Y4279872D01*
X92350890Y3848075D01*
X92519369Y3441331D01*
X92763962Y3075271D01*
X93075271Y2763962D01*
X93441331Y2519369D01*
X93848075Y2350890D01*
X94279872Y2265000D01*
X94720128Y2265000D01*
X95151925Y2350890D01*
X95558669Y2519369D01*
X95924729Y2763962D01*
X96236038Y3075271D01*
X96480631Y3441331D01*
X96649110Y3848075D01*
X96735000Y4279872D01*
X96735000Y4720128D01*
X96649110Y5151925D01*
X96480631Y5558669D01*
X96236038Y5924729D01*
X95924729Y6236038D01*
X95558669Y6480631D01*
X95151925Y6649110D01*
X94720128Y6735000D01*
X94279872Y6735000D01*
X93848075Y6649110D01*
X93441331Y6480631D01*
X93075271Y6236038D01*
X92763962Y5924729D01*
X92519369Y5558669D01*
X92350890Y5151925D01*
X92265000Y4720128D01*
X76867707Y4720128D01*
X76801185Y4801185D01*
X76704494Y4880537D01*
X76594180Y4939502D01*
X76474482Y4975812D01*
X76350000Y4988072D01*
X74650000Y4988072D01*
X74525518Y4975812D01*
X74405820Y4939502D01*
X74295506Y4880537D01*
X74198815Y4801185D01*
X74119463Y4704494D01*
X74060498Y4594180D01*
X74038487Y4521620D01*
X73906632Y4653475D01*
X73663411Y4815990D01*
X73393158Y4927932D01*
X73106260Y4985000D01*
X72813740Y4985000D01*
X72526842Y4927932D01*
X72256589Y4815990D01*
X72013368Y4653475D01*
X71806525Y4446632D01*
X71690000Y4272240D01*
X71573475Y4446632D01*
X71366632Y4653475D01*
X71123411Y4815990D01*
X70853158Y4927932D01*
X70566260Y4985000D01*
X70273740Y4985000D01*
X69986842Y4927932D01*
X69716589Y4815990D01*
X69473368Y4653475D01*
X69266525Y4446632D01*
X69104010Y4203411D01*
X68992068Y3933158D01*
X68935000Y3646260D01*
X65895510Y3646260D01*
X66035000Y3785750D01*
X66038072Y4400000D01*
X66025812Y4524482D01*
X65989502Y4644180D01*
X65930537Y4754494D01*
X65851185Y4851185D01*
X65754494Y4930537D01*
X65644180Y4989502D01*
X65524482Y5025812D01*
X65400000Y5038072D01*
X64785750Y5035000D01*
X64627000Y4876250D01*
X64373000Y4876250D01*
X64214250Y5035000D01*
X63600000Y5038072D01*
X63475518Y5025812D01*
X63355820Y4989502D01*
X63245506Y4930537D01*
X63148815Y4851185D01*
X63069463Y4754494D01*
X63010498Y4644180D01*
X63004944Y4625873D01*
X62938505Y4692312D01*
X62687095Y4860299D01*
X62407743Y4976011D01*
X62111184Y5035000D01*
X61808816Y5035000D01*
X61512257Y4976011D01*
X61232905Y4860299D01*
X60981495Y4692312D01*
X60767688Y4478505D01*
X60599701Y4227095D01*
X60483989Y3947743D01*
X60425000Y3651184D01*
X59093041Y3651184D01*
X59039853Y3918574D01*
X58931680Y4179727D01*
X58774637Y4414759D01*
X58574759Y4614637D01*
X58339727Y4771680D01*
X58078574Y4879853D01*
X57801335Y4935000D01*
X57518665Y4935000D01*
X57241426Y4879853D01*
X56980273Y4771680D01*
X56745241Y4614637D01*
X56545363Y4414759D01*
X56388320Y4179727D01*
X56280147Y3918574D01*
X56225000Y3641335D01*
X53345336Y3641335D01*
X55704001Y6000000D01*
X81611928Y6000000D01*
X81624188Y5875518D01*
X81660498Y5755820D01*
X81719463Y5645506D01*
X81798815Y5548815D01*
X81895506Y5469463D01*
X82005820Y5410498D01*
X82125518Y5374188D01*
X82250000Y5361928D01*
X83714250Y5365000D01*
X83873000Y5523750D01*
X83873000Y7373000D01*
X84127000Y7373000D01*
X84127000Y5523750D01*
X84285750Y5365000D01*
X85750000Y5361928D01*
X85874482Y5374188D01*
X85994180Y5410498D01*
X86104494Y5469463D01*
X86201185Y5548815D01*
X86280537Y5645506D01*
X86339502Y5755820D01*
X86375812Y5875518D01*
X86388072Y6000000D01*
X86385000Y7214250D01*
X86226250Y7373000D01*
X84127000Y7373000D01*
X83873000Y7373000D01*
X81773750Y7373000D01*
X81615000Y7214250D01*
X81611928Y6000000D01*
X55704001Y6000000D01*
X58704001Y9000000D01*
X81611928Y9000000D01*
X81615000Y7785750D01*
X81773750Y7627000D01*
X83873000Y7627000D01*
X83873000Y9476250D01*
X84127000Y9476250D01*
X84127000Y7627000D01*
X86226250Y7627000D01*
X86385000Y7785750D01*
X86388072Y9000000D01*
X86375812Y9124482D01*
X86339502Y9244180D01*
X86280537Y9354494D01*
X86201185Y9451185D01*
X86104494Y9530537D01*
X85994180Y9589502D01*
X85874482Y9625812D01*
X85750000Y9638072D01*
X84285750Y9635000D01*
X84127000Y9476250D01*
X83873000Y9476250D01*
X83714250Y9635000D01*
X82250000Y9638072D01*
X82125518Y9625812D01*
X82005820Y9589502D01*
X81895506Y9530537D01*
X81798815Y9451185D01*
X81719463Y9354494D01*
X81660498Y9244180D01*
X81624188Y9124482D01*
X81611928Y9000000D01*
X58704001Y9000000D01*
X59719485Y10015483D01*
X59858900Y9901068D01*
X60108193Y9767818D01*
X60378692Y9685764D01*
X60660000Y9658057D01*
X60941309Y9685764D01*
X61211808Y9767818D01*
X61461101Y9901068D01*
X61679608Y10080392D01*
X61858932Y10298899D01*
X61930000Y10431858D01*
X62001068Y10298899D01*
X62180393Y10080392D01*
X62398900Y9901068D01*
X62648193Y9767818D01*
X62918692Y9685764D01*
X63200000Y9658057D01*
X63481309Y9685764D01*
X63751808Y9767818D01*
X64001101Y9901068D01*
X64219608Y10080392D01*
X64398932Y10298899D01*
X64467265Y10426741D01*
X64617399Y10197161D01*
X64815105Y9995500D01*
X65048354Y9836285D01*
X65308182Y9725633D01*
X65390961Y9708096D01*
X65613000Y9830085D01*
X65613000Y11373000D01*
X65867000Y11373000D01*
X65867000Y9830085D01*
X66089039Y9708096D01*
X66171818Y9725633D01*
X66431646Y9836285D01*
X66664895Y9995500D01*
X66676461Y10007298D01*
X71186903Y10007298D01*
X71258486Y9763329D01*
X71513996Y9642429D01*
X71788184Y9573700D01*
X72070512Y9559783D01*
X72350130Y9601213D01*
X72616292Y9696397D01*
X72741514Y9763329D01*
X72813097Y10007298D01*
X72000000Y10820395D01*
X71186903Y10007298D01*
X66676461Y10007298D01*
X66862601Y10197161D01*
X67017166Y10433517D01*
X67122650Y10695486D01*
X67166791Y10929488D01*
X70559783Y10929488D01*
X70601213Y10649870D01*
X70696397Y10383708D01*
X70763329Y10258486D01*
X71007298Y10186903D01*
X71820395Y11000000D01*
X72179605Y11000000D01*
X72992702Y10186903D01*
X73061928Y10207215D01*
X73061928Y10200000D01*
X73074188Y10075518D01*
X73110498Y9955820D01*
X73169463Y9845506D01*
X73248815Y9748815D01*
X73345506Y9669463D01*
X73455820Y9610498D01*
X73575518Y9574188D01*
X73700000Y9561928D01*
X75300000Y9561928D01*
X75424482Y9574188D01*
X75544180Y9610498D01*
X75654494Y9669463D01*
X75751185Y9748815D01*
X75830537Y9845506D01*
X75889502Y9955820D01*
X75925812Y10075518D01*
X75938072Y10200000D01*
X75938072Y11800000D01*
X75925812Y11924482D01*
X75889502Y12044180D01*
X75830537Y12154494D01*
X75751185Y12251185D01*
X75654494Y12330537D01*
X75544180Y12389502D01*
X75424482Y12425812D01*
X75300000Y12438072D01*
X73700000Y12438072D01*
X73575518Y12425812D01*
X73455820Y12389502D01*
X73345506Y12330537D01*
X73248815Y12251185D01*
X73169463Y12154494D01*
X73110498Y12044180D01*
X73074188Y11924482D01*
X73061928Y11800000D01*
X73061928Y11792785D01*
X72992702Y11813097D01*
X72179605Y11000000D01*
X71820395Y11000000D01*
X71007298Y11813097D01*
X70763329Y11741514D01*
X70642429Y11486004D01*
X70573700Y11211816D01*
X70559783Y10929488D01*
X67166791Y10929488D01*
X67175000Y10973000D01*
X67175000Y11373000D01*
X65867000Y11373000D01*
X65613000Y11373000D01*
X65593000Y11373000D01*
X65593000Y11627000D01*
X65613000Y11627000D01*
X65613000Y13169915D01*
X65867000Y13169915D01*
X65867000Y11627000D01*
X67175000Y11627000D01*
X67175000Y11992702D01*
X71186903Y11992702D01*
X72000000Y11179605D01*
X72813097Y11992702D01*
X72741514Y12236671D01*
X72486004Y12357571D01*
X72211816Y12426300D01*
X71929488Y12440217D01*
X71649870Y12398787D01*
X71383708Y12303603D01*
X71258486Y12236671D01*
X71186903Y11992702D01*
X67175000Y11992702D01*
X67175000Y12027000D01*
X67122650Y12304514D01*
X67017166Y12566483D01*
X66862601Y12802839D01*
X66664895Y13004500D01*
X66431646Y13163715D01*
X66171818Y13274367D01*
X66089039Y13291904D01*
X65867000Y13169915D01*
X65613000Y13169915D01*
X65390961Y13291904D01*
X65308182Y13274367D01*
X65048354Y13163715D01*
X64815105Y13004500D01*
X64617399Y12802839D01*
X64467265Y12573259D01*
X64398932Y12701101D01*
X64219607Y12919608D01*
X64001100Y13098932D01*
X63751807Y13232182D01*
X63481308Y13314236D01*
X63200000Y13341943D01*
X62918691Y13314236D01*
X62648192Y13232182D01*
X62398899Y13098932D01*
X62180392Y12919607D01*
X62001068Y12701100D01*
X61930000Y12568142D01*
X61858932Y12701101D01*
X61679607Y12919608D01*
X61461100Y13098932D01*
X61346558Y13160156D01*
X62343704Y14157302D01*
X62372701Y14181099D01*
X62467674Y14296824D01*
X62538246Y14428853D01*
X62581703Y14572114D01*
X62592700Y14683767D01*
X62592700Y14683776D01*
X62596376Y14721099D01*
X62592700Y14758422D01*
X62592700Y15250000D01*
X81611928Y15250000D01*
X81611928Y11750000D01*
X81624188Y11625518D01*
X81660498Y11505820D01*
X81719463Y11395506D01*
X81798815Y11298815D01*
X81895506Y11219463D01*
X82005820Y11160498D01*
X82125518Y11124188D01*
X82250000Y11111928D01*
X85750000Y11111928D01*
X85874482Y11124188D01*
X85994180Y11160498D01*
X86104494Y11219463D01*
X86201185Y11298815D01*
X86280537Y11395506D01*
X86321494Y11472131D01*
X86311928Y11375000D01*
X86311928Y9625000D01*
X86341001Y9329814D01*
X86427104Y9045972D01*
X86566927Y8784382D01*
X86755097Y8555097D01*
X86984382Y8366927D01*
X87245972Y8227104D01*
X87529814Y8141001D01*
X87825000Y8111928D01*
X89575000Y8111928D01*
X89870186Y8141001D01*
X90154028Y8227104D01*
X90415618Y8366927D01*
X90644903Y8555097D01*
X90833073Y8784382D01*
X90972896Y9045972D01*
X91058999Y9329814D01*
X91088072Y9625000D01*
X91088072Y11375000D01*
X91058999Y11670186D01*
X90972896Y11954028D01*
X90833073Y12215618D01*
X90644903Y12444903D01*
X90415618Y12633073D01*
X90154028Y12772896D01*
X89870186Y12858999D01*
X89575000Y12888072D01*
X87825000Y12888072D01*
X87529814Y12858999D01*
X87245972Y12772896D01*
X86984382Y12633073D01*
X86755097Y12444903D01*
X86566927Y12215618D01*
X86427104Y11954028D01*
X86388072Y11825357D01*
X86388072Y15250000D01*
X86375812Y15374482D01*
X86339502Y15494180D01*
X86280537Y15604494D01*
X86201185Y15701185D01*
X86104494Y15780537D01*
X85994180Y15839502D01*
X85874482Y15875812D01*
X85750000Y15888072D01*
X82250000Y15888072D01*
X82125518Y15875812D01*
X82005820Y15839502D01*
X81895506Y15780537D01*
X81798815Y15701185D01*
X81719463Y15604494D01*
X81660498Y15494180D01*
X81624188Y15374482D01*
X81611928Y15250000D01*
X62592700Y15250000D01*
X62592700Y17417480D01*
X62648193Y17387818D01*
X62918692Y17305764D01*
X63200000Y17278057D01*
X63481309Y17305764D01*
X63751808Y17387818D01*
X64001101Y17521068D01*
X64219608Y17700392D01*
X64398932Y17918899D01*
X64470000Y18051858D01*
X64541068Y17918899D01*
X64720393Y17700392D01*
X64938900Y17521068D01*
X65188193Y17387818D01*
X65458692Y17305764D01*
X65740000Y17278057D01*
X66021309Y17305764D01*
X66291808Y17387818D01*
X66541101Y17521068D01*
X66759608Y17700392D01*
X66876004Y17842221D01*
X66870100Y17812539D01*
X66870100Y17608661D01*
X66909874Y17408702D01*
X66987895Y17220344D01*
X67101163Y17050826D01*
X67245326Y16906663D01*
X67414844Y16793395D01*
X67603202Y16715374D01*
X67803161Y16675600D01*
X68007039Y16675600D01*
X68206998Y16715374D01*
X68395356Y16793395D01*
X68564874Y16906663D01*
X68709037Y17050826D01*
X68822305Y17220344D01*
X68900326Y17408702D01*
X68940100Y17608661D01*
X68940100Y17812539D01*
X68901361Y18007298D01*
X71186903Y18007298D01*
X71258486Y17763329D01*
X71513996Y17642429D01*
X71788184Y17573700D01*
X72070512Y17559783D01*
X72350130Y17601213D01*
X72616292Y17696397D01*
X72741514Y17763329D01*
X72813097Y18007298D01*
X72000000Y18820395D01*
X71186903Y18007298D01*
X68901361Y18007298D01*
X68900326Y18012498D01*
X68831000Y18179865D01*
X68831000Y18929488D01*
X70559783Y18929488D01*
X70601213Y18649870D01*
X70696397Y18383708D01*
X70763329Y18258486D01*
X71007298Y18186903D01*
X71820395Y19000000D01*
X71007298Y19813097D01*
X70763329Y19741514D01*
X70642429Y19486004D01*
X70573700Y19211816D01*
X70559783Y18929488D01*
X68831000Y18929488D01*
X68831000Y19992702D01*
X71186903Y19992702D01*
X72000000Y19179605D01*
X72813097Y19992702D01*
X72741514Y20236671D01*
X72486004Y20357571D01*
X72211816Y20426300D01*
X71929488Y20440217D01*
X71649870Y20398787D01*
X71383708Y20303603D01*
X71258486Y20236671D01*
X71186903Y19992702D01*
X68831000Y19992702D01*
X68831000Y23662711D01*
X69214250Y23665000D01*
X69373000Y23823750D01*
X69373000Y25373000D01*
X69353000Y25373000D01*
X69353000Y25627000D01*
X69373000Y25627000D01*
X69373000Y27176250D01*
X69214250Y27335000D01*
X68831000Y27337289D01*
X68831000Y39070459D01*
X68948193Y39007818D01*
X69218692Y38925764D01*
X69500000Y38898057D01*
X69781309Y38925764D01*
X70051808Y39007818D01*
X70301101Y39141068D01*
X70519608Y39320392D01*
X70698932Y39538899D01*
X70767265Y39666741D01*
X70917399Y39437161D01*
X71115105Y39235500D01*
X71348354Y39076285D01*
X71608182Y38965633D01*
X71690961Y38948096D01*
X71913000Y39070085D01*
X71913000Y40613000D01*
X71893000Y40613000D01*
X71893000Y40867000D01*
X71913000Y40867000D01*
X71913000Y42409915D01*
X71690961Y42531904D01*
X71608182Y42514367D01*
X71348354Y42403715D01*
X71115105Y42244500D01*
X70917399Y42042839D01*
X70767265Y41813259D01*
X70698932Y41941101D01*
X70519607Y42159608D01*
X70301100Y42338932D01*
X70051807Y42472182D01*
X69781308Y42554236D01*
X69500000Y42581943D01*
X69218691Y42554236D01*
X68948192Y42472182D01*
X68831000Y42409542D01*
X68831000Y42693975D01*
X68834676Y42731300D01*
X68831000Y42768625D01*
X68831000Y42768633D01*
X68820003Y42880286D01*
X68776546Y43023547D01*
X68705974Y43155576D01*
X68611001Y43271301D01*
X68582003Y43295099D01*
X67925900Y43951201D01*
X67925900Y44524568D01*
X68081426Y44460147D01*
X68358665Y44405000D01*
X68641335Y44405000D01*
X68918574Y44460147D01*
X69179727Y44568320D01*
X69414759Y44725363D01*
X69614637Y44925241D01*
X69771680Y45160273D01*
X69879853Y45421426D01*
X69935000Y45698665D01*
X69935000Y45981335D01*
X69879853Y46258574D01*
X69771680Y46519727D01*
X69614637Y46754759D01*
X69414759Y46954637D01*
X69182241Y47110000D01*
X69414759Y47265363D01*
X69614637Y47465241D01*
X69771680Y47700273D01*
X69879853Y47961426D01*
X69935000Y48238665D01*
X69935000Y48521335D01*
X69879853Y48798574D01*
X69771680Y49059727D01*
X69614637Y49294759D01*
X69414759Y49494637D01*
X69182241Y49650000D01*
X69414759Y49805363D01*
X69614637Y50005241D01*
X69771680Y50240273D01*
X69879853Y50501426D01*
X69935000Y50778665D01*
X69935000Y51061335D01*
X69879853Y51338574D01*
X69771680Y51599727D01*
X69614637Y51834759D01*
X69414759Y52034637D01*
X69182241Y52190000D01*
X69414759Y52345363D01*
X69509947Y52440551D01*
X71776551Y50173947D01*
X71748815Y50151185D01*
X71669463Y50054494D01*
X71610498Y49944180D01*
X71574188Y49824482D01*
X71561928Y49700000D01*
X71561928Y47300000D01*
X71574188Y47175518D01*
X71610498Y47055820D01*
X71669463Y46945506D01*
X71748815Y46848815D01*
X71845506Y46769463D01*
X71955820Y46710498D01*
X72075518Y46674188D01*
X72200000Y46661928D01*
X73365401Y46661928D01*
X73365401Y44896403D01*
X72654402Y44185404D01*
X72625399Y44161601D01*
X72571071Y44095401D01*
X72530426Y44045876D01*
X72471147Y43934974D01*
X72459854Y43913846D01*
X72416397Y43770585D01*
X72405400Y43658932D01*
X72405400Y43658922D01*
X72401724Y43621600D01*
X72405400Y43584278D01*
X72405400Y42528438D01*
X72389039Y42531904D01*
X72167000Y42409915D01*
X72167000Y40867000D01*
X72187000Y40867000D01*
X72187000Y40613000D01*
X72167000Y40613000D01*
X72167000Y39070085D01*
X72389039Y38948096D01*
X72405400Y38951562D01*
X72405401Y30847403D01*
X70397903Y28839904D01*
X70368899Y28816101D01*
X70327410Y28765546D01*
X70273926Y28700376D01*
X70231667Y28621315D01*
X70203354Y28568346D01*
X70159897Y28425085D01*
X70148900Y28313432D01*
X70148900Y28313422D01*
X70145224Y28276100D01*
X70148900Y28238777D01*
X70148900Y27337169D01*
X69785750Y27335000D01*
X69627000Y27176250D01*
X69627000Y25627000D01*
X69647000Y25627000D01*
X69647000Y25373000D01*
X69627000Y25373000D01*
X69627000Y23823750D01*
X69785750Y23665000D01*
X70150501Y23662821D01*
X70159898Y23567414D01*
X70166863Y23544454D01*
X70203354Y23424154D01*
X70273926Y23292124D01*
X70328441Y23225698D01*
X70368900Y23176399D01*
X70397898Y23152601D01*
X73276551Y20273947D01*
X73248815Y20251185D01*
X73169463Y20154494D01*
X73110498Y20044180D01*
X73074188Y19924482D01*
X73061928Y19800000D01*
X73061928Y19792785D01*
X72992702Y19813097D01*
X72179605Y19000000D01*
X72992702Y18186903D01*
X73061928Y18207215D01*
X73061928Y18200000D01*
X73074188Y18075518D01*
X73110498Y17955820D01*
X73169463Y17845506D01*
X73248815Y17748815D01*
X73345506Y17669463D01*
X73455820Y17610498D01*
X73575518Y17574188D01*
X73700000Y17561928D01*
X75300000Y17561928D01*
X75424482Y17574188D01*
X75544180Y17610498D01*
X75654494Y17669463D01*
X75751185Y17748815D01*
X75830537Y17845506D01*
X75889502Y17955820D01*
X75925812Y18075518D01*
X75938072Y18200000D01*
X75938072Y18802700D01*
X76740078Y18802700D01*
X76777400Y18799024D01*
X76814722Y18802700D01*
X76814733Y18802700D01*
X76926386Y18813697D01*
X77069647Y18857154D01*
X77201676Y18927726D01*
X77317401Y19022699D01*
X77317581Y19022918D01*
X77860907Y18479592D01*
X77764201Y18382886D01*
X77612629Y18156043D01*
X77508225Y17903989D01*
X77455000Y17636411D01*
X77455000Y17363589D01*
X77508225Y17096011D01*
X77612629Y16843957D01*
X77764201Y16617114D01*
X77957114Y16424201D01*
X78183957Y16272629D01*
X78436011Y16168225D01*
X78703589Y16115000D01*
X78976411Y16115000D01*
X79243989Y16168225D01*
X79496043Y16272629D01*
X79722886Y16424201D01*
X79915799Y16617114D01*
X80067371Y16843957D01*
X80171775Y17096011D01*
X80225000Y17363589D01*
X80225000Y17636411D01*
X80171775Y17903989D01*
X80067371Y18156043D01*
X79915799Y18382886D01*
X79722886Y18575799D01*
X79595226Y18661099D01*
X79589003Y18724286D01*
X79545546Y18867547D01*
X79474974Y18999576D01*
X79380001Y19115301D01*
X79351003Y19139099D01*
X79337332Y19152770D01*
X79519727Y19228320D01*
X79754759Y19385363D01*
X79954637Y19585241D01*
X80111680Y19820273D01*
X80219853Y20081426D01*
X80275000Y20358665D01*
X80275000Y20641335D01*
X80219853Y20918574D01*
X80111680Y21179727D01*
X79954637Y21414759D01*
X79754759Y21614637D01*
X79519727Y21771680D01*
X79258574Y21879853D01*
X78981335Y21935000D01*
X78698665Y21935000D01*
X78421426Y21879853D01*
X78160273Y21771680D01*
X77925241Y21614637D01*
X77725363Y21414759D01*
X77618053Y21254158D01*
X77565714Y21249003D01*
X77422453Y21205546D01*
X77290424Y21134974D01*
X77174699Y21040001D01*
X77150896Y21010997D01*
X76804003Y20664104D01*
X76774999Y20640301D01*
X76751200Y20611302D01*
X76462599Y20322700D01*
X75664043Y20322700D01*
X75654494Y20330537D01*
X75544180Y20389502D01*
X75424482Y20425812D01*
X75300000Y20438072D01*
X75194575Y20438072D01*
X75134974Y20549576D01*
X75040001Y20665301D01*
X75011003Y20689099D01*
X72041861Y23658240D01*
X72321309Y23685764D01*
X72591808Y23767818D01*
X72841101Y23901068D01*
X73059608Y24080392D01*
X73238932Y24298899D01*
X73310000Y24431858D01*
X73381068Y24298899D01*
X73560393Y24080392D01*
X73778900Y23901068D01*
X74028193Y23767818D01*
X74298692Y23685764D01*
X74580000Y23658057D01*
X74861309Y23685764D01*
X75131808Y23767818D01*
X75381101Y23901068D01*
X75599608Y24080392D01*
X75778932Y24298899D01*
X75850000Y24431858D01*
X75921068Y24298899D01*
X76100393Y24080392D01*
X76318900Y23901068D01*
X76568193Y23767818D01*
X76838692Y23685764D01*
X77120000Y23658057D01*
X77401309Y23685764D01*
X77671808Y23767818D01*
X77921101Y23901068D01*
X78139608Y24080392D01*
X78318932Y24298899D01*
X78390000Y24431858D01*
X78461068Y24298899D01*
X78640393Y24080392D01*
X78858900Y23901068D01*
X78906058Y23875862D01*
X78910997Y23825714D01*
X78954454Y23682453D01*
X79025026Y23550424D01*
X79119999Y23434699D01*
X79235724Y23339726D01*
X79367753Y23269154D01*
X79511014Y23225697D01*
X79622667Y23214700D01*
X79660000Y23211023D01*
X79697333Y23214700D01*
X90267678Y23214700D01*
X90305000Y23211024D01*
X90342322Y23214700D01*
X90342333Y23214700D01*
X90397881Y23220171D01*
X89112711Y21935000D01*
X88858665Y21935000D01*
X88581426Y21879853D01*
X88320273Y21771680D01*
X88085241Y21614637D01*
X87885363Y21414759D01*
X87728320Y21179727D01*
X87620147Y20918574D01*
X87565000Y20641335D01*
X87565000Y20358665D01*
X87620147Y20081426D01*
X87728320Y19820273D01*
X87885363Y19585241D01*
X88065001Y19405603D01*
X88065000Y18857454D01*
X88005820Y18839502D01*
X87895506Y18780537D01*
X87798815Y18701185D01*
X87719463Y18604494D01*
X87660498Y18494180D01*
X87624188Y18374482D01*
X87611928Y18250000D01*
X87611928Y16750000D01*
X87624188Y16625518D01*
X87660498Y16505820D01*
X87719463Y16395506D01*
X87798815Y16298815D01*
X87895506Y16219463D01*
X88005820Y16160498D01*
X88125518Y16124188D01*
X88250000Y16111928D01*
X89750000Y16111928D01*
X89874482Y16124188D01*
X89994180Y16160498D01*
X90104494Y16219463D01*
X90201185Y16298815D01*
X90280537Y16395506D01*
X90339502Y16505820D01*
X90375812Y16625518D01*
X90388072Y16750000D01*
X90388072Y18250000D01*
X90375812Y18374482D01*
X90339502Y18494180D01*
X90280537Y18604494D01*
X90201185Y18701185D01*
X90104494Y18780537D01*
X89994180Y18839502D01*
X89935000Y18857454D01*
X89935000Y19405604D01*
X90114637Y19585241D01*
X90271680Y19820273D01*
X90379853Y20081426D01*
X90435000Y20358665D01*
X90435000Y20612711D01*
X90483322Y20661033D01*
X91365000Y20661033D01*
X91365000Y20338967D01*
X91427832Y20023088D01*
X91551082Y19725537D01*
X91730013Y19457748D01*
X91957748Y19230013D01*
X92225537Y19051082D01*
X92240000Y19045091D01*
X92240001Y15454909D01*
X92225537Y15448918D01*
X91957748Y15269987D01*
X91730013Y15042252D01*
X91551082Y14774463D01*
X91427832Y14476912D01*
X91365000Y14161033D01*
X91365000Y13838967D01*
X91427832Y13523088D01*
X91551082Y13225537D01*
X91730013Y12957748D01*
X91957748Y12730013D01*
X92225537Y12551082D01*
X92523088Y12427832D01*
X92838967Y12365000D01*
X93161033Y12365000D01*
X93476912Y12427832D01*
X93774463Y12551082D01*
X94042252Y12730013D01*
X94176826Y12864587D01*
X96544192Y12864587D01*
X96639956Y12600186D01*
X96929571Y12459296D01*
X97241108Y12377616D01*
X97562595Y12358282D01*
X97881675Y12402039D01*
X98186088Y12507205D01*
X98360044Y12600186D01*
X98455808Y12864587D01*
X97500000Y13820395D01*
X96544192Y12864587D01*
X94176826Y12864587D01*
X94269987Y12957748D01*
X94448918Y13225537D01*
X94572168Y13523088D01*
X94635000Y13838967D01*
X94635000Y13937405D01*
X95858282Y13937405D01*
X95902039Y13618325D01*
X96007205Y13313912D01*
X96100186Y13139956D01*
X96364587Y13044192D01*
X97320395Y14000000D01*
X97679605Y14000000D01*
X98635413Y13044192D01*
X98899814Y13139956D01*
X99040704Y13429571D01*
X99122384Y13741108D01*
X99141718Y14062595D01*
X99097961Y14381675D01*
X98992795Y14686088D01*
X98899814Y14860044D01*
X98635413Y14955808D01*
X97679605Y14000000D01*
X97320395Y14000000D01*
X96364587Y14955808D01*
X96100186Y14860044D01*
X95959296Y14570429D01*
X95877616Y14258892D01*
X95858282Y13937405D01*
X94635000Y13937405D01*
X94635000Y14161033D01*
X94572168Y14476912D01*
X94448918Y14774463D01*
X94269987Y15042252D01*
X94176826Y15135413D01*
X96544192Y15135413D01*
X97500000Y14179605D01*
X98455808Y15135413D01*
X98360044Y15399814D01*
X98070429Y15540704D01*
X97758892Y15622384D01*
X97437405Y15641718D01*
X97118325Y15597961D01*
X96813912Y15492795D01*
X96639956Y15399814D01*
X96544192Y15135413D01*
X94176826Y15135413D01*
X94042252Y15269987D01*
X93774463Y15448918D01*
X93760000Y15454909D01*
X93760000Y19045091D01*
X93774463Y19051082D01*
X94042252Y19230013D01*
X94176826Y19364587D01*
X96544192Y19364587D01*
X96639956Y19100186D01*
X96929571Y18959296D01*
X97241108Y18877616D01*
X97562595Y18858282D01*
X97881675Y18902039D01*
X98186088Y19007205D01*
X98360044Y19100186D01*
X98455808Y19364587D01*
X97500000Y20320395D01*
X96544192Y19364587D01*
X94176826Y19364587D01*
X94269987Y19457748D01*
X94448918Y19725537D01*
X94572168Y20023088D01*
X94635000Y20338967D01*
X94635000Y20437405D01*
X95858282Y20437405D01*
X95902039Y20118325D01*
X96007205Y19813912D01*
X96100186Y19639956D01*
X96364587Y19544192D01*
X97320395Y20500000D01*
X97679605Y20500000D01*
X98635413Y19544192D01*
X98899814Y19639956D01*
X99040704Y19929571D01*
X99122384Y20241108D01*
X99141718Y20562595D01*
X99097961Y20881675D01*
X98992795Y21186088D01*
X98899814Y21360044D01*
X98635413Y21455808D01*
X97679605Y20500000D01*
X97320395Y20500000D01*
X96364587Y21455808D01*
X96100186Y21360044D01*
X95959296Y21070429D01*
X95877616Y20758892D01*
X95858282Y20437405D01*
X94635000Y20437405D01*
X94635000Y20661033D01*
X94572168Y20976912D01*
X94448918Y21274463D01*
X94269987Y21542252D01*
X94176826Y21635413D01*
X96544192Y21635413D01*
X97500000Y20679605D01*
X98455808Y21635413D01*
X98360044Y21899814D01*
X98070429Y22040704D01*
X97758892Y22122384D01*
X97437405Y22141718D01*
X97118325Y22097961D01*
X96813912Y21992795D01*
X96639956Y21899814D01*
X96544192Y21635413D01*
X94176826Y21635413D01*
X94042252Y21769987D01*
X93774463Y21948918D01*
X93476912Y22072168D01*
X93161033Y22135000D01*
X92838967Y22135000D01*
X92523088Y22072168D01*
X92225537Y21948918D01*
X91957748Y21769987D01*
X91730013Y21542252D01*
X91551082Y21274463D01*
X91427832Y20976912D01*
X91365000Y20661033D01*
X90483322Y20661033D01*
X92686990Y22864700D01*
X97394068Y22864700D01*
X97440000Y22860176D01*
X97485932Y22864700D01*
X97623292Y22878229D01*
X97799540Y22931693D01*
X97961972Y23018514D01*
X98104344Y23135356D01*
X98221186Y23277728D01*
X98308007Y23440160D01*
X98361471Y23616408D01*
X98379524Y23799700D01*
X98375000Y23845632D01*
X98375000Y24010956D01*
X98459608Y24080392D01*
X98638932Y24298899D01*
X98772182Y24548192D01*
X98854236Y24818691D01*
X98875000Y25029509D01*
X98875000Y25970492D01*
X98854236Y26181309D01*
X98772182Y26451808D01*
X98638932Y26701101D01*
X98459607Y26919608D01*
X98375000Y26989043D01*
X98375000Y27154369D01*
X98379524Y27200301D01*
X98361471Y27383593D01*
X98338953Y27457824D01*
X98308007Y27559840D01*
X98221186Y27722272D01*
X98104344Y27864644D01*
X98068664Y27893926D01*
X95213978Y30748611D01*
X95241514Y30763329D01*
X95313097Y31007298D01*
X94500000Y31820395D01*
X94485858Y31806252D01*
X94306253Y31985857D01*
X94320395Y32000000D01*
X94679605Y32000000D01*
X95492702Y31186903D01*
X95736671Y31258486D01*
X95857571Y31513996D01*
X95926300Y31788184D01*
X95940217Y32070512D01*
X95898787Y32350130D01*
X95803603Y32616292D01*
X95736671Y32741514D01*
X95492702Y32813097D01*
X94679605Y32000000D01*
X94320395Y32000000D01*
X94306253Y32014142D01*
X94485858Y32193747D01*
X94500000Y32179605D01*
X95313097Y32992702D01*
X95241514Y33236671D01*
X95212659Y33250324D01*
X95414759Y33385363D01*
X95614637Y33585241D01*
X95771680Y33820273D01*
X95879853Y34081426D01*
X95935000Y34358665D01*
X95935000Y34641335D01*
X95879853Y34918574D01*
X95771680Y35179727D01*
X95614637Y35414759D01*
X95414759Y35614637D01*
X95179727Y35771680D01*
X94918574Y35879853D01*
X94641335Y35935000D01*
X94358665Y35935000D01*
X94081426Y35879853D01*
X93820273Y35771680D01*
X93585241Y35614637D01*
X93385363Y35414759D01*
X93228320Y35179727D01*
X93120147Y34918574D01*
X93065000Y34641335D01*
X93065000Y34387289D01*
X92558841Y33881130D01*
X92523156Y33851844D01*
X92406314Y33709471D01*
X92319493Y33547039D01*
X92273760Y33396276D01*
X92266029Y33370791D01*
X92247976Y33187500D01*
X92252500Y33141568D01*
X92252501Y31498742D01*
X92247976Y31452800D01*
X92266029Y31269509D01*
X92314112Y31111003D01*
X92319494Y31093260D01*
X92406315Y30930828D01*
X92523157Y30788456D01*
X92558836Y30759175D01*
X96410480Y26907530D01*
X96241068Y26701100D01*
X96170000Y26568142D01*
X96098932Y26701101D01*
X95919607Y26919608D01*
X95701100Y27098932D01*
X95451807Y27232182D01*
X95181308Y27314236D01*
X94900000Y27341943D01*
X94618691Y27314236D01*
X94348192Y27232182D01*
X94098899Y27098932D01*
X93880392Y26919607D01*
X93701068Y26701100D01*
X93630000Y26568142D01*
X93558932Y26701101D01*
X93379607Y26919608D01*
X93161100Y27098932D01*
X92911807Y27232182D01*
X92641308Y27314236D01*
X92360000Y27341943D01*
X92078691Y27314236D01*
X91850000Y27244864D01*
X91850000Y34599099D01*
X96503275Y39252373D01*
X96638900Y39141068D01*
X96888193Y39007818D01*
X97158692Y38925764D01*
X97440000Y38898057D01*
X97721309Y38925764D01*
X97991808Y39007818D01*
X98241101Y39141068D01*
X98459608Y39320392D01*
X98638932Y39538899D01*
X98772182Y39788192D01*
X98854236Y40058691D01*
X98875000Y40269509D01*
X98875000Y41210492D01*
X98854236Y41421309D01*
X98772182Y41691808D01*
X98638932Y41941101D01*
X98459607Y42159608D01*
X98241100Y42338932D01*
X97991807Y42472182D01*
X97721308Y42554236D01*
X97440000Y42581943D01*
X97158691Y42554236D01*
X96888192Y42472182D01*
X96785300Y42417185D01*
X96785300Y52589378D01*
X96788976Y52626701D01*
X96785300Y52664024D01*
X96785300Y52664033D01*
X96774303Y52775686D01*
X96730846Y52918947D01*
X96660274Y53050976D01*
X96619284Y53100923D01*
X96589099Y53137704D01*
X96589095Y53137708D01*
X96565301Y53166701D01*
X96536309Y53190494D01*
X93677491Y56049310D01*
X93815990Y56256589D01*
X93927932Y56526842D01*
X93985000Y56813740D01*
X93985000Y57106260D01*
X93927932Y57393158D01*
X93815990Y57663411D01*
X93653475Y57906632D01*
X93521620Y58038487D01*
X93594180Y58060498D01*
X93704494Y58119463D01*
X93801185Y58198815D01*
X93880537Y58295506D01*
X93939502Y58405820D01*
X93975812Y58525518D01*
X93988072Y58650000D01*
X93985000Y59214250D01*
X93826250Y59373000D01*
X92627000Y59373000D01*
X92627000Y59353000D01*
X92373000Y59353000D01*
X92373000Y59373000D01*
X91173750Y59373000D01*
X91015000Y59214250D01*
X91011928Y58650000D01*
X91024188Y58525518D01*
X91060498Y58405820D01*
X91119463Y58295506D01*
X91198815Y58198815D01*
X91295506Y58119463D01*
X91405820Y58060498D01*
X91478380Y58038487D01*
X91346525Y57906632D01*
X91184010Y57663411D01*
X91072068Y57393158D01*
X91015000Y57106260D01*
X91015000Y56813740D01*
X91072068Y56526842D01*
X91184010Y56256589D01*
X91346525Y56013368D01*
X91553368Y55806525D01*
X91727760Y55690000D01*
X91553368Y55573475D01*
X91346525Y55366632D01*
X91184010Y55123411D01*
X91072068Y54853158D01*
X91015000Y54566260D01*
X91015000Y54273740D01*
X91072068Y53986842D01*
X91184010Y53716589D01*
X91346525Y53473368D01*
X91553368Y53266525D01*
X91727760Y53150000D01*
X91553368Y53033475D01*
X91346525Y52826632D01*
X91184010Y52583411D01*
X91072068Y52313158D01*
X91015000Y52026260D01*
X91015000Y51733740D01*
X91072068Y51446842D01*
X91184010Y51176589D01*
X91346525Y50933368D01*
X91553368Y50726525D01*
X91727760Y50610000D01*
X91553368Y50493475D01*
X91346525Y50286632D01*
X91184010Y50043411D01*
X91072068Y49773158D01*
X91015000Y49486260D01*
X91015000Y49193740D01*
X91072068Y48906842D01*
X91184010Y48636589D01*
X91346525Y48393368D01*
X91553368Y48186525D01*
X91727760Y48070000D01*
X91553368Y47953475D01*
X91346525Y47746632D01*
X91184010Y47503411D01*
X91072068Y47233158D01*
X91015000Y46946260D01*
X91015000Y46653740D01*
X91072068Y46366842D01*
X91184010Y46096589D01*
X91346525Y45853368D01*
X91553368Y45646525D01*
X91796589Y45484010D01*
X92066842Y45372068D01*
X92353740Y45315000D01*
X92646260Y45315000D01*
X92933158Y45372068D01*
X93203411Y45484010D01*
X93446632Y45646525D01*
X93653475Y45853368D01*
X93815990Y46096589D01*
X93927932Y46366842D01*
X93985000Y46653740D01*
X93985000Y46946260D01*
X93927932Y47233158D01*
X93815990Y47503411D01*
X93653475Y47746632D01*
X93446632Y47953475D01*
X93272240Y48070000D01*
X93446632Y48186525D01*
X93653475Y48393368D01*
X93815990Y48636589D01*
X93927932Y48906842D01*
X93985000Y49193740D01*
X93985000Y49486260D01*
X93927932Y49773158D01*
X93815990Y50043411D01*
X93653475Y50286632D01*
X93446632Y50493475D01*
X93272240Y50610000D01*
X93446632Y50726525D01*
X93653475Y50933368D01*
X93815990Y51176589D01*
X93927932Y51446842D01*
X93985000Y51733740D01*
X93985000Y52026260D01*
X93927932Y52313158D01*
X93815990Y52583411D01*
X93653475Y52826632D01*
X93446632Y53033475D01*
X93272240Y53150000D01*
X93446632Y53266525D01*
X93653475Y53473368D01*
X93815990Y53716589D01*
X93829059Y53748139D01*
X95265300Y52311897D01*
X95265301Y42931797D01*
X95192247Y42970846D01*
X95048986Y43014303D01*
X94900000Y43028977D01*
X94862667Y43025300D01*
X92749202Y43025300D01*
X88935551Y46838950D01*
X89164895Y46995500D01*
X89362601Y47197161D01*
X89517166Y47433517D01*
X89622650Y47695486D01*
X89675000Y47973000D01*
X89675000Y48373000D01*
X88367000Y48373000D01*
X88367000Y48353000D01*
X88113000Y48353000D01*
X88113000Y48373000D01*
X88093000Y48373000D01*
X88093000Y48627000D01*
X88113000Y48627000D01*
X88113000Y50169915D01*
X88367000Y50169915D01*
X88367000Y48627000D01*
X89675000Y48627000D01*
X89675000Y49027000D01*
X89622650Y49304514D01*
X89517166Y49566483D01*
X89362601Y49802839D01*
X89164895Y50004500D01*
X88931646Y50163715D01*
X88671818Y50274367D01*
X88589039Y50291904D01*
X88367000Y50169915D01*
X88113000Y50169915D01*
X87890961Y50291904D01*
X87808182Y50274367D01*
X87585400Y50179492D01*
X87585400Y53431977D01*
X87589076Y53469300D01*
X87585400Y53506623D01*
X87585400Y53506633D01*
X87574403Y53618286D01*
X87530946Y53761547D01*
X87497470Y53824176D01*
X87460374Y53893577D01*
X87389199Y53980303D01*
X87365401Y54009301D01*
X87336404Y54033098D01*
X86691872Y54677630D01*
X86719608Y54700392D01*
X86898932Y54918899D01*
X86970000Y55051858D01*
X87041068Y54918899D01*
X87220393Y54700392D01*
X87438900Y54521068D01*
X87688193Y54387818D01*
X87958692Y54305764D01*
X88240000Y54278057D01*
X88521309Y54305764D01*
X88791808Y54387818D01*
X89041101Y54521068D01*
X89259608Y54700392D01*
X89438932Y54918899D01*
X89572182Y55168192D01*
X89654236Y55438691D01*
X89675000Y55649509D01*
X89675000Y56590492D01*
X89654236Y56801309D01*
X89572182Y57071808D01*
X89438932Y57321101D01*
X89259607Y57539608D01*
X89041100Y57718932D01*
X88791807Y57852182D01*
X88521308Y57934236D01*
X88240000Y57961943D01*
X87958691Y57934236D01*
X87688192Y57852182D01*
X87438899Y57718932D01*
X87220392Y57539607D01*
X87041068Y57321100D01*
X86970000Y57188142D01*
X86898932Y57321101D01*
X86719607Y57539608D01*
X86501100Y57718932D01*
X86453942Y57744138D01*
X86449003Y57794286D01*
X86405546Y57937547D01*
X86334974Y58069576D01*
X86311155Y58098600D01*
X86263799Y58156304D01*
X86263795Y58156308D01*
X86240001Y58185301D01*
X86211008Y58209095D01*
X84070103Y60350000D01*
X91011928Y60350000D01*
X91015000Y59785750D01*
X91173750Y59627000D01*
X92373000Y59627000D01*
X92373000Y60826250D01*
X92627000Y60826250D01*
X92627000Y59627000D01*
X93826250Y59627000D01*
X93985000Y59785750D01*
X93988072Y60350000D01*
X93975812Y60474482D01*
X93939502Y60594180D01*
X93880537Y60704494D01*
X93801185Y60801185D01*
X93704494Y60880537D01*
X93594180Y60939502D01*
X93474482Y60975812D01*
X93350000Y60988072D01*
X92785750Y60985000D01*
X92627000Y60826250D01*
X92373000Y60826250D01*
X92214250Y60985000D01*
X91650000Y60988072D01*
X91525518Y60975812D01*
X91405820Y60939502D01*
X91295506Y60880537D01*
X91198815Y60801185D01*
X91119463Y60704494D01*
X91060498Y60594180D01*
X91024188Y60474482D01*
X91011928Y60350000D01*
X84070103Y60350000D01*
X77146004Y67274097D01*
X77122201Y67303101D01*
X77006476Y67398074D01*
X76874447Y67468646D01*
X76731186Y67512103D01*
X76619533Y67523100D01*
X76619522Y67523100D01*
X76582200Y67526776D01*
X76544878Y67523100D01*
X73858133Y67523100D01*
X73820800Y67526777D01*
X73783467Y67523100D01*
X73671814Y67512103D01*
X73528553Y67468646D01*
X73396524Y67398074D01*
X73280799Y67303101D01*
X73257001Y67274102D01*
X72990000Y67007101D01*
X72770803Y67226298D01*
X72747001Y67255301D01*
X72631276Y67350274D01*
X72499247Y67420846D01*
X72355986Y67464303D01*
X72244333Y67475300D01*
X72244322Y67475300D01*
X72207000Y67478976D01*
X72169678Y67475300D01*
X61040522Y67475300D01*
X61003199Y67478976D01*
X60965876Y67475300D01*
X60965867Y67475300D01*
X60854214Y67464303D01*
X60745238Y67431246D01*
X60710953Y67420846D01*
X60578923Y67350274D01*
X60504869Y67289499D01*
X60463199Y67255301D01*
X60439401Y67226302D01*
X59930630Y66717531D01*
X59723411Y66855990D01*
X59453158Y66967932D01*
X59166260Y67025000D01*
X58873740Y67025000D01*
X58586842Y66967932D01*
X58316589Y66855990D01*
X58091447Y66705555D01*
X56209404Y68587597D01*
X56185601Y68616601D01*
X56069876Y68711574D01*
X55937847Y68782146D01*
X55794586Y68825603D01*
X55682933Y68836600D01*
X55682922Y68836600D01*
X55645600Y68840276D01*
X55608278Y68836600D01*
X24759222Y68836600D01*
X24721899Y68840276D01*
X24684576Y68836600D01*
X24684567Y68836600D01*
X24572914Y68825603D01*
X24429653Y68782146D01*
X24297624Y68711574D01*
X24181899Y68616601D01*
X24158101Y68587603D01*
X7942371Y52371872D01*
X7919608Y52399608D01*
X7701101Y52578932D01*
X7568142Y52650000D01*
X7701101Y52721068D01*
X7919608Y52900392D01*
X8098932Y53118899D01*
X8232182Y53368192D01*
X8314236Y53638691D01*
X8341943Y53920000D01*
X8314236Y54201309D01*
X8232182Y54471808D01*
X8098932Y54721101D01*
X7919608Y54939608D01*
X7701101Y55118932D01*
X7568142Y55190000D01*
X7701101Y55261068D01*
X7919608Y55440392D01*
X8098932Y55658899D01*
X8232182Y55908192D01*
X8314236Y56178691D01*
X8341943Y56460000D01*
X8314236Y56741309D01*
X8232182Y57011808D01*
X8098932Y57261101D01*
X7919608Y57479608D01*
X7806518Y57572419D01*
X7824482Y57574188D01*
X7944180Y57610498D01*
X8054494Y57669463D01*
X8151185Y57748815D01*
X8230537Y57845506D01*
X8289502Y57955820D01*
X8325812Y58075518D01*
X8338072Y58200000D01*
X8338072Y59800000D01*
X8325812Y59924482D01*
X8289502Y60044180D01*
X8230537Y60154494D01*
X8151185Y60251185D01*
X8054494Y60330537D01*
X7944180Y60389502D01*
X7824482Y60425812D01*
X7700000Y60438072D01*
X5300000Y60438072D01*
X5175518Y60425812D01*
X5055820Y60389502D01*
X4945506Y60330537D01*
X4848815Y60251185D01*
X4769463Y60154494D01*
X4710498Y60044180D01*
X4674188Y59924482D01*
X4661928Y59800000D01*
X4661928Y58660362D01*
X4438072Y58884217D01*
X4438072Y59800000D01*
X4425812Y59924482D01*
X4389502Y60044180D01*
X4330537Y60154494D01*
X4251185Y60251185D01*
X4154494Y60330537D01*
X4044180Y60389502D01*
X3924482Y60425812D01*
X3800000Y60438072D01*
X2200000Y60438072D01*
X2075518Y60425812D01*
X1955820Y60389502D01*
X1845506Y60330537D01*
X1748815Y60251185D01*
X1669463Y60154494D01*
X1610498Y60044180D01*
X1574188Y59924482D01*
X1561928Y59800000D01*
X1561928Y58200000D01*
X1574188Y58075518D01*
X1610498Y57955820D01*
X1669463Y57845506D01*
X1748815Y57748815D01*
X1845506Y57669463D01*
X1955820Y57610498D01*
X2075518Y57574188D01*
X2083961Y57573357D01*
X1885363Y57374759D01*
X1728320Y57139727D01*
X1620147Y56878574D01*
X1565000Y56601335D01*
X1565000Y56318665D01*
X1620147Y56041426D01*
X1728320Y55780273D01*
X1885363Y55545241D01*
X2085241Y55345363D01*
X2317759Y55190000D01*
X2085241Y55034637D01*
X1885363Y54834759D01*
X1728320Y54599727D01*
X1620147Y54338574D01*
X1565000Y54061335D01*
X1565000Y53778665D01*
X1620147Y53501426D01*
X1728320Y53240273D01*
X1885363Y53005241D01*
X2085241Y52805363D01*
X2317759Y52650000D01*
X2085241Y52494637D01*
X1885363Y52294759D01*
X1728320Y52059727D01*
X1620147Y51798574D01*
X1565000Y51521335D01*
X1565000Y51238665D01*
X1620147Y50961426D01*
X1728320Y50700273D01*
X1885363Y50465241D01*
X2085241Y50265363D01*
X2317759Y50110000D01*
X2085241Y49954637D01*
X1885363Y49754759D01*
X1728320Y49519727D01*
X1620147Y49258574D01*
X1565000Y48981335D01*
X1565000Y48698665D01*
X1620147Y48421426D01*
X1728320Y48160273D01*
X1885363Y47925241D01*
X2085241Y47725363D01*
X2317759Y47570000D01*
X2085241Y47414637D01*
X1885363Y47214759D01*
X1728320Y46979727D01*
X1620147Y46718574D01*
X1565000Y46441335D01*
X1565000Y46158665D01*
X1620147Y45881426D01*
X1728320Y45620273D01*
X1885363Y45385241D01*
X2085241Y45185363D01*
X2317759Y45030000D01*
X2085241Y44874637D01*
X1885363Y44674759D01*
X1728320Y44439727D01*
X1620147Y44178574D01*
X1565000Y43901335D01*
X1565000Y43618665D01*
X1620147Y43341426D01*
X1728320Y43080273D01*
X1885363Y42845241D01*
X2085241Y42645363D01*
X2317759Y42490000D01*
X2085241Y42334637D01*
X1885363Y42134759D01*
X1728320Y41899727D01*
X1620147Y41638574D01*
X1565000Y41361335D01*
X1565000Y41078665D01*
X1620147Y40801426D01*
X1728320Y40540273D01*
X1885363Y40305241D01*
X2085241Y40105363D01*
X2317759Y39950000D01*
X2085241Y39794637D01*
X1885363Y39594759D01*
X1728320Y39359727D01*
X1620147Y39098574D01*
X1565000Y38821335D01*
X1565000Y38538665D01*
X1620147Y38261426D01*
X1728320Y38000273D01*
X1885363Y37765241D01*
X2085241Y37565363D01*
X2320273Y37408320D01*
X2581426Y37300147D01*
X2858665Y37245000D01*
X3141335Y37245000D01*
X3418574Y37300147D01*
X3679727Y37408320D01*
X3764400Y37464897D01*
X3764401Y11227633D01*
X3760724Y11190300D01*
X3764401Y11152967D01*
X3775398Y11041314D01*
X3784281Y11012029D01*
X3818854Y10898054D01*
X3889426Y10766024D01*
X3928171Y10718814D01*
X3984400Y10650299D01*
X4013398Y10626501D01*
X4410896Y10229003D01*
X4434699Y10199999D01*
X4550424Y10105026D01*
X4682453Y10034454D01*
X4825714Y9990997D01*
X4875861Y9986058D01*
X4901068Y9938899D01*
X5080392Y9720392D01*
X5298899Y9541068D01*
X5548192Y9407818D01*
X5818691Y9325764D01*
X6029508Y9305000D01*
X6970492Y9305000D01*
X7181309Y9325764D01*
X7451808Y9407818D01*
X7701101Y9541068D01*
X7919608Y9720392D01*
X8098932Y9938899D01*
X8232182Y10188192D01*
X8314236Y10458691D01*
X8341943Y10740000D01*
X8314236Y11021309D01*
X8232182Y11291808D01*
X8098932Y11541101D01*
X7919608Y11759608D01*
X7701101Y11938932D01*
X7568142Y12010000D01*
X7701101Y12081068D01*
X7919608Y12260392D01*
X7942371Y12288128D01*
X19570498Y660000D01*
X660000Y660000D01*
X660000Y4720128D01*
X3265000Y4720128D01*
X3265000Y4279872D01*
X3350890Y3848075D01*
X3519369Y3441331D01*
X3763962Y3075271D01*
X4075271Y2763962D01*
X4441331Y2519369D01*
X4848075Y2350890D01*
X5279872Y2265000D01*
X5720128Y2265000D01*
X6151925Y2350890D01*
X6558669Y2519369D01*
X6924729Y2763962D01*
X7236038Y3075271D01*
X7480631Y3441331D01*
X7649110Y3848075D01*
X7735000Y4279872D01*
X7735000Y4720128D01*
X7649110Y5151925D01*
X7480631Y5558669D01*
X7236038Y5924729D01*
X6924729Y6236038D01*
X6558669Y6480631D01*
X6151925Y6649110D01*
X5720128Y6735000D01*
X5279872Y6735000D01*
X4848075Y6649110D01*
X4441331Y6480631D01*
X4075271Y6236038D01*
X3763962Y5924729D01*
X3519369Y5558669D01*
X3350890Y5151925D01*
X3265000Y4720128D01*
X660000Y4720128D01*
X660000Y70720128D01*
X2765000Y70720128D01*
X2765000Y70279872D01*
X2850890Y69848075D01*
X3019369Y69441331D01*
X3263962Y69075271D01*
X3575271Y68763962D01*
X3941331Y68519369D01*
X4348075Y68350890D01*
X4779872Y68265000D01*
X5220128Y68265000D01*
X5651925Y68350890D01*
X6058669Y68519369D01*
X6424729Y68763962D01*
X6736038Y69075271D01*
X6980631Y69441331D01*
X7149110Y69848075D01*
X7235000Y70279872D01*
X7235000Y70720128D01*
X92265000Y70720128D01*
X92265000Y70279872D01*
X92350890Y69848075D01*
X92519369Y69441331D01*
X92763962Y69075271D01*
X93075271Y68763962D01*
X93441331Y68519369D01*
X93848075Y68350890D01*
X94279872Y68265000D01*
X94720128Y68265000D01*
X95151925Y68350890D01*
X95558669Y68519369D01*
X95924729Y68763962D01*
X96236038Y69075271D01*
X96480631Y69441331D01*
X96649110Y69848075D01*
X96735000Y70279872D01*
X96735000Y70720128D01*
X96649110Y71151925D01*
X96480631Y71558669D01*
X96236038Y71924729D01*
X95924729Y72236038D01*
X95558669Y72480631D01*
X95151925Y72649110D01*
X94720128Y72735000D01*
X94279872Y72735000D01*
X93848075Y72649110D01*
X93441331Y72480631D01*
X93075271Y72236038D01*
X92763962Y71924729D01*
X92519369Y71558669D01*
X92350890Y71151925D01*
X92265000Y70720128D01*
X7235000Y70720128D01*
X7149110Y71151925D01*
X6980631Y71558669D01*
X6736038Y71924729D01*
X6424729Y72236038D01*
X6058669Y72480631D01*
X5651925Y72649110D01*
X5220128Y72735000D01*
X4779872Y72735000D01*
X4348075Y72649110D01*
X3941331Y72480631D01*
X3575271Y72236038D01*
X3263962Y71924729D01*
X3019369Y71558669D01*
X2850890Y71151925D01*
X2765000Y70720128D01*
X660000Y70720128D01*
X660000Y74340000D01*
X99340000Y74340000D01*
X99340001Y660000D01*
G37*
G04 #@! TD.AperFunction*
D29*
X18528900Y32527748D02*
X18500174Y32458398D01*
X18460400Y32258439D01*
X18460400Y32054561D01*
X18500174Y31854602D01*
X18578195Y31666244D01*
X18691463Y31496726D01*
X18835626Y31352563D01*
X19005144Y31239295D01*
X19193502Y31161274D01*
X19363001Y31127559D01*
X19363000Y28179123D01*
X19359324Y28141800D01*
X19363000Y28104478D01*
X19363000Y28104468D01*
X19373997Y27992815D01*
X19410280Y27873203D01*
X19417454Y27849554D01*
X19488026Y27717524D01*
X19521921Y27676223D01*
X19582999Y27601799D01*
X19612002Y27577997D01*
X20261793Y26928205D01*
X20141068Y26781101D01*
X20007818Y26531808D01*
X19925764Y26261309D01*
X19898057Y25980000D01*
X19925764Y25698691D01*
X20007818Y25428192D01*
X20141068Y25178899D01*
X20320392Y24960392D01*
X20538899Y24781068D01*
X20671858Y24710000D01*
X20538899Y24638932D01*
X20320392Y24459608D01*
X20141068Y24241101D01*
X20007818Y23991808D01*
X19925764Y23721309D01*
X19898057Y23440000D01*
X19925764Y23158691D01*
X20007818Y22888192D01*
X20141068Y22638899D01*
X20320392Y22420392D01*
X20538899Y22241068D01*
X20671858Y22170000D01*
X20538899Y22098932D01*
X20320392Y21919608D01*
X20141068Y21701101D01*
X20007818Y21451808D01*
X19925764Y21181309D01*
X19898057Y20900000D01*
X19925764Y20618691D01*
X20007818Y20348192D01*
X20141068Y20098899D01*
X20320392Y19880392D01*
X20538899Y19701068D01*
X20671858Y19630000D01*
X20538899Y19558932D01*
X20320392Y19379608D01*
X20141068Y19161101D01*
X20007818Y18911808D01*
X19925764Y18641309D01*
X19898057Y18360000D01*
X19925764Y18078691D01*
X20007818Y17808192D01*
X20141068Y17558899D01*
X20320392Y17340392D01*
X20538899Y17161068D01*
X20671858Y17090000D01*
X20538899Y17018932D01*
X20320392Y16839608D01*
X20141068Y16621101D01*
X20007818Y16371808D01*
X19925764Y16101309D01*
X19898057Y15820000D01*
X19925764Y15538691D01*
X20007818Y15268192D01*
X20141068Y15018899D01*
X20320392Y14800392D01*
X20538899Y14621068D01*
X20671858Y14550000D01*
X20538899Y14478932D01*
X20320392Y14299608D01*
X20141068Y14081101D01*
X20007818Y13831808D01*
X19925764Y13561309D01*
X19898057Y13280000D01*
X19925764Y12998691D01*
X20007818Y12728192D01*
X20141068Y12478899D01*
X20320392Y12260392D01*
X20538899Y12081068D01*
X20666741Y12012735D01*
X20437161Y11862601D01*
X20235500Y11664895D01*
X20076285Y11431646D01*
X19965633Y11171818D01*
X19948096Y11089039D01*
X20070085Y10867000D01*
X21613000Y10867000D01*
X21613000Y10887000D01*
X21867000Y10887000D01*
X21867000Y10867000D01*
X23409915Y10867000D01*
X23531904Y11089039D01*
X23514367Y11171818D01*
X23403715Y11431646D01*
X23244500Y11664895D01*
X23042839Y11862601D01*
X22813259Y12012735D01*
X22941101Y12081068D01*
X23159608Y12260392D01*
X23338932Y12478899D01*
X23364139Y12526058D01*
X23414286Y12530997D01*
X23557547Y12574454D01*
X23689576Y12645026D01*
X23805301Y12739999D01*
X23900274Y12855724D01*
X23970846Y12987753D01*
X24014303Y13131014D01*
X24028977Y13280000D01*
X24025300Y13317333D01*
X24025300Y15436353D01*
X24070630Y15391023D01*
X24186903Y15507296D01*
X24258486Y15263329D01*
X24513996Y15142429D01*
X24788184Y15073700D01*
X25070512Y15059783D01*
X25350130Y15101213D01*
X25616292Y15196397D01*
X25741514Y15263329D01*
X25813097Y15507298D01*
X46686903Y15507298D01*
X46758486Y15263329D01*
X47013996Y15142429D01*
X47288184Y15073700D01*
X47570512Y15059783D01*
X47850130Y15101213D01*
X48116292Y15196397D01*
X48241514Y15263329D01*
X48313097Y15507298D01*
X47500000Y16320395D01*
X46686903Y15507298D01*
X25813097Y15507298D01*
X25000000Y16320395D01*
X24985858Y16306252D01*
X24806253Y16485857D01*
X24820395Y16500000D01*
X24806253Y16514142D01*
X24985858Y16693747D01*
X25000000Y16679605D01*
X25014143Y16693747D01*
X25193748Y16514142D01*
X25179605Y16500000D01*
X25992702Y15686903D01*
X26236671Y15758486D01*
X26357571Y16013996D01*
X26426300Y16288184D01*
X26433265Y16429488D01*
X46059783Y16429488D01*
X46101213Y16149870D01*
X46196397Y15883708D01*
X46263329Y15758486D01*
X46507298Y15686903D01*
X47320395Y16500000D01*
X47679605Y16500000D01*
X48492702Y15686903D01*
X48736671Y15758486D01*
X48857571Y16013996D01*
X48926300Y16288184D01*
X48940217Y16570512D01*
X48898787Y16850130D01*
X48803603Y17116292D01*
X48736671Y17241514D01*
X48492702Y17313097D01*
X47679605Y16500000D01*
X47320395Y16500000D01*
X46507298Y17313097D01*
X46263329Y17241514D01*
X46142429Y16986004D01*
X46073700Y16711816D01*
X46059783Y16429488D01*
X26433265Y16429488D01*
X26440217Y16570512D01*
X26398787Y16850130D01*
X26303603Y17116292D01*
X26236671Y17241514D01*
X25992704Y17313097D01*
X26108977Y17429370D01*
X26102574Y17435773D01*
X26659404Y17992602D01*
X26688401Y18016399D01*
X26725070Y18061081D01*
X26801068Y17918899D01*
X26980393Y17700392D01*
X27198900Y17521068D01*
X27448193Y17387818D01*
X27718692Y17305764D01*
X28000000Y17278057D01*
X28281309Y17305764D01*
X28551808Y17387818D01*
X28801101Y17521068D01*
X29019608Y17700392D01*
X29198932Y17918899D01*
X29267265Y18046741D01*
X29417399Y17817161D01*
X29615105Y17615500D01*
X29848354Y17456285D01*
X30108182Y17345633D01*
X30190961Y17328096D01*
X30413000Y17450085D01*
X30413000Y18993000D01*
X30393000Y18993000D01*
X30393000Y19247000D01*
X30413000Y19247000D01*
X30413000Y20789915D01*
X30190961Y20911904D01*
X30108182Y20894367D01*
X29848354Y20783715D01*
X29615105Y20624500D01*
X29417399Y20422839D01*
X29267265Y20193259D01*
X29198932Y20321101D01*
X29019607Y20539608D01*
X28801100Y20718932D01*
X28551807Y20852182D01*
X28281308Y20934236D01*
X28000000Y20961943D01*
X27718691Y20934236D01*
X27448192Y20852182D01*
X27198899Y20718932D01*
X26980392Y20539607D01*
X26908400Y20451884D01*
X26908400Y20838199D01*
X28345320Y22275118D01*
X28495500Y22055105D01*
X28697161Y21857399D01*
X28933517Y21702834D01*
X29195486Y21597350D01*
X29473000Y21545000D01*
X29873000Y21545000D01*
X29873000Y22853000D01*
X30127000Y22853000D01*
X30127000Y21545000D01*
X30527000Y21545000D01*
X30804514Y21597350D01*
X31066483Y21702834D01*
X31302839Y21857399D01*
X31504500Y22055105D01*
X31663715Y22288354D01*
X31774367Y22548182D01*
X31791904Y22630961D01*
X31669915Y22853000D01*
X30127000Y22853000D01*
X29873000Y22853000D01*
X29853000Y22853000D01*
X29853000Y23107000D01*
X29873000Y23107000D01*
X29873000Y23127000D01*
X30127000Y23127000D01*
X30127000Y23107000D01*
X31669915Y23107000D01*
X31791904Y23329039D01*
X31774367Y23411818D01*
X31663715Y23671646D01*
X31504500Y23904895D01*
X31482280Y23926679D01*
X33296800Y25741198D01*
X33296800Y21338611D01*
X33252863Y21294674D01*
X33139595Y21125156D01*
X33071649Y20961120D01*
X32798691Y20934236D01*
X32528192Y20852182D01*
X32278899Y20718932D01*
X32060392Y20539607D01*
X31881068Y20321100D01*
X31812735Y20193258D01*
X31662601Y20422839D01*
X31464895Y20624500D01*
X31231646Y20783715D01*
X30971818Y20894367D01*
X30889039Y20911904D01*
X30667000Y20789915D01*
X30667000Y19247000D01*
X30687000Y19247000D01*
X30687000Y18993000D01*
X30667000Y18993000D01*
X30667000Y17450085D01*
X30889039Y17328096D01*
X30971818Y17345633D01*
X31231646Y17456285D01*
X31464895Y17615500D01*
X31662601Y17817161D01*
X31812735Y18046741D01*
X31881068Y17918899D01*
X32060393Y17700392D01*
X32278900Y17521068D01*
X32528193Y17387818D01*
X32798692Y17305764D01*
X33080000Y17278057D01*
X33361309Y17305764D01*
X33631808Y17387818D01*
X33881101Y17521068D01*
X34099608Y17700392D01*
X34278932Y17918899D01*
X34347265Y18046741D01*
X34497399Y17817161D01*
X34695105Y17615500D01*
X34928354Y17456285D01*
X35188182Y17345633D01*
X35270961Y17328096D01*
X35493000Y17450085D01*
X35493000Y18993000D01*
X35473000Y18993000D01*
X35473000Y19247000D01*
X35493000Y19247000D01*
X35493000Y20789915D01*
X35747000Y20789915D01*
X35747000Y19247000D01*
X35767000Y19247000D01*
X35767000Y18993000D01*
X35747000Y18993000D01*
X35747000Y17450085D01*
X35969039Y17328096D01*
X36051818Y17345633D01*
X36311646Y17456285D01*
X36544895Y17615500D01*
X36742601Y17817161D01*
X36892735Y18046741D01*
X36961068Y17918899D01*
X37140393Y17700392D01*
X37358900Y17521068D01*
X37608193Y17387818D01*
X37878692Y17305764D01*
X38160000Y17278057D01*
X38441309Y17305764D01*
X38711808Y17387818D01*
X38961101Y17521068D01*
X39179608Y17700392D01*
X39358932Y17918899D01*
X39427265Y18046741D01*
X39577399Y17817161D01*
X39775105Y17615500D01*
X40008354Y17456285D01*
X40268182Y17345633D01*
X40350961Y17328096D01*
X40573000Y17450085D01*
X40573000Y18993000D01*
X40553000Y18993000D01*
X40553000Y19247000D01*
X40573000Y19247000D01*
X40573000Y20789915D01*
X40350961Y20911904D01*
X40268182Y20894367D01*
X40008354Y20783715D01*
X39775105Y20624500D01*
X39577399Y20422839D01*
X39427265Y20193259D01*
X39358932Y20321101D01*
X39179607Y20539608D01*
X38961100Y20718932D01*
X38711807Y20852182D01*
X38441308Y20934236D01*
X38160000Y20961943D01*
X37878691Y20934236D01*
X37608192Y20852182D01*
X37358899Y20718932D01*
X37140392Y20539607D01*
X36961068Y20321100D01*
X36892735Y20193258D01*
X36742601Y20422839D01*
X36544895Y20624500D01*
X36311646Y20783715D01*
X36051818Y20894367D01*
X35969039Y20911904D01*
X35747000Y20789915D01*
X35493000Y20789915D01*
X35270961Y20911904D01*
X35188182Y20894367D01*
X35070440Y20844225D01*
X35052026Y20936798D01*
X34974005Y21125156D01*
X34860737Y21294674D01*
X34816800Y21338611D01*
X34816800Y29988453D01*
X34845315Y29894454D01*
X34856294Y29858260D01*
X34943115Y29695828D01*
X35059957Y29553456D01*
X35095636Y29524175D01*
X43757101Y20862710D01*
X43521308Y20934236D01*
X43240000Y20961943D01*
X42958691Y20934236D01*
X42688192Y20852182D01*
X42438899Y20718932D01*
X42220392Y20539607D01*
X42041068Y20321100D01*
X41972735Y20193258D01*
X41822601Y20422839D01*
X41624895Y20624500D01*
X41391646Y20783715D01*
X41131818Y20894367D01*
X41049039Y20911904D01*
X40827000Y20789915D01*
X40827000Y19247000D01*
X40847000Y19247000D01*
X40847000Y18993000D01*
X40827000Y18993000D01*
X40827000Y17450085D01*
X41049039Y17328096D01*
X41131818Y17345633D01*
X41391646Y17456285D01*
X41624895Y17615500D01*
X41822601Y17817161D01*
X41972735Y18046741D01*
X42041068Y17918899D01*
X42220393Y17700392D01*
X42438900Y17521068D01*
X42688193Y17387818D01*
X42958692Y17305764D01*
X43240000Y17278057D01*
X43521309Y17305764D01*
X43791808Y17387818D01*
X44041101Y17521068D01*
X44259608Y17700392D01*
X44438932Y17918899D01*
X44572182Y18168192D01*
X44654236Y18438691D01*
X44675000Y18649509D01*
X44675000Y19590492D01*
X44654236Y19801309D01*
X44582710Y20037101D01*
X46177961Y18441850D01*
X46228320Y18320273D01*
X46385363Y18085241D01*
X46585241Y17885363D01*
X46785869Y17751308D01*
X46758486Y17736671D01*
X46686903Y17492702D01*
X47500000Y16679605D01*
X48313097Y17492702D01*
X48241514Y17736671D01*
X48212659Y17750324D01*
X48414759Y17885363D01*
X48614637Y18085241D01*
X48771680Y18320273D01*
X48879853Y18581426D01*
X48935000Y18858665D01*
X48935000Y19141335D01*
X48879853Y19418574D01*
X48771680Y19679727D01*
X48614637Y19914759D01*
X48414759Y20114637D01*
X48179727Y20271680D01*
X47918574Y20379853D01*
X47641335Y20435000D01*
X47358665Y20435000D01*
X47081426Y20379853D01*
X46942204Y20322185D01*
X45718591Y21545798D01*
X45921309Y21565764D01*
X46191808Y21647818D01*
X46441101Y21781068D01*
X46659608Y21960392D01*
X46838932Y22178899D01*
X46972182Y22428192D01*
X47033690Y22630961D01*
X47708096Y22630961D01*
X47725633Y22548182D01*
X47836285Y22288354D01*
X47995500Y22055105D01*
X48197161Y21857399D01*
X48433517Y21702834D01*
X48695486Y21597350D01*
X48973000Y21545000D01*
X49373000Y21545000D01*
X49373000Y22853000D01*
X49627000Y22853000D01*
X49627000Y21545000D01*
X50027000Y21545000D01*
X50304514Y21597350D01*
X50566483Y21702834D01*
X50802839Y21857399D01*
X51004500Y22055105D01*
X51163715Y22288354D01*
X51274367Y22548182D01*
X51291904Y22630961D01*
X51169915Y22853000D01*
X49627000Y22853000D01*
X49373000Y22853000D01*
X47830085Y22853000D01*
X47708096Y22630961D01*
X47033690Y22630961D01*
X47054236Y22698691D01*
X47081943Y22980000D01*
X47054236Y23261309D01*
X46972182Y23531808D01*
X46838932Y23781101D01*
X46659608Y23999608D01*
X46441101Y24178932D01*
X46308142Y24250000D01*
X46441101Y24321068D01*
X46659608Y24500392D01*
X46838932Y24718899D01*
X46972182Y24968192D01*
X47054236Y25238691D01*
X47081943Y25520000D01*
X47054236Y25801309D01*
X46972182Y26071808D01*
X46838932Y26321101D01*
X46659608Y26539608D01*
X46441101Y26718932D01*
X46308142Y26790000D01*
X46441101Y26861068D01*
X46659608Y27040392D01*
X46682370Y27068128D01*
X47392001Y26358497D01*
X47415799Y26329499D01*
X47531524Y26234526D01*
X47663553Y26163954D01*
X47795653Y26123883D01*
X47767818Y26071808D01*
X47685764Y25801309D01*
X47658057Y25520000D01*
X47685764Y25238691D01*
X47767818Y24968192D01*
X47901068Y24718899D01*
X48080392Y24500392D01*
X48298899Y24321068D01*
X48426741Y24252735D01*
X48197161Y24102601D01*
X47995500Y23904895D01*
X47836285Y23671646D01*
X47725633Y23411818D01*
X47708096Y23329039D01*
X47830085Y23107000D01*
X49373000Y23107000D01*
X49373000Y23127000D01*
X49627000Y23127000D01*
X49627000Y23107000D01*
X51169915Y23107000D01*
X51291904Y23329039D01*
X51274367Y23411818D01*
X51163715Y23671646D01*
X51004500Y23904895D01*
X50802839Y24102601D01*
X50573259Y24252735D01*
X50701101Y24321068D01*
X50919608Y24500392D01*
X51098932Y24718899D01*
X51232182Y24968192D01*
X51314236Y25238691D01*
X51341943Y25520000D01*
X51314236Y25801309D01*
X51232182Y26071808D01*
X51212035Y26109500D01*
X61986878Y26109500D01*
X62024200Y26105824D01*
X62061522Y26109500D01*
X62061533Y26109500D01*
X62173186Y26120497D01*
X62294637Y26157338D01*
X61321698Y25184399D01*
X61292700Y25160601D01*
X61268902Y25131603D01*
X61268901Y25131602D01*
X61197726Y25044876D01*
X61127154Y24912846D01*
X61110816Y24858985D01*
X61083698Y24769586D01*
X61078706Y24718899D01*
X61069024Y24620600D01*
X61072701Y24583268D01*
X61072701Y20894379D01*
X60941308Y20934236D01*
X60660000Y20961943D01*
X60378691Y20934236D01*
X60108192Y20852182D01*
X59858899Y20718932D01*
X59640392Y20539607D01*
X59461068Y20321100D01*
X59390000Y20188142D01*
X59318932Y20321101D01*
X59139607Y20539608D01*
X58921100Y20718932D01*
X58671807Y20852182D01*
X58401308Y20934236D01*
X58120000Y20961943D01*
X57838691Y20934236D01*
X57568192Y20852182D01*
X57318899Y20718932D01*
X57100392Y20539607D01*
X56921068Y20321100D01*
X56850000Y20188142D01*
X56778932Y20321101D01*
X56599607Y20539608D01*
X56381100Y20718932D01*
X56131807Y20852182D01*
X55861308Y20934236D01*
X55580000Y20961943D01*
X55298691Y20934236D01*
X55028192Y20852182D01*
X54778899Y20718932D01*
X54560392Y20539607D01*
X54381068Y20321100D01*
X54310000Y20188142D01*
X54238932Y20321101D01*
X54059607Y20539608D01*
X53841100Y20718932D01*
X53591807Y20852182D01*
X53321308Y20934236D01*
X53040000Y20961943D01*
X52758691Y20934236D01*
X52488192Y20852182D01*
X52238899Y20718932D01*
X52020392Y20539607D01*
X51841068Y20321100D01*
X51770000Y20188142D01*
X51698932Y20321101D01*
X51519607Y20539608D01*
X51301100Y20718932D01*
X51051807Y20852182D01*
X50781308Y20934236D01*
X50500000Y20961943D01*
X50218691Y20934236D01*
X49948192Y20852182D01*
X49698899Y20718932D01*
X49480392Y20539607D01*
X49301068Y20321100D01*
X49167818Y20071807D01*
X49085764Y19801308D01*
X49065000Y19590491D01*
X49065000Y18649508D01*
X49085764Y18438691D01*
X49167818Y18168192D01*
X49301068Y17918899D01*
X49480393Y17700392D01*
X49565000Y17630957D01*
X49565001Y13322622D01*
X49455820Y13289502D01*
X49345506Y13230537D01*
X49248815Y13151185D01*
X49169463Y13054494D01*
X49110498Y12944180D01*
X49074188Y12824482D01*
X49061928Y12700000D01*
X49061928Y10300000D01*
X49074188Y10175518D01*
X49110498Y10055820D01*
X49169463Y9945506D01*
X49248815Y9848815D01*
X49345506Y9769463D01*
X49455820Y9710498D01*
X49565000Y9677379D01*
X49565000Y9121158D01*
X49339727Y9271680D01*
X49078574Y9379853D01*
X48801335Y9435000D01*
X48518665Y9435000D01*
X48241426Y9379853D01*
X47980273Y9271680D01*
X47745241Y9114637D01*
X47545363Y8914759D01*
X47388320Y8679727D01*
X47280147Y8418574D01*
X47225000Y8141335D01*
X47225000Y7858665D01*
X47280147Y7581426D01*
X47388320Y7320273D01*
X47545363Y7085241D01*
X47745241Y6885363D01*
X47980273Y6728320D01*
X48241426Y6620147D01*
X48518665Y6565000D01*
X48801335Y6565000D01*
X49078574Y6620147D01*
X49339727Y6728320D01*
X49539544Y6861833D01*
X47612711Y4935000D01*
X47358665Y4935000D01*
X47081426Y4879853D01*
X46820273Y4771680D01*
X46585241Y4614637D01*
X46385363Y4414759D01*
X46228320Y4179727D01*
X46120147Y3918574D01*
X46065000Y3641335D01*
X46065000Y3358665D01*
X46120147Y3081426D01*
X46228320Y2820273D01*
X46385363Y2585241D01*
X46585241Y2385363D01*
X46820273Y2228320D01*
X47081426Y2120147D01*
X47358665Y2065000D01*
X47641335Y2065000D01*
X47918574Y2120147D01*
X48179727Y2228320D01*
X48414759Y2385363D01*
X48614637Y2585241D01*
X48771680Y2820273D01*
X48879853Y3081426D01*
X48935000Y3358665D01*
X48935000Y3612711D01*
X51128659Y5806370D01*
X51164344Y5835656D01*
X51281186Y5978028D01*
X51360116Y6125697D01*
X51368007Y6140459D01*
X51421472Y6316708D01*
X51439524Y6500000D01*
X51435000Y6545935D01*
X51435000Y8864700D01*
X56373768Y8864700D01*
X56415034Y8860636D01*
X49139799Y1585400D01*
X40880643Y1585400D01*
X40935000Y1858665D01*
X40935000Y2141335D01*
X40879853Y2418574D01*
X40771680Y2679727D01*
X40614637Y2914759D01*
X40414759Y3114637D01*
X40214131Y3248692D01*
X40241514Y3263329D01*
X40313097Y3507298D01*
X39500000Y4320395D01*
X38686903Y3507298D01*
X38758486Y3263329D01*
X38787341Y3249676D01*
X38585241Y3114637D01*
X38385363Y2914759D01*
X38281957Y2760000D01*
X36340202Y2760000D01*
X36117144Y2983057D01*
X36185000Y3324193D01*
X36185000Y3675807D01*
X36116404Y4020665D01*
X35981847Y4345515D01*
X35925738Y4429488D01*
X38059783Y4429488D01*
X38101213Y4149870D01*
X38196397Y3883708D01*
X38263329Y3758486D01*
X38507298Y3686903D01*
X39320395Y4500000D01*
X39679605Y4500000D01*
X40492702Y3686903D01*
X40736671Y3758486D01*
X40857571Y4013996D01*
X40926300Y4288184D01*
X40940217Y4570512D01*
X40898787Y4850130D01*
X40803603Y5116292D01*
X40736671Y5241514D01*
X40492702Y5313097D01*
X39679605Y4500000D01*
X39320395Y4500000D01*
X38507298Y5313097D01*
X38263329Y5241514D01*
X38142429Y4986004D01*
X38073700Y4711816D01*
X38059783Y4429488D01*
X35925738Y4429488D01*
X35786500Y4637871D01*
X35537871Y4886500D01*
X35285400Y5055197D01*
X35285400Y5492702D01*
X38686903Y5492702D01*
X39500000Y4679605D01*
X40313097Y5492702D01*
X40241514Y5736671D01*
X39986004Y5857571D01*
X39711816Y5926300D01*
X39429488Y5940217D01*
X39149870Y5898787D01*
X38883708Y5803603D01*
X38758486Y5736671D01*
X38686903Y5492702D01*
X35285400Y5492702D01*
X35285400Y5925299D01*
X35671002Y6310900D01*
X35700001Y6334699D01*
X35726332Y6366783D01*
X35794974Y6450423D01*
X35865546Y6582453D01*
X35876980Y6620147D01*
X35909003Y6725714D01*
X35914158Y6778053D01*
X36074759Y6885363D01*
X36274637Y7085241D01*
X36431680Y7320273D01*
X36539853Y7581426D01*
X36595000Y7858665D01*
X36595000Y8141335D01*
X37065000Y8141335D01*
X37065000Y7858665D01*
X37120147Y7581426D01*
X37228320Y7320273D01*
X37385363Y7085241D01*
X37585241Y6885363D01*
X37820273Y6728320D01*
X38081426Y6620147D01*
X38358665Y6565000D01*
X38641335Y6565000D01*
X38918574Y6620147D01*
X39179727Y6728320D01*
X39414759Y6885363D01*
X39614637Y7085241D01*
X39771680Y7320273D01*
X39879853Y7581426D01*
X39935000Y7858665D01*
X39935000Y8141335D01*
X39879853Y8418574D01*
X39771680Y8679727D01*
X39614637Y8914759D01*
X39414759Y9114637D01*
X39179727Y9271680D01*
X38918574Y9379853D01*
X38641335Y9435000D01*
X38358665Y9435000D01*
X38081426Y9379853D01*
X37820273Y9271680D01*
X37585241Y9114637D01*
X37385363Y8914759D01*
X37228320Y8679727D01*
X37120147Y8418574D01*
X37065000Y8141335D01*
X36595000Y8141335D01*
X36539853Y8418574D01*
X36431680Y8679727D01*
X36274637Y8914759D01*
X36074759Y9114637D01*
X35839727Y9271680D01*
X35578574Y9379853D01*
X35301335Y9435000D01*
X35018665Y9435000D01*
X34741426Y9379853D01*
X34480273Y9271680D01*
X34245241Y9114637D01*
X34045363Y8914759D01*
X33888320Y8679727D01*
X33780147Y8418574D01*
X33725000Y8141335D01*
X33725000Y7858665D01*
X33780147Y7581426D01*
X33888320Y7320273D01*
X34045363Y7085241D01*
X34170551Y6960053D01*
X34014402Y6803903D01*
X33985399Y6780101D01*
X33948386Y6735000D01*
X33890426Y6664376D01*
X33866785Y6620147D01*
X33819854Y6532346D01*
X33776397Y6389085D01*
X33765400Y6277432D01*
X33765400Y6277422D01*
X33761724Y6240100D01*
X33765400Y6202777D01*
X33765400Y5169211D01*
X33554485Y5081847D01*
X33262129Y4886500D01*
X33013500Y4637871D01*
X32818153Y4345515D01*
X32683596Y4020665D01*
X32615000Y3675807D01*
X32615000Y3324193D01*
X32683596Y2979335D01*
X32818153Y2654485D01*
X33013500Y2362129D01*
X33262129Y2113500D01*
X33554485Y1918153D01*
X33879335Y1783596D01*
X34224193Y1715000D01*
X34575807Y1715000D01*
X34920665Y1783596D01*
X35094852Y1855746D01*
X35365198Y1585400D01*
X25880643Y1585400D01*
X25935000Y1858665D01*
X25935000Y2141335D01*
X25879853Y2418574D01*
X25771680Y2679727D01*
X25614637Y2914759D01*
X25414759Y3114637D01*
X25214131Y3248692D01*
X25241514Y3263329D01*
X25313097Y3507298D01*
X25144588Y3675807D01*
X27715000Y3675807D01*
X27715000Y3324193D01*
X27783596Y2979335D01*
X27918153Y2654485D01*
X28113500Y2362129D01*
X28362129Y2113500D01*
X28654485Y1918153D01*
X28979335Y1783596D01*
X29324193Y1715000D01*
X29675807Y1715000D01*
X30020665Y1783596D01*
X30345515Y1918153D01*
X30637871Y2113500D01*
X30886500Y2362129D01*
X31081847Y2654485D01*
X31216404Y2979335D01*
X31285000Y3324193D01*
X31285000Y3675807D01*
X31216404Y4020665D01*
X31081847Y4345515D01*
X30886500Y4637871D01*
X30637871Y4886500D01*
X30345515Y5081847D01*
X30020665Y5216404D01*
X29675807Y5285000D01*
X29324193Y5285000D01*
X28979335Y5216404D01*
X28654485Y5081847D01*
X28362129Y4886500D01*
X28113500Y4637871D01*
X27918153Y4345515D01*
X27783596Y4020665D01*
X27715000Y3675807D01*
X25144588Y3675807D01*
X24500000Y4320395D01*
X23686903Y3507298D01*
X23758486Y3263329D01*
X23787341Y3249676D01*
X23585241Y3114637D01*
X23385363Y2914759D01*
X23228320Y2679727D01*
X23120147Y2418574D01*
X23065000Y2141335D01*
X23065000Y1858665D01*
X23119357Y1585400D01*
X20794702Y1585400D01*
X17950614Y4429488D01*
X23059783Y4429488D01*
X23101213Y4149870D01*
X23196397Y3883708D01*
X23263329Y3758486D01*
X23507298Y3686903D01*
X24320395Y4500000D01*
X24679605Y4500000D01*
X25492702Y3686903D01*
X25736671Y3758486D01*
X25857571Y4013996D01*
X25926300Y4288184D01*
X25940217Y4570512D01*
X25898787Y4850130D01*
X25803603Y5116292D01*
X25736671Y5241514D01*
X25492702Y5313097D01*
X24679605Y4500000D01*
X24320395Y4500000D01*
X23507298Y5313097D01*
X23263329Y5241514D01*
X23142429Y4986004D01*
X23073700Y4711816D01*
X23059783Y4429488D01*
X17950614Y4429488D01*
X16887400Y5492702D01*
X23686903Y5492702D01*
X24500000Y4679605D01*
X25313097Y5492702D01*
X25241514Y5736671D01*
X24986004Y5857571D01*
X24711816Y5926300D01*
X24429488Y5940217D01*
X24149870Y5898787D01*
X23883708Y5803603D01*
X23758486Y5736671D01*
X23686903Y5492702D01*
X16887400Y5492702D01*
X14238767Y8141335D01*
X23565000Y8141335D01*
X23565000Y7858665D01*
X23620147Y7581426D01*
X23728320Y7320273D01*
X23885363Y7085241D01*
X24085241Y6885363D01*
X24320273Y6728320D01*
X24581426Y6620147D01*
X24858665Y6565000D01*
X25141335Y6565000D01*
X25418574Y6620147D01*
X25679727Y6728320D01*
X25914759Y6885363D01*
X26114637Y7085241D01*
X26271680Y7320273D01*
X26379853Y7581426D01*
X26435000Y7858665D01*
X26435000Y8141335D01*
X26398688Y8323886D01*
X27289502Y9214700D01*
X30502667Y9214700D01*
X30540000Y9211023D01*
X30688986Y9225697D01*
X30832247Y9269154D01*
X30964276Y9339726D01*
X31080001Y9434699D01*
X31174974Y9550424D01*
X31245546Y9682453D01*
X31289003Y9825714D01*
X31293942Y9875861D01*
X31341101Y9901068D01*
X31559608Y10080392D01*
X31738932Y10298899D01*
X31810000Y10431858D01*
X31881068Y10298899D01*
X32060393Y10080392D01*
X32278900Y9901068D01*
X32528193Y9767818D01*
X32798692Y9685764D01*
X33080000Y9658057D01*
X33361309Y9685764D01*
X33631808Y9767818D01*
X33881101Y9901068D01*
X34099608Y10080392D01*
X34278932Y10298899D01*
X34350000Y10431858D01*
X34421068Y10298899D01*
X34600393Y10080392D01*
X34818900Y9901068D01*
X35068193Y9767818D01*
X35338692Y9685764D01*
X35620000Y9658057D01*
X35901309Y9685764D01*
X36171808Y9767818D01*
X36421101Y9901068D01*
X36639608Y10080392D01*
X36818932Y10298899D01*
X36887265Y10426741D01*
X37037399Y10197161D01*
X37235105Y9995500D01*
X37468354Y9836285D01*
X37728182Y9725633D01*
X37810961Y9708096D01*
X38033000Y9830085D01*
X38033000Y11373000D01*
X38013000Y11373000D01*
X38013000Y11627000D01*
X38033000Y11627000D01*
X38033000Y13169915D01*
X38287000Y13169915D01*
X38287000Y11627000D01*
X38307000Y11627000D01*
X38307000Y11373000D01*
X38287000Y11373000D01*
X38287000Y9830085D01*
X38509039Y9708096D01*
X38591818Y9725633D01*
X38851646Y9836285D01*
X39084895Y9995500D01*
X39282601Y10197161D01*
X39432735Y10426741D01*
X39501068Y10298899D01*
X39680393Y10080392D01*
X39898900Y9901068D01*
X40148193Y9767818D01*
X40418692Y9685764D01*
X40700000Y9658057D01*
X40981309Y9685764D01*
X41251808Y9767818D01*
X41501101Y9901068D01*
X41719608Y10080392D01*
X41898932Y10298899D01*
X41967265Y10426741D01*
X42117399Y10197161D01*
X42315105Y9995500D01*
X42548354Y9836285D01*
X42808182Y9725633D01*
X42890961Y9708096D01*
X43113000Y9830085D01*
X43113000Y11373000D01*
X43367000Y11373000D01*
X43367000Y9830085D01*
X43589039Y9708096D01*
X43671818Y9725633D01*
X43931646Y9836285D01*
X44164895Y9995500D01*
X44362601Y10197161D01*
X44517166Y10433517D01*
X44622650Y10695486D01*
X44675000Y10973000D01*
X44675000Y11373000D01*
X43367000Y11373000D01*
X43113000Y11373000D01*
X43093000Y11373000D01*
X43093000Y11627000D01*
X43113000Y11627000D01*
X43113000Y13169915D01*
X43367000Y13169915D01*
X43367000Y11627000D01*
X44675000Y11627000D01*
X44675000Y12027000D01*
X44622650Y12304514D01*
X44517166Y12566483D01*
X44362601Y12802839D01*
X44164895Y13004500D01*
X43931646Y13163715D01*
X43671818Y13274367D01*
X43589039Y13291904D01*
X43367000Y13169915D01*
X43113000Y13169915D01*
X42890961Y13291904D01*
X42808182Y13274367D01*
X42548354Y13163715D01*
X42315105Y13004500D01*
X42117399Y12802839D01*
X41967265Y12573259D01*
X41898932Y12701101D01*
X41719607Y12919608D01*
X41501100Y13098932D01*
X41251807Y13232182D01*
X40981308Y13314236D01*
X40700000Y13341943D01*
X40418691Y13314236D01*
X40148192Y13232182D01*
X39898899Y13098932D01*
X39680392Y12919607D01*
X39501068Y12701100D01*
X39432735Y12573258D01*
X39282601Y12802839D01*
X39084895Y13004500D01*
X38851646Y13163715D01*
X38591818Y13274367D01*
X38509039Y13291904D01*
X38287000Y13169915D01*
X38033000Y13169915D01*
X37810961Y13291904D01*
X37728182Y13274367D01*
X37468354Y13163715D01*
X37235105Y13004500D01*
X37037399Y12802839D01*
X36887265Y12573259D01*
X36818932Y12701101D01*
X36639607Y12919608D01*
X36421100Y13098932D01*
X36171807Y13232182D01*
X35901308Y13314236D01*
X35620000Y13341943D01*
X35338691Y13314236D01*
X35068192Y13232182D01*
X34818899Y13098932D01*
X34600392Y12919607D01*
X34421068Y12701100D01*
X34350000Y12568142D01*
X34278932Y12701101D01*
X34099607Y12919608D01*
X33881100Y13098932D01*
X33631807Y13232182D01*
X33361308Y13314236D01*
X33080000Y13341943D01*
X32798691Y13314236D01*
X32528192Y13232182D01*
X32278899Y13098932D01*
X32060392Y12919607D01*
X31881068Y12701100D01*
X31810000Y12568142D01*
X31738932Y12701101D01*
X31559607Y12919608D01*
X31341100Y13098932D01*
X31091807Y13232182D01*
X30821308Y13314236D01*
X30540000Y13341943D01*
X30258691Y13314236D01*
X29988192Y13232182D01*
X29738899Y13098932D01*
X29520392Y12919607D01*
X29427581Y12806517D01*
X29425812Y12824482D01*
X29389502Y12944180D01*
X29330537Y13054494D01*
X29251185Y13151185D01*
X29154494Y13230537D01*
X29044180Y13289502D01*
X28924482Y13325812D01*
X28800000Y13338072D01*
X27200000Y13338072D01*
X27075518Y13325812D01*
X26955820Y13289502D01*
X26845506Y13230537D01*
X26748815Y13151185D01*
X26669463Y13054494D01*
X26610498Y12944180D01*
X26574188Y12824482D01*
X26561928Y12700000D01*
X26561928Y10615823D01*
X26550424Y10609674D01*
X26434699Y10514701D01*
X26410901Y10485703D01*
X25323886Y9398688D01*
X25141335Y9435000D01*
X24858665Y9435000D01*
X24581426Y9379853D01*
X24320273Y9271680D01*
X24085241Y9114637D01*
X23885363Y8914759D01*
X23728320Y8679727D01*
X23620147Y8418574D01*
X23565000Y8141335D01*
X14238767Y8141335D01*
X11989141Y10390961D01*
X19948096Y10390961D01*
X19965633Y10308182D01*
X20076285Y10048354D01*
X20235500Y9815105D01*
X20437161Y9617399D01*
X20673517Y9462834D01*
X20935486Y9357350D01*
X21213000Y9305000D01*
X21613000Y9305000D01*
X21613000Y10613000D01*
X21867000Y10613000D01*
X21867000Y9305000D01*
X22267000Y9305000D01*
X22544514Y9357350D01*
X22806483Y9462834D01*
X23042839Y9617399D01*
X23244500Y9815105D01*
X23403715Y10048354D01*
X23514367Y10308182D01*
X23531904Y10390961D01*
X23409915Y10613000D01*
X21867000Y10613000D01*
X21613000Y10613000D01*
X20070085Y10613000D01*
X19948096Y10390961D01*
X11989141Y10390961D01*
X8589104Y13790997D01*
X8565301Y13820001D01*
X8449576Y13914974D01*
X8317547Y13985546D01*
X8174286Y14029003D01*
X8124139Y14033942D01*
X8098932Y14081101D01*
X7919608Y14299608D01*
X7701101Y14478932D01*
X7568142Y14550000D01*
X7701101Y14621068D01*
X7919608Y14800392D01*
X8098932Y15018899D01*
X8232182Y15268192D01*
X8314236Y15538691D01*
X8341943Y15820000D01*
X8314236Y16101309D01*
X8232182Y16371808D01*
X8098932Y16621101D01*
X7919608Y16839608D01*
X7701101Y17018932D01*
X7568142Y17090000D01*
X7701101Y17161068D01*
X7919608Y17340392D01*
X8098932Y17558899D01*
X8232182Y17808192D01*
X8314236Y18078691D01*
X8341943Y18360000D01*
X8314236Y18641309D01*
X8232182Y18911808D01*
X8098932Y19161101D01*
X7919608Y19379608D01*
X7701101Y19558932D01*
X7568142Y19630000D01*
X7701101Y19701068D01*
X7919608Y19880392D01*
X8098932Y20098899D01*
X8124139Y20146058D01*
X8174286Y20150997D01*
X8317547Y20194454D01*
X8449576Y20265026D01*
X8565301Y20359999D01*
X8589104Y20389003D01*
X14261008Y26060905D01*
X14290001Y26084699D01*
X14313795Y26113692D01*
X14313799Y26113696D01*
X14384973Y26200423D01*
X14384974Y26200424D01*
X14455546Y26332453D01*
X14499003Y26475714D01*
X14510000Y26587367D01*
X14510000Y26587376D01*
X14513676Y26624699D01*
X14510000Y26662022D01*
X14510000Y40144320D01*
X14513996Y40142429D01*
X14788184Y40073700D01*
X15070512Y40059783D01*
X15350130Y40101213D01*
X15616292Y40196397D01*
X15741514Y40263329D01*
X15813097Y40507298D01*
X15000000Y41320395D01*
X14985858Y41306252D01*
X14806253Y41485857D01*
X14820395Y41500000D01*
X15179605Y41500000D01*
X15992702Y40686903D01*
X16236671Y40758486D01*
X16357571Y41013996D01*
X16426300Y41288184D01*
X16440217Y41570512D01*
X16398787Y41850130D01*
X16303603Y42116292D01*
X16236671Y42241514D01*
X15992702Y42313097D01*
X15179605Y41500000D01*
X14820395Y41500000D01*
X14806253Y41514142D01*
X14985858Y41693747D01*
X15000000Y41679605D01*
X15813097Y42492702D01*
X15741514Y42736671D01*
X15486004Y42857571D01*
X15211816Y42926300D01*
X14929488Y42940217D01*
X14649870Y42898787D01*
X14510000Y42848767D01*
X14510000Y43600899D01*
X18528901Y47619799D01*
X18528900Y32527748D01*
G04 #@! TA.AperFunction,Conductor*
D30*
G36*
X18528900Y32527748D02*
G01*
X18500174Y32458398D01*
X18460400Y32258439D01*
X18460400Y32054561D01*
X18500174Y31854602D01*
X18578195Y31666244D01*
X18691463Y31496726D01*
X18835626Y31352563D01*
X19005144Y31239295D01*
X19193502Y31161274D01*
X19363001Y31127559D01*
X19363000Y28179123D01*
X19359324Y28141800D01*
X19363000Y28104478D01*
X19363000Y28104468D01*
X19373997Y27992815D01*
X19410280Y27873203D01*
X19417454Y27849554D01*
X19488026Y27717524D01*
X19521921Y27676223D01*
X19582999Y27601799D01*
X19612002Y27577997D01*
X20261793Y26928205D01*
X20141068Y26781101D01*
X20007818Y26531808D01*
X19925764Y26261309D01*
X19898057Y25980000D01*
X19925764Y25698691D01*
X20007818Y25428192D01*
X20141068Y25178899D01*
X20320392Y24960392D01*
X20538899Y24781068D01*
X20671858Y24710000D01*
X20538899Y24638932D01*
X20320392Y24459608D01*
X20141068Y24241101D01*
X20007818Y23991808D01*
X19925764Y23721309D01*
X19898057Y23440000D01*
X19925764Y23158691D01*
X20007818Y22888192D01*
X20141068Y22638899D01*
X20320392Y22420392D01*
X20538899Y22241068D01*
X20671858Y22170000D01*
X20538899Y22098932D01*
X20320392Y21919608D01*
X20141068Y21701101D01*
X20007818Y21451808D01*
X19925764Y21181309D01*
X19898057Y20900000D01*
X19925764Y20618691D01*
X20007818Y20348192D01*
X20141068Y20098899D01*
X20320392Y19880392D01*
X20538899Y19701068D01*
X20671858Y19630000D01*
X20538899Y19558932D01*
X20320392Y19379608D01*
X20141068Y19161101D01*
X20007818Y18911808D01*
X19925764Y18641309D01*
X19898057Y18360000D01*
X19925764Y18078691D01*
X20007818Y17808192D01*
X20141068Y17558899D01*
X20320392Y17340392D01*
X20538899Y17161068D01*
X20671858Y17090000D01*
X20538899Y17018932D01*
X20320392Y16839608D01*
X20141068Y16621101D01*
X20007818Y16371808D01*
X19925764Y16101309D01*
X19898057Y15820000D01*
X19925764Y15538691D01*
X20007818Y15268192D01*
X20141068Y15018899D01*
X20320392Y14800392D01*
X20538899Y14621068D01*
X20671858Y14550000D01*
X20538899Y14478932D01*
X20320392Y14299608D01*
X20141068Y14081101D01*
X20007818Y13831808D01*
X19925764Y13561309D01*
X19898057Y13280000D01*
X19925764Y12998691D01*
X20007818Y12728192D01*
X20141068Y12478899D01*
X20320392Y12260392D01*
X20538899Y12081068D01*
X20666741Y12012735D01*
X20437161Y11862601D01*
X20235500Y11664895D01*
X20076285Y11431646D01*
X19965633Y11171818D01*
X19948096Y11089039D01*
X20070085Y10867000D01*
X21613000Y10867000D01*
X21613000Y10887000D01*
X21867000Y10887000D01*
X21867000Y10867000D01*
X23409915Y10867000D01*
X23531904Y11089039D01*
X23514367Y11171818D01*
X23403715Y11431646D01*
X23244500Y11664895D01*
X23042839Y11862601D01*
X22813259Y12012735D01*
X22941101Y12081068D01*
X23159608Y12260392D01*
X23338932Y12478899D01*
X23364139Y12526058D01*
X23414286Y12530997D01*
X23557547Y12574454D01*
X23689576Y12645026D01*
X23805301Y12739999D01*
X23900274Y12855724D01*
X23970846Y12987753D01*
X24014303Y13131014D01*
X24028977Y13280000D01*
X24025300Y13317333D01*
X24025300Y15436353D01*
X24070630Y15391023D01*
X24186903Y15507296D01*
X24258486Y15263329D01*
X24513996Y15142429D01*
X24788184Y15073700D01*
X25070512Y15059783D01*
X25350130Y15101213D01*
X25616292Y15196397D01*
X25741514Y15263329D01*
X25813097Y15507298D01*
X46686903Y15507298D01*
X46758486Y15263329D01*
X47013996Y15142429D01*
X47288184Y15073700D01*
X47570512Y15059783D01*
X47850130Y15101213D01*
X48116292Y15196397D01*
X48241514Y15263329D01*
X48313097Y15507298D01*
X47500000Y16320395D01*
X46686903Y15507298D01*
X25813097Y15507298D01*
X25000000Y16320395D01*
X24985858Y16306252D01*
X24806253Y16485857D01*
X24820395Y16500000D01*
X24806253Y16514142D01*
X24985858Y16693747D01*
X25000000Y16679605D01*
X25014143Y16693747D01*
X25193748Y16514142D01*
X25179605Y16500000D01*
X25992702Y15686903D01*
X26236671Y15758486D01*
X26357571Y16013996D01*
X26426300Y16288184D01*
X26433265Y16429488D01*
X46059783Y16429488D01*
X46101213Y16149870D01*
X46196397Y15883708D01*
X46263329Y15758486D01*
X46507298Y15686903D01*
X47320395Y16500000D01*
X47679605Y16500000D01*
X48492702Y15686903D01*
X48736671Y15758486D01*
X48857571Y16013996D01*
X48926300Y16288184D01*
X48940217Y16570512D01*
X48898787Y16850130D01*
X48803603Y17116292D01*
X48736671Y17241514D01*
X48492702Y17313097D01*
X47679605Y16500000D01*
X47320395Y16500000D01*
X46507298Y17313097D01*
X46263329Y17241514D01*
X46142429Y16986004D01*
X46073700Y16711816D01*
X46059783Y16429488D01*
X26433265Y16429488D01*
X26440217Y16570512D01*
X26398787Y16850130D01*
X26303603Y17116292D01*
X26236671Y17241514D01*
X25992704Y17313097D01*
X26108977Y17429370D01*
X26102574Y17435773D01*
X26659404Y17992602D01*
X26688401Y18016399D01*
X26725070Y18061081D01*
X26801068Y17918899D01*
X26980393Y17700392D01*
X27198900Y17521068D01*
X27448193Y17387818D01*
X27718692Y17305764D01*
X28000000Y17278057D01*
X28281309Y17305764D01*
X28551808Y17387818D01*
X28801101Y17521068D01*
X29019608Y17700392D01*
X29198932Y17918899D01*
X29267265Y18046741D01*
X29417399Y17817161D01*
X29615105Y17615500D01*
X29848354Y17456285D01*
X30108182Y17345633D01*
X30190961Y17328096D01*
X30413000Y17450085D01*
X30413000Y18993000D01*
X30393000Y18993000D01*
X30393000Y19247000D01*
X30413000Y19247000D01*
X30413000Y20789915D01*
X30190961Y20911904D01*
X30108182Y20894367D01*
X29848354Y20783715D01*
X29615105Y20624500D01*
X29417399Y20422839D01*
X29267265Y20193259D01*
X29198932Y20321101D01*
X29019607Y20539608D01*
X28801100Y20718932D01*
X28551807Y20852182D01*
X28281308Y20934236D01*
X28000000Y20961943D01*
X27718691Y20934236D01*
X27448192Y20852182D01*
X27198899Y20718932D01*
X26980392Y20539607D01*
X26908400Y20451884D01*
X26908400Y20838199D01*
X28345320Y22275118D01*
X28495500Y22055105D01*
X28697161Y21857399D01*
X28933517Y21702834D01*
X29195486Y21597350D01*
X29473000Y21545000D01*
X29873000Y21545000D01*
X29873000Y22853000D01*
X30127000Y22853000D01*
X30127000Y21545000D01*
X30527000Y21545000D01*
X30804514Y21597350D01*
X31066483Y21702834D01*
X31302839Y21857399D01*
X31504500Y22055105D01*
X31663715Y22288354D01*
X31774367Y22548182D01*
X31791904Y22630961D01*
X31669915Y22853000D01*
X30127000Y22853000D01*
X29873000Y22853000D01*
X29853000Y22853000D01*
X29853000Y23107000D01*
X29873000Y23107000D01*
X29873000Y23127000D01*
X30127000Y23127000D01*
X30127000Y23107000D01*
X31669915Y23107000D01*
X31791904Y23329039D01*
X31774367Y23411818D01*
X31663715Y23671646D01*
X31504500Y23904895D01*
X31482280Y23926679D01*
X33296800Y25741198D01*
X33296800Y21338611D01*
X33252863Y21294674D01*
X33139595Y21125156D01*
X33071649Y20961120D01*
X32798691Y20934236D01*
X32528192Y20852182D01*
X32278899Y20718932D01*
X32060392Y20539607D01*
X31881068Y20321100D01*
X31812735Y20193258D01*
X31662601Y20422839D01*
X31464895Y20624500D01*
X31231646Y20783715D01*
X30971818Y20894367D01*
X30889039Y20911904D01*
X30667000Y20789915D01*
X30667000Y19247000D01*
X30687000Y19247000D01*
X30687000Y18993000D01*
X30667000Y18993000D01*
X30667000Y17450085D01*
X30889039Y17328096D01*
X30971818Y17345633D01*
X31231646Y17456285D01*
X31464895Y17615500D01*
X31662601Y17817161D01*
X31812735Y18046741D01*
X31881068Y17918899D01*
X32060393Y17700392D01*
X32278900Y17521068D01*
X32528193Y17387818D01*
X32798692Y17305764D01*
X33080000Y17278057D01*
X33361309Y17305764D01*
X33631808Y17387818D01*
X33881101Y17521068D01*
X34099608Y17700392D01*
X34278932Y17918899D01*
X34347265Y18046741D01*
X34497399Y17817161D01*
X34695105Y17615500D01*
X34928354Y17456285D01*
X35188182Y17345633D01*
X35270961Y17328096D01*
X35493000Y17450085D01*
X35493000Y18993000D01*
X35473000Y18993000D01*
X35473000Y19247000D01*
X35493000Y19247000D01*
X35493000Y20789915D01*
X35747000Y20789915D01*
X35747000Y19247000D01*
X35767000Y19247000D01*
X35767000Y18993000D01*
X35747000Y18993000D01*
X35747000Y17450085D01*
X35969039Y17328096D01*
X36051818Y17345633D01*
X36311646Y17456285D01*
X36544895Y17615500D01*
X36742601Y17817161D01*
X36892735Y18046741D01*
X36961068Y17918899D01*
X37140393Y17700392D01*
X37358900Y17521068D01*
X37608193Y17387818D01*
X37878692Y17305764D01*
X38160000Y17278057D01*
X38441309Y17305764D01*
X38711808Y17387818D01*
X38961101Y17521068D01*
X39179608Y17700392D01*
X39358932Y17918899D01*
X39427265Y18046741D01*
X39577399Y17817161D01*
X39775105Y17615500D01*
X40008354Y17456285D01*
X40268182Y17345633D01*
X40350961Y17328096D01*
X40573000Y17450085D01*
X40573000Y18993000D01*
X40553000Y18993000D01*
X40553000Y19247000D01*
X40573000Y19247000D01*
X40573000Y20789915D01*
X40350961Y20911904D01*
X40268182Y20894367D01*
X40008354Y20783715D01*
X39775105Y20624500D01*
X39577399Y20422839D01*
X39427265Y20193259D01*
X39358932Y20321101D01*
X39179607Y20539608D01*
X38961100Y20718932D01*
X38711807Y20852182D01*
X38441308Y20934236D01*
X38160000Y20961943D01*
X37878691Y20934236D01*
X37608192Y20852182D01*
X37358899Y20718932D01*
X37140392Y20539607D01*
X36961068Y20321100D01*
X36892735Y20193258D01*
X36742601Y20422839D01*
X36544895Y20624500D01*
X36311646Y20783715D01*
X36051818Y20894367D01*
X35969039Y20911904D01*
X35747000Y20789915D01*
X35493000Y20789915D01*
X35270961Y20911904D01*
X35188182Y20894367D01*
X35070440Y20844225D01*
X35052026Y20936798D01*
X34974005Y21125156D01*
X34860737Y21294674D01*
X34816800Y21338611D01*
X34816800Y29988453D01*
X34845315Y29894454D01*
X34856294Y29858260D01*
X34943115Y29695828D01*
X35059957Y29553456D01*
X35095636Y29524175D01*
X43757101Y20862710D01*
X43521308Y20934236D01*
X43240000Y20961943D01*
X42958691Y20934236D01*
X42688192Y20852182D01*
X42438899Y20718932D01*
X42220392Y20539607D01*
X42041068Y20321100D01*
X41972735Y20193258D01*
X41822601Y20422839D01*
X41624895Y20624500D01*
X41391646Y20783715D01*
X41131818Y20894367D01*
X41049039Y20911904D01*
X40827000Y20789915D01*
X40827000Y19247000D01*
X40847000Y19247000D01*
X40847000Y18993000D01*
X40827000Y18993000D01*
X40827000Y17450085D01*
X41049039Y17328096D01*
X41131818Y17345633D01*
X41391646Y17456285D01*
X41624895Y17615500D01*
X41822601Y17817161D01*
X41972735Y18046741D01*
X42041068Y17918899D01*
X42220393Y17700392D01*
X42438900Y17521068D01*
X42688193Y17387818D01*
X42958692Y17305764D01*
X43240000Y17278057D01*
X43521309Y17305764D01*
X43791808Y17387818D01*
X44041101Y17521068D01*
X44259608Y17700392D01*
X44438932Y17918899D01*
X44572182Y18168192D01*
X44654236Y18438691D01*
X44675000Y18649509D01*
X44675000Y19590492D01*
X44654236Y19801309D01*
X44582710Y20037101D01*
X46177961Y18441850D01*
X46228320Y18320273D01*
X46385363Y18085241D01*
X46585241Y17885363D01*
X46785869Y17751308D01*
X46758486Y17736671D01*
X46686903Y17492702D01*
X47500000Y16679605D01*
X48313097Y17492702D01*
X48241514Y17736671D01*
X48212659Y17750324D01*
X48414759Y17885363D01*
X48614637Y18085241D01*
X48771680Y18320273D01*
X48879853Y18581426D01*
X48935000Y18858665D01*
X48935000Y19141335D01*
X48879853Y19418574D01*
X48771680Y19679727D01*
X48614637Y19914759D01*
X48414759Y20114637D01*
X48179727Y20271680D01*
X47918574Y20379853D01*
X47641335Y20435000D01*
X47358665Y20435000D01*
X47081426Y20379853D01*
X46942204Y20322185D01*
X45718591Y21545798D01*
X45921309Y21565764D01*
X46191808Y21647818D01*
X46441101Y21781068D01*
X46659608Y21960392D01*
X46838932Y22178899D01*
X46972182Y22428192D01*
X47033690Y22630961D01*
X47708096Y22630961D01*
X47725633Y22548182D01*
X47836285Y22288354D01*
X47995500Y22055105D01*
X48197161Y21857399D01*
X48433517Y21702834D01*
X48695486Y21597350D01*
X48973000Y21545000D01*
X49373000Y21545000D01*
X49373000Y22853000D01*
X49627000Y22853000D01*
X49627000Y21545000D01*
X50027000Y21545000D01*
X50304514Y21597350D01*
X50566483Y21702834D01*
X50802839Y21857399D01*
X51004500Y22055105D01*
X51163715Y22288354D01*
X51274367Y22548182D01*
X51291904Y22630961D01*
X51169915Y22853000D01*
X49627000Y22853000D01*
X49373000Y22853000D01*
X47830085Y22853000D01*
X47708096Y22630961D01*
X47033690Y22630961D01*
X47054236Y22698691D01*
X47081943Y22980000D01*
X47054236Y23261309D01*
X46972182Y23531808D01*
X46838932Y23781101D01*
X46659608Y23999608D01*
X46441101Y24178932D01*
X46308142Y24250000D01*
X46441101Y24321068D01*
X46659608Y24500392D01*
X46838932Y24718899D01*
X46972182Y24968192D01*
X47054236Y25238691D01*
X47081943Y25520000D01*
X47054236Y25801309D01*
X46972182Y26071808D01*
X46838932Y26321101D01*
X46659608Y26539608D01*
X46441101Y26718932D01*
X46308142Y26790000D01*
X46441101Y26861068D01*
X46659608Y27040392D01*
X46682370Y27068128D01*
X47392001Y26358497D01*
X47415799Y26329499D01*
X47531524Y26234526D01*
X47663553Y26163954D01*
X47795653Y26123883D01*
X47767818Y26071808D01*
X47685764Y25801309D01*
X47658057Y25520000D01*
X47685764Y25238691D01*
X47767818Y24968192D01*
X47901068Y24718899D01*
X48080392Y24500392D01*
X48298899Y24321068D01*
X48426741Y24252735D01*
X48197161Y24102601D01*
X47995500Y23904895D01*
X47836285Y23671646D01*
X47725633Y23411818D01*
X47708096Y23329039D01*
X47830085Y23107000D01*
X49373000Y23107000D01*
X49373000Y23127000D01*
X49627000Y23127000D01*
X49627000Y23107000D01*
X51169915Y23107000D01*
X51291904Y23329039D01*
X51274367Y23411818D01*
X51163715Y23671646D01*
X51004500Y23904895D01*
X50802839Y24102601D01*
X50573259Y24252735D01*
X50701101Y24321068D01*
X50919608Y24500392D01*
X51098932Y24718899D01*
X51232182Y24968192D01*
X51314236Y25238691D01*
X51341943Y25520000D01*
X51314236Y25801309D01*
X51232182Y26071808D01*
X51212035Y26109500D01*
X61986878Y26109500D01*
X62024200Y26105824D01*
X62061522Y26109500D01*
X62061533Y26109500D01*
X62173186Y26120497D01*
X62294637Y26157338D01*
X61321698Y25184399D01*
X61292700Y25160601D01*
X61268902Y25131603D01*
X61268901Y25131602D01*
X61197726Y25044876D01*
X61127154Y24912846D01*
X61110816Y24858985D01*
X61083698Y24769586D01*
X61078706Y24718899D01*
X61069024Y24620600D01*
X61072701Y24583268D01*
X61072701Y20894379D01*
X60941308Y20934236D01*
X60660000Y20961943D01*
X60378691Y20934236D01*
X60108192Y20852182D01*
X59858899Y20718932D01*
X59640392Y20539607D01*
X59461068Y20321100D01*
X59390000Y20188142D01*
X59318932Y20321101D01*
X59139607Y20539608D01*
X58921100Y20718932D01*
X58671807Y20852182D01*
X58401308Y20934236D01*
X58120000Y20961943D01*
X57838691Y20934236D01*
X57568192Y20852182D01*
X57318899Y20718932D01*
X57100392Y20539607D01*
X56921068Y20321100D01*
X56850000Y20188142D01*
X56778932Y20321101D01*
X56599607Y20539608D01*
X56381100Y20718932D01*
X56131807Y20852182D01*
X55861308Y20934236D01*
X55580000Y20961943D01*
X55298691Y20934236D01*
X55028192Y20852182D01*
X54778899Y20718932D01*
X54560392Y20539607D01*
X54381068Y20321100D01*
X54310000Y20188142D01*
X54238932Y20321101D01*
X54059607Y20539608D01*
X53841100Y20718932D01*
X53591807Y20852182D01*
X53321308Y20934236D01*
X53040000Y20961943D01*
X52758691Y20934236D01*
X52488192Y20852182D01*
X52238899Y20718932D01*
X52020392Y20539607D01*
X51841068Y20321100D01*
X51770000Y20188142D01*
X51698932Y20321101D01*
X51519607Y20539608D01*
X51301100Y20718932D01*
X51051807Y20852182D01*
X50781308Y20934236D01*
X50500000Y20961943D01*
X50218691Y20934236D01*
X49948192Y20852182D01*
X49698899Y20718932D01*
X49480392Y20539607D01*
X49301068Y20321100D01*
X49167818Y20071807D01*
X49085764Y19801308D01*
X49065000Y19590491D01*
X49065000Y18649508D01*
X49085764Y18438691D01*
X49167818Y18168192D01*
X49301068Y17918899D01*
X49480393Y17700392D01*
X49565000Y17630957D01*
X49565001Y13322622D01*
X49455820Y13289502D01*
X49345506Y13230537D01*
X49248815Y13151185D01*
X49169463Y13054494D01*
X49110498Y12944180D01*
X49074188Y12824482D01*
X49061928Y12700000D01*
X49061928Y10300000D01*
X49074188Y10175518D01*
X49110498Y10055820D01*
X49169463Y9945506D01*
X49248815Y9848815D01*
X49345506Y9769463D01*
X49455820Y9710498D01*
X49565000Y9677379D01*
X49565000Y9121158D01*
X49339727Y9271680D01*
X49078574Y9379853D01*
X48801335Y9435000D01*
X48518665Y9435000D01*
X48241426Y9379853D01*
X47980273Y9271680D01*
X47745241Y9114637D01*
X47545363Y8914759D01*
X47388320Y8679727D01*
X47280147Y8418574D01*
X47225000Y8141335D01*
X47225000Y7858665D01*
X47280147Y7581426D01*
X47388320Y7320273D01*
X47545363Y7085241D01*
X47745241Y6885363D01*
X47980273Y6728320D01*
X48241426Y6620147D01*
X48518665Y6565000D01*
X48801335Y6565000D01*
X49078574Y6620147D01*
X49339727Y6728320D01*
X49539544Y6861833D01*
X47612711Y4935000D01*
X47358665Y4935000D01*
X47081426Y4879853D01*
X46820273Y4771680D01*
X46585241Y4614637D01*
X46385363Y4414759D01*
X46228320Y4179727D01*
X46120147Y3918574D01*
X46065000Y3641335D01*
X46065000Y3358665D01*
X46120147Y3081426D01*
X46228320Y2820273D01*
X46385363Y2585241D01*
X46585241Y2385363D01*
X46820273Y2228320D01*
X47081426Y2120147D01*
X47358665Y2065000D01*
X47641335Y2065000D01*
X47918574Y2120147D01*
X48179727Y2228320D01*
X48414759Y2385363D01*
X48614637Y2585241D01*
X48771680Y2820273D01*
X48879853Y3081426D01*
X48935000Y3358665D01*
X48935000Y3612711D01*
X51128659Y5806370D01*
X51164344Y5835656D01*
X51281186Y5978028D01*
X51360116Y6125697D01*
X51368007Y6140459D01*
X51421472Y6316708D01*
X51439524Y6500000D01*
X51435000Y6545935D01*
X51435000Y8864700D01*
X56373768Y8864700D01*
X56415034Y8860636D01*
X49139799Y1585400D01*
X40880643Y1585400D01*
X40935000Y1858665D01*
X40935000Y2141335D01*
X40879853Y2418574D01*
X40771680Y2679727D01*
X40614637Y2914759D01*
X40414759Y3114637D01*
X40214131Y3248692D01*
X40241514Y3263329D01*
X40313097Y3507298D01*
X39500000Y4320395D01*
X38686903Y3507298D01*
X38758486Y3263329D01*
X38787341Y3249676D01*
X38585241Y3114637D01*
X38385363Y2914759D01*
X38281957Y2760000D01*
X36340202Y2760000D01*
X36117144Y2983057D01*
X36185000Y3324193D01*
X36185000Y3675807D01*
X36116404Y4020665D01*
X35981847Y4345515D01*
X35925738Y4429488D01*
X38059783Y4429488D01*
X38101213Y4149870D01*
X38196397Y3883708D01*
X38263329Y3758486D01*
X38507298Y3686903D01*
X39320395Y4500000D01*
X39679605Y4500000D01*
X40492702Y3686903D01*
X40736671Y3758486D01*
X40857571Y4013996D01*
X40926300Y4288184D01*
X40940217Y4570512D01*
X40898787Y4850130D01*
X40803603Y5116292D01*
X40736671Y5241514D01*
X40492702Y5313097D01*
X39679605Y4500000D01*
X39320395Y4500000D01*
X38507298Y5313097D01*
X38263329Y5241514D01*
X38142429Y4986004D01*
X38073700Y4711816D01*
X38059783Y4429488D01*
X35925738Y4429488D01*
X35786500Y4637871D01*
X35537871Y4886500D01*
X35285400Y5055197D01*
X35285400Y5492702D01*
X38686903Y5492702D01*
X39500000Y4679605D01*
X40313097Y5492702D01*
X40241514Y5736671D01*
X39986004Y5857571D01*
X39711816Y5926300D01*
X39429488Y5940217D01*
X39149870Y5898787D01*
X38883708Y5803603D01*
X38758486Y5736671D01*
X38686903Y5492702D01*
X35285400Y5492702D01*
X35285400Y5925299D01*
X35671002Y6310900D01*
X35700001Y6334699D01*
X35726332Y6366783D01*
X35794974Y6450423D01*
X35865546Y6582453D01*
X35876980Y6620147D01*
X35909003Y6725714D01*
X35914158Y6778053D01*
X36074759Y6885363D01*
X36274637Y7085241D01*
X36431680Y7320273D01*
X36539853Y7581426D01*
X36595000Y7858665D01*
X36595000Y8141335D01*
X37065000Y8141335D01*
X37065000Y7858665D01*
X37120147Y7581426D01*
X37228320Y7320273D01*
X37385363Y7085241D01*
X37585241Y6885363D01*
X37820273Y6728320D01*
X38081426Y6620147D01*
X38358665Y6565000D01*
X38641335Y6565000D01*
X38918574Y6620147D01*
X39179727Y6728320D01*
X39414759Y6885363D01*
X39614637Y7085241D01*
X39771680Y7320273D01*
X39879853Y7581426D01*
X39935000Y7858665D01*
X39935000Y8141335D01*
X39879853Y8418574D01*
X39771680Y8679727D01*
X39614637Y8914759D01*
X39414759Y9114637D01*
X39179727Y9271680D01*
X38918574Y9379853D01*
X38641335Y9435000D01*
X38358665Y9435000D01*
X38081426Y9379853D01*
X37820273Y9271680D01*
X37585241Y9114637D01*
X37385363Y8914759D01*
X37228320Y8679727D01*
X37120147Y8418574D01*
X37065000Y8141335D01*
X36595000Y8141335D01*
X36539853Y8418574D01*
X36431680Y8679727D01*
X36274637Y8914759D01*
X36074759Y9114637D01*
X35839727Y9271680D01*
X35578574Y9379853D01*
X35301335Y9435000D01*
X35018665Y9435000D01*
X34741426Y9379853D01*
X34480273Y9271680D01*
X34245241Y9114637D01*
X34045363Y8914759D01*
X33888320Y8679727D01*
X33780147Y8418574D01*
X33725000Y8141335D01*
X33725000Y7858665D01*
X33780147Y7581426D01*
X33888320Y7320273D01*
X34045363Y7085241D01*
X34170551Y6960053D01*
X34014402Y6803903D01*
X33985399Y6780101D01*
X33948386Y6735000D01*
X33890426Y6664376D01*
X33866785Y6620147D01*
X33819854Y6532346D01*
X33776397Y6389085D01*
X33765400Y6277432D01*
X33765400Y6277422D01*
X33761724Y6240100D01*
X33765400Y6202777D01*
X33765400Y5169211D01*
X33554485Y5081847D01*
X33262129Y4886500D01*
X33013500Y4637871D01*
X32818153Y4345515D01*
X32683596Y4020665D01*
X32615000Y3675807D01*
X32615000Y3324193D01*
X32683596Y2979335D01*
X32818153Y2654485D01*
X33013500Y2362129D01*
X33262129Y2113500D01*
X33554485Y1918153D01*
X33879335Y1783596D01*
X34224193Y1715000D01*
X34575807Y1715000D01*
X34920665Y1783596D01*
X35094852Y1855746D01*
X35365198Y1585400D01*
X25880643Y1585400D01*
X25935000Y1858665D01*
X25935000Y2141335D01*
X25879853Y2418574D01*
X25771680Y2679727D01*
X25614637Y2914759D01*
X25414759Y3114637D01*
X25214131Y3248692D01*
X25241514Y3263329D01*
X25313097Y3507298D01*
X25144588Y3675807D01*
X27715000Y3675807D01*
X27715000Y3324193D01*
X27783596Y2979335D01*
X27918153Y2654485D01*
X28113500Y2362129D01*
X28362129Y2113500D01*
X28654485Y1918153D01*
X28979335Y1783596D01*
X29324193Y1715000D01*
X29675807Y1715000D01*
X30020665Y1783596D01*
X30345515Y1918153D01*
X30637871Y2113500D01*
X30886500Y2362129D01*
X31081847Y2654485D01*
X31216404Y2979335D01*
X31285000Y3324193D01*
X31285000Y3675807D01*
X31216404Y4020665D01*
X31081847Y4345515D01*
X30886500Y4637871D01*
X30637871Y4886500D01*
X30345515Y5081847D01*
X30020665Y5216404D01*
X29675807Y5285000D01*
X29324193Y5285000D01*
X28979335Y5216404D01*
X28654485Y5081847D01*
X28362129Y4886500D01*
X28113500Y4637871D01*
X27918153Y4345515D01*
X27783596Y4020665D01*
X27715000Y3675807D01*
X25144588Y3675807D01*
X24500000Y4320395D01*
X23686903Y3507298D01*
X23758486Y3263329D01*
X23787341Y3249676D01*
X23585241Y3114637D01*
X23385363Y2914759D01*
X23228320Y2679727D01*
X23120147Y2418574D01*
X23065000Y2141335D01*
X23065000Y1858665D01*
X23119357Y1585400D01*
X20794702Y1585400D01*
X17950614Y4429488D01*
X23059783Y4429488D01*
X23101213Y4149870D01*
X23196397Y3883708D01*
X23263329Y3758486D01*
X23507298Y3686903D01*
X24320395Y4500000D01*
X24679605Y4500000D01*
X25492702Y3686903D01*
X25736671Y3758486D01*
X25857571Y4013996D01*
X25926300Y4288184D01*
X25940217Y4570512D01*
X25898787Y4850130D01*
X25803603Y5116292D01*
X25736671Y5241514D01*
X25492702Y5313097D01*
X24679605Y4500000D01*
X24320395Y4500000D01*
X23507298Y5313097D01*
X23263329Y5241514D01*
X23142429Y4986004D01*
X23073700Y4711816D01*
X23059783Y4429488D01*
X17950614Y4429488D01*
X16887400Y5492702D01*
X23686903Y5492702D01*
X24500000Y4679605D01*
X25313097Y5492702D01*
X25241514Y5736671D01*
X24986004Y5857571D01*
X24711816Y5926300D01*
X24429488Y5940217D01*
X24149870Y5898787D01*
X23883708Y5803603D01*
X23758486Y5736671D01*
X23686903Y5492702D01*
X16887400Y5492702D01*
X14238767Y8141335D01*
X23565000Y8141335D01*
X23565000Y7858665D01*
X23620147Y7581426D01*
X23728320Y7320273D01*
X23885363Y7085241D01*
X24085241Y6885363D01*
X24320273Y6728320D01*
X24581426Y6620147D01*
X24858665Y6565000D01*
X25141335Y6565000D01*
X25418574Y6620147D01*
X25679727Y6728320D01*
X25914759Y6885363D01*
X26114637Y7085241D01*
X26271680Y7320273D01*
X26379853Y7581426D01*
X26435000Y7858665D01*
X26435000Y8141335D01*
X26398688Y8323886D01*
X27289502Y9214700D01*
X30502667Y9214700D01*
X30540000Y9211023D01*
X30688986Y9225697D01*
X30832247Y9269154D01*
X30964276Y9339726D01*
X31080001Y9434699D01*
X31174974Y9550424D01*
X31245546Y9682453D01*
X31289003Y9825714D01*
X31293942Y9875861D01*
X31341101Y9901068D01*
X31559608Y10080392D01*
X31738932Y10298899D01*
X31810000Y10431858D01*
X31881068Y10298899D01*
X32060393Y10080392D01*
X32278900Y9901068D01*
X32528193Y9767818D01*
X32798692Y9685764D01*
X33080000Y9658057D01*
X33361309Y9685764D01*
X33631808Y9767818D01*
X33881101Y9901068D01*
X34099608Y10080392D01*
X34278932Y10298899D01*
X34350000Y10431858D01*
X34421068Y10298899D01*
X34600393Y10080392D01*
X34818900Y9901068D01*
X35068193Y9767818D01*
X35338692Y9685764D01*
X35620000Y9658057D01*
X35901309Y9685764D01*
X36171808Y9767818D01*
X36421101Y9901068D01*
X36639608Y10080392D01*
X36818932Y10298899D01*
X36887265Y10426741D01*
X37037399Y10197161D01*
X37235105Y9995500D01*
X37468354Y9836285D01*
X37728182Y9725633D01*
X37810961Y9708096D01*
X38033000Y9830085D01*
X38033000Y11373000D01*
X38013000Y11373000D01*
X38013000Y11627000D01*
X38033000Y11627000D01*
X38033000Y13169915D01*
X38287000Y13169915D01*
X38287000Y11627000D01*
X38307000Y11627000D01*
X38307000Y11373000D01*
X38287000Y11373000D01*
X38287000Y9830085D01*
X38509039Y9708096D01*
X38591818Y9725633D01*
X38851646Y9836285D01*
X39084895Y9995500D01*
X39282601Y10197161D01*
X39432735Y10426741D01*
X39501068Y10298899D01*
X39680393Y10080392D01*
X39898900Y9901068D01*
X40148193Y9767818D01*
X40418692Y9685764D01*
X40700000Y9658057D01*
X40981309Y9685764D01*
X41251808Y9767818D01*
X41501101Y9901068D01*
X41719608Y10080392D01*
X41898932Y10298899D01*
X41967265Y10426741D01*
X42117399Y10197161D01*
X42315105Y9995500D01*
X42548354Y9836285D01*
X42808182Y9725633D01*
X42890961Y9708096D01*
X43113000Y9830085D01*
X43113000Y11373000D01*
X43367000Y11373000D01*
X43367000Y9830085D01*
X43589039Y9708096D01*
X43671818Y9725633D01*
X43931646Y9836285D01*
X44164895Y9995500D01*
X44362601Y10197161D01*
X44517166Y10433517D01*
X44622650Y10695486D01*
X44675000Y10973000D01*
X44675000Y11373000D01*
X43367000Y11373000D01*
X43113000Y11373000D01*
X43093000Y11373000D01*
X43093000Y11627000D01*
X43113000Y11627000D01*
X43113000Y13169915D01*
X43367000Y13169915D01*
X43367000Y11627000D01*
X44675000Y11627000D01*
X44675000Y12027000D01*
X44622650Y12304514D01*
X44517166Y12566483D01*
X44362601Y12802839D01*
X44164895Y13004500D01*
X43931646Y13163715D01*
X43671818Y13274367D01*
X43589039Y13291904D01*
X43367000Y13169915D01*
X43113000Y13169915D01*
X42890961Y13291904D01*
X42808182Y13274367D01*
X42548354Y13163715D01*
X42315105Y13004500D01*
X42117399Y12802839D01*
X41967265Y12573259D01*
X41898932Y12701101D01*
X41719607Y12919608D01*
X41501100Y13098932D01*
X41251807Y13232182D01*
X40981308Y13314236D01*
X40700000Y13341943D01*
X40418691Y13314236D01*
X40148192Y13232182D01*
X39898899Y13098932D01*
X39680392Y12919607D01*
X39501068Y12701100D01*
X39432735Y12573258D01*
X39282601Y12802839D01*
X39084895Y13004500D01*
X38851646Y13163715D01*
X38591818Y13274367D01*
X38509039Y13291904D01*
X38287000Y13169915D01*
X38033000Y13169915D01*
X37810961Y13291904D01*
X37728182Y13274367D01*
X37468354Y13163715D01*
X37235105Y13004500D01*
X37037399Y12802839D01*
X36887265Y12573259D01*
X36818932Y12701101D01*
X36639607Y12919608D01*
X36421100Y13098932D01*
X36171807Y13232182D01*
X35901308Y13314236D01*
X35620000Y13341943D01*
X35338691Y13314236D01*
X35068192Y13232182D01*
X34818899Y13098932D01*
X34600392Y12919607D01*
X34421068Y12701100D01*
X34350000Y12568142D01*
X34278932Y12701101D01*
X34099607Y12919608D01*
X33881100Y13098932D01*
X33631807Y13232182D01*
X33361308Y13314236D01*
X33080000Y13341943D01*
X32798691Y13314236D01*
X32528192Y13232182D01*
X32278899Y13098932D01*
X32060392Y12919607D01*
X31881068Y12701100D01*
X31810000Y12568142D01*
X31738932Y12701101D01*
X31559607Y12919608D01*
X31341100Y13098932D01*
X31091807Y13232182D01*
X30821308Y13314236D01*
X30540000Y13341943D01*
X30258691Y13314236D01*
X29988192Y13232182D01*
X29738899Y13098932D01*
X29520392Y12919607D01*
X29427581Y12806517D01*
X29425812Y12824482D01*
X29389502Y12944180D01*
X29330537Y13054494D01*
X29251185Y13151185D01*
X29154494Y13230537D01*
X29044180Y13289502D01*
X28924482Y13325812D01*
X28800000Y13338072D01*
X27200000Y13338072D01*
X27075518Y13325812D01*
X26955820Y13289502D01*
X26845506Y13230537D01*
X26748815Y13151185D01*
X26669463Y13054494D01*
X26610498Y12944180D01*
X26574188Y12824482D01*
X26561928Y12700000D01*
X26561928Y10615823D01*
X26550424Y10609674D01*
X26434699Y10514701D01*
X26410901Y10485703D01*
X25323886Y9398688D01*
X25141335Y9435000D01*
X24858665Y9435000D01*
X24581426Y9379853D01*
X24320273Y9271680D01*
X24085241Y9114637D01*
X23885363Y8914759D01*
X23728320Y8679727D01*
X23620147Y8418574D01*
X23565000Y8141335D01*
X14238767Y8141335D01*
X11989141Y10390961D01*
X19948096Y10390961D01*
X19965633Y10308182D01*
X20076285Y10048354D01*
X20235500Y9815105D01*
X20437161Y9617399D01*
X20673517Y9462834D01*
X20935486Y9357350D01*
X21213000Y9305000D01*
X21613000Y9305000D01*
X21613000Y10613000D01*
X21867000Y10613000D01*
X21867000Y9305000D01*
X22267000Y9305000D01*
X22544514Y9357350D01*
X22806483Y9462834D01*
X23042839Y9617399D01*
X23244500Y9815105D01*
X23403715Y10048354D01*
X23514367Y10308182D01*
X23531904Y10390961D01*
X23409915Y10613000D01*
X21867000Y10613000D01*
X21613000Y10613000D01*
X20070085Y10613000D01*
X19948096Y10390961D01*
X11989141Y10390961D01*
X8589104Y13790997D01*
X8565301Y13820001D01*
X8449576Y13914974D01*
X8317547Y13985546D01*
X8174286Y14029003D01*
X8124139Y14033942D01*
X8098932Y14081101D01*
X7919608Y14299608D01*
X7701101Y14478932D01*
X7568142Y14550000D01*
X7701101Y14621068D01*
X7919608Y14800392D01*
X8098932Y15018899D01*
X8232182Y15268192D01*
X8314236Y15538691D01*
X8341943Y15820000D01*
X8314236Y16101309D01*
X8232182Y16371808D01*
X8098932Y16621101D01*
X7919608Y16839608D01*
X7701101Y17018932D01*
X7568142Y17090000D01*
X7701101Y17161068D01*
X7919608Y17340392D01*
X8098932Y17558899D01*
X8232182Y17808192D01*
X8314236Y18078691D01*
X8341943Y18360000D01*
X8314236Y18641309D01*
X8232182Y18911808D01*
X8098932Y19161101D01*
X7919608Y19379608D01*
X7701101Y19558932D01*
X7568142Y19630000D01*
X7701101Y19701068D01*
X7919608Y19880392D01*
X8098932Y20098899D01*
X8124139Y20146058D01*
X8174286Y20150997D01*
X8317547Y20194454D01*
X8449576Y20265026D01*
X8565301Y20359999D01*
X8589104Y20389003D01*
X14261008Y26060905D01*
X14290001Y26084699D01*
X14313795Y26113692D01*
X14313799Y26113696D01*
X14384973Y26200423D01*
X14384974Y26200424D01*
X14455546Y26332453D01*
X14499003Y26475714D01*
X14510000Y26587367D01*
X14510000Y26587376D01*
X14513676Y26624699D01*
X14510000Y26662022D01*
X14510000Y40144320D01*
X14513996Y40142429D01*
X14788184Y40073700D01*
X15070512Y40059783D01*
X15350130Y40101213D01*
X15616292Y40196397D01*
X15741514Y40263329D01*
X15813097Y40507298D01*
X15000000Y41320395D01*
X14985858Y41306252D01*
X14806253Y41485857D01*
X14820395Y41500000D01*
X15179605Y41500000D01*
X15992702Y40686903D01*
X16236671Y40758486D01*
X16357571Y41013996D01*
X16426300Y41288184D01*
X16440217Y41570512D01*
X16398787Y41850130D01*
X16303603Y42116292D01*
X16236671Y42241514D01*
X15992702Y42313097D01*
X15179605Y41500000D01*
X14820395Y41500000D01*
X14806253Y41514142D01*
X14985858Y41693747D01*
X15000000Y41679605D01*
X15813097Y42492702D01*
X15741514Y42736671D01*
X15486004Y42857571D01*
X15211816Y42926300D01*
X14929488Y42940217D01*
X14649870Y42898787D01*
X14510000Y42848767D01*
X14510000Y43600899D01*
X18528901Y47619799D01*
X18528900Y32527748D01*
G37*
G04 #@! TD.AperFunction*
D29*
X60406525Y62053368D02*
X60613368Y61846525D01*
X60856589Y61684010D01*
X61126842Y61572068D01*
X61413740Y61515000D01*
X61706260Y61515000D01*
X61993158Y61572068D01*
X62263411Y61684010D01*
X62467692Y61820506D01*
X63959039Y60329159D01*
X63820273Y60271680D01*
X63585241Y60114637D01*
X63385363Y59914759D01*
X63251308Y59714131D01*
X63236671Y59741514D01*
X62992702Y59813097D01*
X62179605Y59000000D01*
X62992702Y58186903D01*
X63236671Y58258486D01*
X63250324Y58287341D01*
X63385363Y58085241D01*
X63585241Y57885363D01*
X63805000Y57738525D01*
X63805001Y57337281D01*
X63788192Y57332182D01*
X63538899Y57198932D01*
X63320392Y57019608D01*
X63141068Y56801101D01*
X63007818Y56551808D01*
X62925764Y56281309D01*
X62898057Y56000000D01*
X62925764Y55718691D01*
X62951272Y55634600D01*
X62558802Y55634600D01*
X60186104Y58007298D01*
X61186903Y58007298D01*
X61258486Y57763329D01*
X61513996Y57642429D01*
X61788184Y57573700D01*
X62070512Y57559783D01*
X62350130Y57601213D01*
X62616292Y57696397D01*
X62741514Y57763329D01*
X62813097Y58007298D01*
X62000000Y58820395D01*
X61186903Y58007298D01*
X60186104Y58007298D01*
X60055000Y58138401D01*
X60055000Y58200539D01*
X60015226Y58400498D01*
X59937205Y58588856D01*
X59823937Y58758374D01*
X59780000Y58802311D01*
X59780000Y58929488D01*
X60559783Y58929488D01*
X60601213Y58649870D01*
X60696397Y58383708D01*
X60763329Y58258486D01*
X61007298Y58186903D01*
X61820395Y59000000D01*
X61007298Y59813097D01*
X60763329Y59741514D01*
X60642429Y59486004D01*
X60573700Y59211816D01*
X60559783Y58929488D01*
X59780000Y58929488D01*
X59780000Y59992702D01*
X61186903Y59992702D01*
X62000000Y59179605D01*
X62813097Y59992702D01*
X62741514Y60236671D01*
X62486004Y60357571D01*
X62211816Y60426300D01*
X61929488Y60440217D01*
X61649870Y60398787D01*
X61383708Y60303603D01*
X61258486Y60236671D01*
X61186903Y59992702D01*
X59780000Y59992702D01*
X59780000Y61721822D01*
X59966632Y61846525D01*
X60173475Y62053368D01*
X60290000Y62227760D01*
X60406525Y62053368D01*
G04 #@! TA.AperFunction,Conductor*
D30*
G36*
X60406525Y62053368D02*
G01*
X60613368Y61846525D01*
X60856589Y61684010D01*
X61126842Y61572068D01*
X61413740Y61515000D01*
X61706260Y61515000D01*
X61993158Y61572068D01*
X62263411Y61684010D01*
X62467692Y61820506D01*
X63959039Y60329159D01*
X63820273Y60271680D01*
X63585241Y60114637D01*
X63385363Y59914759D01*
X63251308Y59714131D01*
X63236671Y59741514D01*
X62992702Y59813097D01*
X62179605Y59000000D01*
X62992702Y58186903D01*
X63236671Y58258486D01*
X63250324Y58287341D01*
X63385363Y58085241D01*
X63585241Y57885363D01*
X63805000Y57738525D01*
X63805001Y57337281D01*
X63788192Y57332182D01*
X63538899Y57198932D01*
X63320392Y57019608D01*
X63141068Y56801101D01*
X63007818Y56551808D01*
X62925764Y56281309D01*
X62898057Y56000000D01*
X62925764Y55718691D01*
X62951272Y55634600D01*
X62558802Y55634600D01*
X60186104Y58007298D01*
X61186903Y58007298D01*
X61258486Y57763329D01*
X61513996Y57642429D01*
X61788184Y57573700D01*
X62070512Y57559783D01*
X62350130Y57601213D01*
X62616292Y57696397D01*
X62741514Y57763329D01*
X62813097Y58007298D01*
X62000000Y58820395D01*
X61186903Y58007298D01*
X60186104Y58007298D01*
X60055000Y58138401D01*
X60055000Y58200539D01*
X60015226Y58400498D01*
X59937205Y58588856D01*
X59823937Y58758374D01*
X59780000Y58802311D01*
X59780000Y58929488D01*
X60559783Y58929488D01*
X60601213Y58649870D01*
X60696397Y58383708D01*
X60763329Y58258486D01*
X61007298Y58186903D01*
X61820395Y59000000D01*
X61007298Y59813097D01*
X60763329Y59741514D01*
X60642429Y59486004D01*
X60573700Y59211816D01*
X60559783Y58929488D01*
X59780000Y58929488D01*
X59780000Y59992702D01*
X61186903Y59992702D01*
X62000000Y59179605D01*
X62813097Y59992702D01*
X62741514Y60236671D01*
X62486004Y60357571D01*
X62211816Y60426300D01*
X61929488Y60440217D01*
X61649870Y60398787D01*
X61383708Y60303603D01*
X61258486Y60236671D01*
X61186903Y59992702D01*
X59780000Y59992702D01*
X59780000Y61721822D01*
X59966632Y61846525D01*
X60173475Y62053368D01*
X60290000Y62227760D01*
X60406525Y62053368D01*
G37*
G04 #@! TD.AperFunction*
D29*
X84708128Y57562369D02*
X84680392Y57539607D01*
X84501068Y57321100D01*
X84430000Y57188142D01*
X84358932Y57321101D01*
X84179607Y57539608D01*
X83961100Y57718932D01*
X83711807Y57852182D01*
X83441308Y57934236D01*
X83160000Y57961943D01*
X82878691Y57934236D01*
X82608192Y57852182D01*
X82358899Y57718932D01*
X82307364Y57676638D01*
X82285401Y57703401D01*
X82256404Y57727198D01*
X81362504Y58621098D01*
X81338701Y58650101D01*
X81222976Y58745074D01*
X81090947Y58815646D01*
X80947686Y58859103D01*
X80836033Y58870100D01*
X80836022Y58870100D01*
X80798700Y58873776D01*
X80761378Y58870100D01*
X77436522Y58870100D01*
X77399199Y58873776D01*
X77361876Y58870100D01*
X77361867Y58870100D01*
X77250214Y58859103D01*
X77106953Y58815646D01*
X76974924Y58745074D01*
X76900102Y58683669D01*
X76926300Y58788184D01*
X76940217Y59070512D01*
X76898787Y59350130D01*
X76803603Y59616292D01*
X76736671Y59741514D01*
X76492702Y59813097D01*
X75679605Y59000000D01*
X75693748Y58985857D01*
X75514143Y58806252D01*
X75500000Y58820395D01*
X74686903Y58007298D01*
X74758486Y57763329D01*
X74786636Y57750009D01*
X74786058Y57744139D01*
X74738899Y57718932D01*
X74520392Y57539607D01*
X74341068Y57321100D01*
X74270000Y57188142D01*
X74198932Y57321101D01*
X74019607Y57539608D01*
X73935000Y57609043D01*
X73935000Y57905604D01*
X74114637Y58085241D01*
X74248692Y58285869D01*
X74263329Y58258486D01*
X74507298Y58186903D01*
X75320395Y59000000D01*
X75306253Y59014142D01*
X75485858Y59193747D01*
X75500000Y59179605D01*
X76313097Y59992702D01*
X76241514Y60236671D01*
X75986004Y60357571D01*
X75711816Y60426300D01*
X75429488Y60440217D01*
X75195000Y60405474D01*
X75195000Y61838753D01*
X75206632Y61846525D01*
X75413475Y62053368D01*
X75575990Y62296589D01*
X75687932Y62566842D01*
X75745000Y62853740D01*
X75745000Y63146260D01*
X75687932Y63433158D01*
X75575990Y63703411D01*
X75413475Y63946632D01*
X75206632Y64153475D01*
X75030594Y64271100D01*
X75260269Y64442412D01*
X75455178Y64658645D01*
X75604157Y64908748D01*
X75701481Y65183109D01*
X75580814Y65413000D01*
X74387000Y65413000D01*
X74387000Y65393000D01*
X74133000Y65393000D01*
X74133000Y65413000D01*
X74113000Y65413000D01*
X74113000Y65667000D01*
X74133000Y65667000D01*
X74133000Y65687000D01*
X74387000Y65687000D01*
X74387000Y65667000D01*
X75580814Y65667000D01*
X75701481Y65896891D01*
X75663806Y66003100D01*
X76267399Y66003100D01*
X84708128Y57562369D01*
G04 #@! TA.AperFunction,Conductor*
D30*
G36*
X84708128Y57562369D02*
G01*
X84680392Y57539607D01*
X84501068Y57321100D01*
X84430000Y57188142D01*
X84358932Y57321101D01*
X84179607Y57539608D01*
X83961100Y57718932D01*
X83711807Y57852182D01*
X83441308Y57934236D01*
X83160000Y57961943D01*
X82878691Y57934236D01*
X82608192Y57852182D01*
X82358899Y57718932D01*
X82307364Y57676638D01*
X82285401Y57703401D01*
X82256404Y57727198D01*
X81362504Y58621098D01*
X81338701Y58650101D01*
X81222976Y58745074D01*
X81090947Y58815646D01*
X80947686Y58859103D01*
X80836033Y58870100D01*
X80836022Y58870100D01*
X80798700Y58873776D01*
X80761378Y58870100D01*
X77436522Y58870100D01*
X77399199Y58873776D01*
X77361876Y58870100D01*
X77361867Y58870100D01*
X77250214Y58859103D01*
X77106953Y58815646D01*
X76974924Y58745074D01*
X76900102Y58683669D01*
X76926300Y58788184D01*
X76940217Y59070512D01*
X76898787Y59350130D01*
X76803603Y59616292D01*
X76736671Y59741514D01*
X76492702Y59813097D01*
X75679605Y59000000D01*
X75693748Y58985857D01*
X75514143Y58806252D01*
X75500000Y58820395D01*
X74686903Y58007298D01*
X74758486Y57763329D01*
X74786636Y57750009D01*
X74786058Y57744139D01*
X74738899Y57718932D01*
X74520392Y57539607D01*
X74341068Y57321100D01*
X74270000Y57188142D01*
X74198932Y57321101D01*
X74019607Y57539608D01*
X73935000Y57609043D01*
X73935000Y57905604D01*
X74114637Y58085241D01*
X74248692Y58285869D01*
X74263329Y58258486D01*
X74507298Y58186903D01*
X75320395Y59000000D01*
X75306253Y59014142D01*
X75485858Y59193747D01*
X75500000Y59179605D01*
X76313097Y59992702D01*
X76241514Y60236671D01*
X75986004Y60357571D01*
X75711816Y60426300D01*
X75429488Y60440217D01*
X75195000Y60405474D01*
X75195000Y61838753D01*
X75206632Y61846525D01*
X75413475Y62053368D01*
X75575990Y62296589D01*
X75687932Y62566842D01*
X75745000Y62853740D01*
X75745000Y63146260D01*
X75687932Y63433158D01*
X75575990Y63703411D01*
X75413475Y63946632D01*
X75206632Y64153475D01*
X75030594Y64271100D01*
X75260269Y64442412D01*
X75455178Y64658645D01*
X75604157Y64908748D01*
X75701481Y65183109D01*
X75580814Y65413000D01*
X74387000Y65413000D01*
X74387000Y65393000D01*
X74133000Y65393000D01*
X74133000Y65413000D01*
X74113000Y65413000D01*
X74113000Y65667000D01*
X74133000Y65667000D01*
X74133000Y65687000D01*
X74387000Y65687000D01*
X74387000Y65667000D01*
X75580814Y65667000D01*
X75701481Y65896891D01*
X75663806Y66003100D01*
X76267399Y66003100D01*
X84708128Y57562369D01*
G37*
G04 #@! TD.AperFunction*
D29*
X42693748Y59014142D02*
X42679605Y59000000D01*
X42693748Y58985857D01*
X42514143Y58806252D01*
X42500000Y58820395D01*
X42485858Y58806252D01*
X42306253Y58985857D01*
X42320395Y59000000D01*
X42306253Y59014142D01*
X42485858Y59193747D01*
X42500000Y59179605D01*
X42514143Y59193747D01*
X42693748Y59014142D01*
G04 #@! TA.AperFunction,Conductor*
D30*
G36*
X42693748Y59014142D02*
G01*
X42679605Y59000000D01*
X42693748Y58985857D01*
X42514143Y58806252D01*
X42500000Y58820395D01*
X42485858Y58806252D01*
X42306253Y58985857D01*
X42320395Y59000000D01*
X42306253Y59014142D01*
X42485858Y59193747D01*
X42500000Y59179605D01*
X42514143Y59193747D01*
X42693748Y59014142D01*
G37*
G04 #@! TD.AperFunction*
M02*
