M48
; DRILL file {KiCad (5.1.10-1-10_14)} date Saturday, December 18, 2021 at 04:14:38 PM
; FORMAT={-:-/ absolute / metric / decimal}
; #@! TF.CreationDate,2021-12-18T16:14:38+09:00
; #@! TF.GenerationSoftware,Kicad,Pcbnew,(5.1.10-1-10_14)
FMAT,2
METRIC
T1C0.400
T2C0.750
T3C0.800
T4C0.900
T5C1.000
T6C1.100
T7C1.500
T8C3.200
%
G90
G05
T1
X19.495Y32.157
X19.944Y50.11
X23.283Y63.515
X24.028Y64.261
X24.246Y48.2
X26.459Y60.473
X32.371Y38.912
X32.604Y64.365
X34.057Y20.635
X34.694Y61.6
X34.824Y33.739
X35.363Y56.0
X35.704Y60.576
X36.324Y35.221
X40.617Y58.626
X47.047Y61.661
X56.756Y32.713
X59.02Y58.099
X59.771Y53.014
X67.337Y33.78
X67.905Y17.711
X72.778Y27.82
X73.503Y28.571
X73.892Y38.015
X80.663Y50.752
T2
X78.84Y17.5
X89.0Y17.5
T3
X3.0Y59.0
X3.0Y56.46
X3.0Y53.92
X3.0Y51.38
X3.0Y48.84
X3.0Y46.3
X3.0Y43.76
X3.0Y41.22
X3.0Y38.68
X6.5Y59.0
X6.5Y56.46
X6.5Y53.92
X6.5Y51.38
X6.5Y48.84
X6.5Y46.3
X6.5Y43.76
X6.5Y41.22
X6.5Y38.68
X6.5Y36.14
X6.5Y33.6
X6.5Y31.06
X6.5Y28.52
X6.5Y25.98
X6.5Y23.44
X6.5Y20.9
X6.5Y18.36
X6.5Y15.82
X6.5Y13.28
X6.5Y10.74
X12.5Y41.5
X15.0Y41.5
X21.74Y59.0
X21.74Y56.46
X21.74Y53.92
X21.74Y51.38
X21.74Y48.84
X21.74Y46.3
X21.74Y43.76
X21.74Y41.22
X21.74Y38.68
X21.74Y36.14
X21.74Y33.6
X21.74Y31.06
X21.74Y28.52
X21.74Y25.98
X21.74Y23.44
X21.74Y20.9
X21.74Y18.36
X21.74Y15.82
X21.74Y13.28
X21.74Y10.74
X24.5Y4.5
X24.5Y2.0
X25.0Y19.0
X25.0Y16.5
X25.0Y8.0
X26.0Y44.82
X26.0Y42.28
X26.0Y39.74
X26.0Y37.2
X26.0Y34.66
X26.0Y32.12
X26.0Y29.58
X26.0Y27.04
X26.0Y24.5
X28.0Y19.12
X28.0Y11.5
X30.0Y56.0
X30.0Y53.46
X30.0Y50.92
X30.0Y48.38
X30.0Y45.84
X30.0Y43.3
X30.0Y40.76
X30.0Y38.22
X30.0Y35.68
X30.0Y33.14
X30.0Y30.6
X30.0Y28.06
X30.0Y25.52
X30.0Y22.98
X30.54Y19.12
X30.54Y11.5
X33.08Y19.12
X33.08Y11.5
X35.16Y8.0
X35.62Y19.12
X35.62Y11.5
X38.16Y19.12
X38.16Y11.5
X38.5Y8.0
X39.5Y4.5
X39.5Y2.0
X40.7Y19.12
X40.7Y11.5
X42.5Y59.0
X43.24Y19.12
X43.24Y11.5
X45.0Y59.0
X45.24Y56.0
X45.24Y53.46
X45.24Y50.92
X45.24Y48.38
X45.24Y45.84
X45.24Y43.3
X45.24Y40.76
X45.24Y38.22
X45.24Y35.68
X45.24Y33.14
X45.24Y30.6
X45.24Y28.06
X45.24Y25.52
X45.24Y22.98
X47.5Y19.0
X47.5Y16.5
X47.5Y3.5
X48.66Y8.0
X49.5Y56.0
X49.5Y53.46
X49.5Y50.92
X49.5Y48.38
X49.5Y45.84
X49.5Y43.3
X49.5Y40.76
X49.5Y38.22
X49.5Y35.68
X49.5Y33.14
X49.5Y30.6
X49.5Y28.06
X49.5Y25.52
X49.5Y22.98
X50.5Y19.12
X50.5Y11.5
X53.04Y19.12
X53.04Y11.5
X55.58Y19.12
X55.58Y11.5
X57.66Y3.5
X58.12Y19.12
X58.12Y11.5
X60.66Y19.12
X60.66Y11.5
X62.0Y59.0
X63.2Y19.12
X63.2Y11.5
X64.5Y59.0
X64.74Y56.0
X64.74Y53.46
X64.74Y50.92
X64.74Y48.38
X64.74Y45.84
X64.74Y43.3
X64.74Y40.76
X64.74Y38.22
X64.74Y35.68
X64.74Y33.14
X64.74Y30.6
X64.74Y28.06
X64.74Y25.52
X64.74Y22.98
X65.74Y19.12
X65.74Y11.5
X68.5Y56.0
X68.5Y53.46
X68.5Y50.92
X68.5Y48.38
X68.5Y45.84
X69.5Y40.74
X69.5Y25.5
X72.0Y19.0
X72.0Y11.0
X72.04Y40.74
X72.04Y25.5
X73.0Y59.0
X73.0Y56.12
X73.0Y48.5
X74.5Y19.0
X74.5Y11.0
X74.58Y40.74
X74.58Y25.5
X75.5Y59.0
X75.54Y56.12
X75.54Y48.5
X77.12Y40.74
X77.12Y25.5
X78.08Y56.12
X78.08Y48.5
X78.84Y20.5
X79.66Y40.74
X79.66Y25.5
X80.62Y56.12
X80.62Y48.5
X82.2Y40.74
X82.2Y25.5
X83.16Y56.12
X83.16Y48.5
X84.74Y40.74
X84.74Y25.5
X85.7Y56.12
X85.7Y48.5
X87.28Y40.74
X87.28Y25.5
X88.24Y56.12
X88.24Y48.5
X89.0Y20.5
X89.82Y40.74
X89.82Y25.5
X92.36Y40.74
X92.36Y25.5
X94.5Y34.5
X94.5Y32.0
X94.9Y40.74
X94.9Y25.5
X97.44Y40.74
X97.44Y25.5
T4
X61.96Y3.5
X64.5Y3.5
T5
X26.0Y65.54
X26.0Y63.0
X28.54Y65.54
X28.54Y63.0
X31.08Y65.54
X31.08Y63.0
X33.62Y65.54
X33.62Y63.0
X36.16Y65.54
X36.16Y63.0
X38.7Y65.54
X38.7Y63.0
X41.24Y65.54
X41.24Y63.0
X43.78Y65.54
X43.78Y63.0
X46.32Y65.54
X46.32Y63.0
X48.86Y65.54
X48.86Y63.0
X51.4Y65.54
X51.4Y63.0
X53.94Y65.54
X53.94Y63.0
X56.48Y65.54
X56.48Y63.0
X59.02Y65.54
X59.02Y63.0
X61.56Y65.54
X61.56Y63.0
X64.1Y65.54
X64.1Y63.0
X66.64Y65.54
X66.64Y63.0
X69.18Y65.54
X69.18Y63.0
X70.42Y3.5
X71.72Y65.54
X71.72Y63.0
X72.96Y3.5
X74.26Y65.54
X74.26Y63.0
X75.5Y3.5
X92.5Y59.5
X92.5Y56.96
X92.5Y54.42
X92.5Y51.88
X92.5Y49.34
X92.5Y46.8
T6
X93.0Y20.5
X93.0Y14.0
X97.5Y20.5
X97.5Y14.0
T7
X29.5Y3.5
X34.4Y3.5
T8
X5.0Y70.5
X5.5Y4.5
X94.5Y70.5
X94.5Y4.5
T5
G00X83.0Y13.5
M15
G01X85.0Y13.5
M16
G05
G00X83.0Y7.5
M15
G01X85.0Y7.5
M16
G05
G00X88.7Y9.5
M15
G01X88.7Y11.5
M16
G05
T0
M30
