G04 #@! TF.GenerationSoftware,KiCad,Pcbnew,(5.1.10-1-10_14)*
G04 #@! TF.CreationDate,2021-12-18T16:14:33+09:00*
G04 #@! TF.ProjectId,K65-SBC,4b36352d-5342-4432-9e6b-696361645f70,rev?*
G04 #@! TF.SameCoordinates,PX5f5e100PY7a12000*
G04 #@! TF.FileFunction,Soldermask,Top*
G04 #@! TF.FilePolarity,Negative*
%FSLAX46Y46*%
G04 Gerber Fmt 4.6, Leading zero omitted, Abs format (unit mm)*
G04 Created by KiCad (PCBNEW (5.1.10-1-10_14)) date 2021-12-18 16:14:33*
%MOMM*%
%LPD*%
G01*
G04 APERTURE LIST*
%ADD10O,2.502000X1.702000*%
%ADD11C,2.402000*%
%ADD12O,1.702000X2.502000*%
%ADD13O,1.802000X1.802000*%
%ADD14C,2.102000*%
%ADD15O,1.702000X1.702000*%
%ADD16C,1.702000*%
%ADD17C,3.302000*%
%ADD18C,1.902000*%
%ADD19O,1.602000X1.602000*%
%ADD20C,0.100000*%
G04 APERTURE END LIST*
D10*
X64740000Y56000000D03*
X49500000Y22980000D03*
X64740000Y53460000D03*
X49500000Y25520000D03*
X64740000Y50920000D03*
X49500000Y28060000D03*
X64740000Y48380000D03*
X49500000Y30600000D03*
X64740000Y45840000D03*
X49500000Y33140000D03*
X64740000Y43300000D03*
X49500000Y35680000D03*
X64740000Y40760000D03*
X49500000Y38220000D03*
X64740000Y38220000D03*
X49500000Y40760000D03*
X64740000Y35680000D03*
X49500000Y43300000D03*
X64740000Y33140000D03*
X49500000Y45840000D03*
X64740000Y30600000D03*
X49500000Y48380000D03*
X64740000Y28060000D03*
X49500000Y50920000D03*
X64740000Y25520000D03*
X49500000Y53460000D03*
X64740000Y22980000D03*
G36*
G01*
X48249000Y55200000D02*
X48249000Y56800000D01*
G75*
G02*
X48300000Y56851000I51000J0D01*
G01*
X50700000Y56851000D01*
G75*
G02*
X50751000Y56800000I0J-51000D01*
G01*
X50751000Y55200000D01*
G75*
G02*
X50700000Y55149000I-51000J0D01*
G01*
X48300000Y55149000D01*
G75*
G02*
X48249000Y55200000I0J51000D01*
G01*
G37*
D11*
X34400000Y3500000D03*
X29500000Y3500000D03*
D12*
X28000000Y19120000D03*
X43240000Y11500000D03*
X30540000Y19120000D03*
X40700000Y11500000D03*
X33080000Y19120000D03*
X38160000Y11500000D03*
X35620000Y19120000D03*
X35620000Y11500000D03*
X38160000Y19120000D03*
X33080000Y11500000D03*
X40700000Y19120000D03*
X30540000Y11500000D03*
X43240000Y19120000D03*
G36*
G01*
X28800000Y10249000D02*
X27200000Y10249000D01*
G75*
G02*
X27149000Y10300000I0J51000D01*
G01*
X27149000Y12700000D01*
G75*
G02*
X27200000Y12751000I51000J0D01*
G01*
X28800000Y12751000D01*
G75*
G02*
X28851000Y12700000I0J-51000D01*
G01*
X28851000Y10300000D01*
G75*
G02*
X28800000Y10249000I-51000J0D01*
G01*
G37*
X50500000Y19120000D03*
X65740000Y11500000D03*
X53040000Y19120000D03*
X63200000Y11500000D03*
X55580000Y19120000D03*
X60660000Y11500000D03*
X58120000Y19120000D03*
X58120000Y11500000D03*
X60660000Y19120000D03*
X55580000Y11500000D03*
X63200000Y19120000D03*
X53040000Y11500000D03*
X65740000Y19120000D03*
G36*
G01*
X51300000Y10249000D02*
X49700000Y10249000D01*
G75*
G02*
X49649000Y10300000I0J51000D01*
G01*
X49649000Y12700000D01*
G75*
G02*
X49700000Y12751000I51000J0D01*
G01*
X51300000Y12751000D01*
G75*
G02*
X51351000Y12700000I0J-51000D01*
G01*
X51351000Y10300000D01*
G75*
G02*
X51300000Y10249000I-51000J0D01*
G01*
G37*
X73000000Y56120000D03*
X88240000Y48500000D03*
X75540000Y56120000D03*
X85700000Y48500000D03*
X78080000Y56120000D03*
X83160000Y48500000D03*
X80620000Y56120000D03*
X80620000Y48500000D03*
X83160000Y56120000D03*
X78080000Y48500000D03*
X85700000Y56120000D03*
X75540000Y48500000D03*
X88240000Y56120000D03*
G36*
G01*
X73800000Y47249000D02*
X72200000Y47249000D01*
G75*
G02*
X72149000Y47300000I0J51000D01*
G01*
X72149000Y49700000D01*
G75*
G02*
X72200000Y49751000I51000J0D01*
G01*
X73800000Y49751000D01*
G75*
G02*
X73851000Y49700000I0J-51000D01*
G01*
X73851000Y47300000D01*
G75*
G02*
X73800000Y47249000I-51000J0D01*
G01*
G37*
D10*
X21740000Y59000000D03*
X6500000Y10740000D03*
X21740000Y56460000D03*
X6500000Y13280000D03*
X21740000Y53920000D03*
X6500000Y15820000D03*
X21740000Y51380000D03*
X6500000Y18360000D03*
X21740000Y48840000D03*
X6500000Y20900000D03*
X21740000Y46300000D03*
X6500000Y23440000D03*
X21740000Y43760000D03*
X6500000Y25980000D03*
X21740000Y41220000D03*
X6500000Y28520000D03*
X21740000Y38680000D03*
X6500000Y31060000D03*
X21740000Y36140000D03*
X6500000Y33600000D03*
X21740000Y33600000D03*
X6500000Y36140000D03*
X21740000Y31060000D03*
X6500000Y38680000D03*
X21740000Y28520000D03*
X6500000Y41220000D03*
X21740000Y25980000D03*
X6500000Y43760000D03*
X21740000Y23440000D03*
X6500000Y46300000D03*
X21740000Y20900000D03*
X6500000Y48840000D03*
X21740000Y18360000D03*
X6500000Y51380000D03*
X21740000Y15820000D03*
X6500000Y53920000D03*
X21740000Y13280000D03*
X6500000Y56460000D03*
X21740000Y10740000D03*
G36*
G01*
X5249000Y58200000D02*
X5249000Y59800000D01*
G75*
G02*
X5300000Y59851000I51000J0D01*
G01*
X7700000Y59851000D01*
G75*
G02*
X7751000Y59800000I0J-51000D01*
G01*
X7751000Y58200000D01*
G75*
G02*
X7700000Y58149000I-51000J0D01*
G01*
X5300000Y58149000D01*
G75*
G02*
X5249000Y58200000I0J51000D01*
G01*
G37*
D12*
X69500000Y40740000D03*
X97440000Y25500000D03*
X72040000Y40740000D03*
X94900000Y25500000D03*
X74580000Y40740000D03*
X92360000Y25500000D03*
X77120000Y40740000D03*
X89820000Y25500000D03*
X79660000Y40740000D03*
X87280000Y25500000D03*
X82200000Y40740000D03*
X84740000Y25500000D03*
X84740000Y40740000D03*
X82200000Y25500000D03*
X87280000Y40740000D03*
X79660000Y25500000D03*
X89820000Y40740000D03*
X77120000Y25500000D03*
X92360000Y40740000D03*
X74580000Y25500000D03*
X94900000Y40740000D03*
X72040000Y25500000D03*
X97440000Y40740000D03*
G36*
G01*
X70300000Y24249000D02*
X68700000Y24249000D01*
G75*
G02*
X68649000Y24300000I0J51000D01*
G01*
X68649000Y26700000D01*
G75*
G02*
X68700000Y26751000I51000J0D01*
G01*
X70300000Y26751000D01*
G75*
G02*
X70351000Y26700000I0J-51000D01*
G01*
X70351000Y24300000D01*
G75*
G02*
X70300000Y24249000I-51000J0D01*
G01*
G37*
D10*
X45240000Y56000000D03*
X30000000Y22980000D03*
X45240000Y53460000D03*
X30000000Y25520000D03*
X45240000Y50920000D03*
X30000000Y28060000D03*
X45240000Y48380000D03*
X30000000Y30600000D03*
X45240000Y45840000D03*
X30000000Y33140000D03*
X45240000Y43300000D03*
X30000000Y35680000D03*
X45240000Y40760000D03*
X30000000Y38220000D03*
X45240000Y38220000D03*
X30000000Y40760000D03*
X45240000Y35680000D03*
X30000000Y43300000D03*
X45240000Y33140000D03*
X30000000Y45840000D03*
X45240000Y30600000D03*
X30000000Y48380000D03*
X45240000Y28060000D03*
X30000000Y50920000D03*
X45240000Y25520000D03*
X30000000Y53460000D03*
X45240000Y22980000D03*
G36*
G01*
X28749000Y55200000D02*
X28749000Y56800000D01*
G75*
G02*
X28800000Y56851000I51000J0D01*
G01*
X31200000Y56851000D01*
G75*
G02*
X31251000Y56800000I0J-51000D01*
G01*
X31251000Y55200000D01*
G75*
G02*
X31200000Y55149000I-51000J0D01*
G01*
X28800000Y55149000D01*
G75*
G02*
X28749000Y55200000I0J51000D01*
G01*
G37*
D13*
X70420000Y3500000D03*
X72960000Y3500000D03*
G36*
G01*
X74650000Y4401000D02*
X76350000Y4401000D01*
G75*
G02*
X76401000Y4350000I0J-51000D01*
G01*
X76401000Y2650000D01*
G75*
G02*
X76350000Y2599000I-51000J0D01*
G01*
X74650000Y2599000D01*
G75*
G02*
X74599000Y2650000I0J51000D01*
G01*
X74599000Y4350000D01*
G75*
G02*
X74650000Y4401000I51000J0D01*
G01*
G37*
D14*
X97500000Y14000000D03*
X93000000Y14000000D03*
X97500000Y20500000D03*
X93000000Y20500000D03*
D15*
X26000000Y44820000D03*
X26000000Y42280000D03*
X26000000Y39740000D03*
X26000000Y37200000D03*
X26000000Y34660000D03*
X26000000Y32120000D03*
X26000000Y29580000D03*
X26000000Y27040000D03*
G36*
G01*
X26800000Y23649000D02*
X25200000Y23649000D01*
G75*
G02*
X25149000Y23700000I0J51000D01*
G01*
X25149000Y25300000D01*
G75*
G02*
X25200000Y25351000I51000J0D01*
G01*
X26800000Y25351000D01*
G75*
G02*
X26851000Y25300000I0J-51000D01*
G01*
X26851000Y23700000D01*
G75*
G02*
X26800000Y23649000I-51000J0D01*
G01*
G37*
X3000000Y38680000D03*
X3000000Y41220000D03*
X3000000Y43760000D03*
X3000000Y46300000D03*
X3000000Y48840000D03*
X3000000Y51380000D03*
X3000000Y53920000D03*
X3000000Y56460000D03*
G36*
G01*
X2200000Y59851000D02*
X3800000Y59851000D01*
G75*
G02*
X3851000Y59800000I0J-51000D01*
G01*
X3851000Y58200000D01*
G75*
G02*
X3800000Y58149000I-51000J0D01*
G01*
X2200000Y58149000D01*
G75*
G02*
X2149000Y58200000I0J51000D01*
G01*
X2149000Y59800000D01*
G75*
G02*
X2200000Y59851000I51000J0D01*
G01*
G37*
X68500000Y45840000D03*
X68500000Y48380000D03*
X68500000Y50920000D03*
X68500000Y53460000D03*
G36*
G01*
X67700000Y56851000D02*
X69300000Y56851000D01*
G75*
G02*
X69351000Y56800000I0J-51000D01*
G01*
X69351000Y55200000D01*
G75*
G02*
X69300000Y55149000I-51000J0D01*
G01*
X67700000Y55149000D01*
G75*
G02*
X67649000Y55200000I0J51000D01*
G01*
X67649000Y56800000D01*
G75*
G02*
X67700000Y56851000I51000J0D01*
G01*
G37*
X57660000Y3500000D03*
D16*
X47500000Y3500000D03*
D15*
X35160000Y8000000D03*
D16*
X25000000Y8000000D03*
D15*
X48660000Y8000000D03*
D16*
X38500000Y8000000D03*
D15*
X78840000Y20500000D03*
D16*
X89000000Y20500000D03*
G36*
G01*
X89600500Y8699000D02*
X87799500Y8699000D01*
G75*
G02*
X86899000Y9599500I0J900500D01*
G01*
X86899000Y11400500D01*
G75*
G02*
X87799500Y12301000I900500J0D01*
G01*
X89600500Y12301000D01*
G75*
G02*
X90501000Y11400500I0J-900500D01*
G01*
X90501000Y9599500D01*
G75*
G02*
X89600500Y8699000I-900500J0D01*
G01*
G37*
G36*
G01*
X85025500Y5949000D02*
X82974500Y5949000D01*
G75*
G02*
X82199000Y6724500I0J775500D01*
G01*
X82199000Y8275500D01*
G75*
G02*
X82974500Y9051000I775500J0D01*
G01*
X85025500Y9051000D01*
G75*
G02*
X85801000Y8275500I0J-775500D01*
G01*
X85801000Y6724500D01*
G75*
G02*
X85025500Y5949000I-775500J0D01*
G01*
G37*
G36*
G01*
X85750000Y11699000D02*
X82250000Y11699000D01*
G75*
G02*
X82199000Y11750000I0J51000D01*
G01*
X82199000Y15250000D01*
G75*
G02*
X82250000Y15301000I51000J0D01*
G01*
X85750000Y15301000D01*
G75*
G02*
X85801000Y15250000I0J-51000D01*
G01*
X85801000Y11750000D01*
G75*
G02*
X85750000Y11699000I-51000J0D01*
G01*
G37*
D13*
X74260000Y65540000D03*
X74260000Y63000000D03*
X71720000Y65540000D03*
X71720000Y63000000D03*
X69180000Y65540000D03*
X69180000Y63000000D03*
X66640000Y65540000D03*
X66640000Y63000000D03*
X64100000Y65540000D03*
X64100000Y63000000D03*
X61560000Y65540000D03*
X61560000Y63000000D03*
X59020000Y65540000D03*
X59020000Y63000000D03*
X56480000Y65540000D03*
X56480000Y63000000D03*
X53940000Y65540000D03*
X53940000Y63000000D03*
X51400000Y65540000D03*
X51400000Y63000000D03*
X48860000Y65540000D03*
X48860000Y63000000D03*
X46320000Y65540000D03*
X46320000Y63000000D03*
X43780000Y65540000D03*
X43780000Y63000000D03*
X41240000Y65540000D03*
X41240000Y63000000D03*
X38700000Y65540000D03*
X38700000Y63000000D03*
X36160000Y65540000D03*
X36160000Y63000000D03*
X33620000Y65540000D03*
X33620000Y63000000D03*
X31080000Y65540000D03*
X31080000Y63000000D03*
X28540000Y65540000D03*
X28540000Y63000000D03*
X26000000Y65540000D03*
G36*
G01*
X26850000Y62099000D02*
X25150000Y62099000D01*
G75*
G02*
X25099000Y62150000I0J51000D01*
G01*
X25099000Y63850000D01*
G75*
G02*
X25150000Y63901000I51000J0D01*
G01*
X26850000Y63901000D01*
G75*
G02*
X26901000Y63850000I0J-51000D01*
G01*
X26901000Y62150000D01*
G75*
G02*
X26850000Y62099000I-51000J0D01*
G01*
G37*
X92500000Y46800000D03*
X92500000Y49340000D03*
X92500000Y51880000D03*
X92500000Y54420000D03*
X92500000Y56960000D03*
G36*
G01*
X91599000Y58650000D02*
X91599000Y60350000D01*
G75*
G02*
X91650000Y60401000I51000J0D01*
G01*
X93350000Y60401000D01*
G75*
G02*
X93401000Y60350000I0J-51000D01*
G01*
X93401000Y58650000D01*
G75*
G02*
X93350000Y58599000I-51000J0D01*
G01*
X91650000Y58599000D01*
G75*
G02*
X91599000Y58650000I0J51000D01*
G01*
G37*
D17*
X94500000Y4500000D03*
X5000000Y70500000D03*
X94500000Y70500000D03*
X5500000Y4500000D03*
D18*
X61960000Y3500000D03*
G36*
G01*
X65451000Y4400000D02*
X65451000Y2600000D01*
G75*
G02*
X65400000Y2549000I-51000J0D01*
G01*
X63600000Y2549000D01*
G75*
G02*
X63549000Y2600000I0J51000D01*
G01*
X63549000Y4400000D01*
G75*
G02*
X63600000Y4451000I51000J0D01*
G01*
X65400000Y4451000D01*
G75*
G02*
X65451000Y4400000I0J-51000D01*
G01*
G37*
D19*
X78840000Y17500000D03*
G36*
G01*
X89801000Y18250000D02*
X89801000Y16750000D01*
G75*
G02*
X89750000Y16699000I-51000J0D01*
G01*
X88250000Y16699000D01*
G75*
G02*
X88199000Y16750000I0J51000D01*
G01*
X88199000Y18250000D01*
G75*
G02*
X88250000Y18301000I51000J0D01*
G01*
X89750000Y18301000D01*
G75*
G02*
X89801000Y18250000I0J-51000D01*
G01*
G37*
D16*
X72000000Y11000000D03*
G36*
G01*
X75351000Y11800000D02*
X75351000Y10200000D01*
G75*
G02*
X75300000Y10149000I-51000J0D01*
G01*
X73700000Y10149000D01*
G75*
G02*
X73649000Y10200000I0J51000D01*
G01*
X73649000Y11800000D01*
G75*
G02*
X73700000Y11851000I51000J0D01*
G01*
X75300000Y11851000D01*
G75*
G02*
X75351000Y11800000I0J-51000D01*
G01*
G37*
X73000000Y59000000D03*
X75500000Y59000000D03*
X47500000Y19000000D03*
X47500000Y16500000D03*
X25000000Y19000000D03*
X25000000Y16500000D03*
X39500000Y4500000D03*
X39500000Y2000000D03*
X24500000Y4500000D03*
X24500000Y2000000D03*
X72000000Y19000000D03*
G36*
G01*
X75351000Y19800000D02*
X75351000Y18200000D01*
G75*
G02*
X75300000Y18149000I-51000J0D01*
G01*
X73700000Y18149000D01*
G75*
G02*
X73649000Y18200000I0J51000D01*
G01*
X73649000Y19800000D01*
G75*
G02*
X73700000Y19851000I51000J0D01*
G01*
X75300000Y19851000D01*
G75*
G02*
X75351000Y19800000I0J-51000D01*
G01*
G37*
X45000000Y59000000D03*
X42500000Y59000000D03*
X64500000Y59000000D03*
X62000000Y59000000D03*
X94500000Y34500000D03*
X94500000Y32000000D03*
X12500000Y41500000D03*
X15000000Y41500000D03*
D20*
G36*
X82200990Y6724696D02*
G01*
X82215871Y6573602D01*
X82259888Y6428498D01*
X82331366Y6294771D01*
X82427560Y6177560D01*
X82544771Y6081366D01*
X82678498Y6009888D01*
X82823602Y5965871D01*
X82974696Y5950990D01*
X82976322Y5949825D01*
X82976126Y5947835D01*
X82974500Y5947000D01*
X82918140Y5947000D01*
X82917944Y5947010D01*
X82772825Y5961303D01*
X82772440Y5961379D01*
X82638794Y6001920D01*
X82638432Y6002070D01*
X82515273Y6067900D01*
X82514947Y6068118D01*
X82406991Y6156714D01*
X82406714Y6156991D01*
X82318118Y6264947D01*
X82317900Y6265273D01*
X82252070Y6388432D01*
X82251920Y6388794D01*
X82211379Y6522440D01*
X82211303Y6522825D01*
X82197010Y6667944D01*
X82197000Y6668140D01*
X82197000Y6724500D01*
X82198000Y6726232D01*
X82200000Y6726232D01*
X82200990Y6724696D01*
G37*
G36*
X85802165Y6726126D02*
G01*
X85803000Y6724500D01*
X85803000Y6668140D01*
X85802990Y6667944D01*
X85788697Y6522825D01*
X85788621Y6522440D01*
X85748080Y6388794D01*
X85747930Y6388432D01*
X85682100Y6265273D01*
X85681882Y6264947D01*
X85593286Y6156991D01*
X85593009Y6156714D01*
X85485053Y6068118D01*
X85484727Y6067900D01*
X85361568Y6002070D01*
X85361206Y6001920D01*
X85227560Y5961379D01*
X85227175Y5961303D01*
X85082056Y5947010D01*
X85081860Y5947000D01*
X85025500Y5947000D01*
X85023768Y5948000D01*
X85023768Y5950000D01*
X85025304Y5950990D01*
X85176398Y5965871D01*
X85321502Y6009888D01*
X85455229Y6081366D01*
X85572440Y6177560D01*
X85668634Y6294771D01*
X85740112Y6428498D01*
X85784129Y6573602D01*
X85799010Y6724696D01*
X85800175Y6726322D01*
X85802165Y6726126D01*
G37*
G36*
X82976232Y9052000D02*
G01*
X82976232Y9050000D01*
X82974696Y9049010D01*
X82823602Y9034129D01*
X82678498Y8990112D01*
X82544771Y8918634D01*
X82427560Y8822440D01*
X82331366Y8705229D01*
X82259888Y8571502D01*
X82215871Y8426398D01*
X82200990Y8275304D01*
X82199825Y8273678D01*
X82197835Y8273874D01*
X82197000Y8275500D01*
X82197000Y8331860D01*
X82197010Y8332056D01*
X82211303Y8477175D01*
X82211379Y8477560D01*
X82251920Y8611206D01*
X82252070Y8611568D01*
X82317900Y8734727D01*
X82318118Y8735053D01*
X82406714Y8843009D01*
X82406991Y8843286D01*
X82514947Y8931882D01*
X82515273Y8932100D01*
X82638432Y8997930D01*
X82638794Y8998080D01*
X82772440Y9038621D01*
X82772825Y9038697D01*
X82917944Y9052990D01*
X82918140Y9053000D01*
X82974500Y9053000D01*
X82976232Y9052000D01*
G37*
G36*
X85082056Y9052990D02*
G01*
X85227175Y9038697D01*
X85227560Y9038621D01*
X85361206Y8998080D01*
X85361568Y8997930D01*
X85484727Y8932100D01*
X85485053Y8931882D01*
X85593009Y8843286D01*
X85593286Y8843009D01*
X85681882Y8735053D01*
X85682100Y8734727D01*
X85747930Y8611568D01*
X85748080Y8611206D01*
X85788621Y8477560D01*
X85788697Y8477175D01*
X85802990Y8332056D01*
X85803000Y8331860D01*
X85803000Y8275500D01*
X85802000Y8273768D01*
X85800000Y8273768D01*
X85799010Y8275304D01*
X85784129Y8426398D01*
X85740112Y8571502D01*
X85668634Y8705229D01*
X85572440Y8822440D01*
X85455229Y8918634D01*
X85321502Y8990112D01*
X85176398Y9034129D01*
X85025304Y9049010D01*
X85023678Y9050175D01*
X85023874Y9052165D01*
X85025500Y9053000D01*
X85081860Y9053000D01*
X85082056Y9052990D01*
G37*
G36*
X86900990Y9599696D02*
G01*
X86918273Y9424216D01*
X86969403Y9255663D01*
X87052433Y9100325D01*
X87164171Y8964171D01*
X87300325Y8852433D01*
X87455663Y8769403D01*
X87624216Y8718273D01*
X87799696Y8700990D01*
X87801322Y8699825D01*
X87801126Y8697835D01*
X87799500Y8697000D01*
X87743140Y8697000D01*
X87742944Y8697010D01*
X87573438Y8713705D01*
X87573053Y8713781D01*
X87415959Y8761435D01*
X87415597Y8761585D01*
X87270826Y8838967D01*
X87270500Y8839185D01*
X87143603Y8943326D01*
X87143326Y8943603D01*
X87039185Y9070500D01*
X87038967Y9070826D01*
X86961585Y9215597D01*
X86961435Y9215959D01*
X86913781Y9373053D01*
X86913705Y9373438D01*
X86897010Y9542944D01*
X86897000Y9543140D01*
X86897000Y9599500D01*
X86898000Y9601232D01*
X86900000Y9601232D01*
X86900990Y9599696D01*
G37*
G36*
X90502165Y9601126D02*
G01*
X90503000Y9599500D01*
X90503000Y9543140D01*
X90502990Y9542944D01*
X90486295Y9373438D01*
X90486219Y9373053D01*
X90438565Y9215959D01*
X90438415Y9215597D01*
X90361033Y9070826D01*
X90360815Y9070500D01*
X90256674Y8943603D01*
X90256397Y8943326D01*
X90129500Y8839185D01*
X90129174Y8838967D01*
X89984403Y8761585D01*
X89984041Y8761435D01*
X89826947Y8713781D01*
X89826562Y8713705D01*
X89657056Y8697010D01*
X89656860Y8697000D01*
X89600500Y8697000D01*
X89598768Y8698000D01*
X89598768Y8700000D01*
X89600304Y8700990D01*
X89775784Y8718273D01*
X89944337Y8769403D01*
X90099675Y8852433D01*
X90235829Y8964171D01*
X90347567Y9100325D01*
X90430597Y9255663D01*
X90481727Y9424216D01*
X90499010Y9599696D01*
X90500175Y9601322D01*
X90502165Y9601126D01*
G37*
G36*
X87801232Y12302000D02*
G01*
X87801232Y12300000D01*
X87799696Y12299010D01*
X87624216Y12281727D01*
X87455663Y12230597D01*
X87300325Y12147567D01*
X87164171Y12035829D01*
X87052433Y11899675D01*
X86969403Y11744337D01*
X86918273Y11575784D01*
X86900990Y11400304D01*
X86899825Y11398678D01*
X86897835Y11398874D01*
X86897000Y11400500D01*
X86897000Y11456860D01*
X86897010Y11457056D01*
X86913705Y11626562D01*
X86913781Y11626947D01*
X86961435Y11784041D01*
X86961585Y11784403D01*
X87038967Y11929174D01*
X87039185Y11929500D01*
X87143326Y12056397D01*
X87143603Y12056674D01*
X87270500Y12160815D01*
X87270826Y12161033D01*
X87415597Y12238415D01*
X87415959Y12238565D01*
X87573053Y12286219D01*
X87573438Y12286295D01*
X87742944Y12302990D01*
X87743140Y12303000D01*
X87799500Y12303000D01*
X87801232Y12302000D01*
G37*
G36*
X89657056Y12302990D02*
G01*
X89826562Y12286295D01*
X89826947Y12286219D01*
X89984041Y12238565D01*
X89984403Y12238415D01*
X90129174Y12161033D01*
X90129500Y12160815D01*
X90256397Y12056674D01*
X90256674Y12056397D01*
X90360815Y11929500D01*
X90361033Y11929174D01*
X90438415Y11784403D01*
X90438565Y11784041D01*
X90486219Y11626947D01*
X90486295Y11626562D01*
X90502990Y11457056D01*
X90503000Y11456860D01*
X90503000Y11400500D01*
X90502000Y11398768D01*
X90500000Y11398768D01*
X90499010Y11400304D01*
X90481727Y11575784D01*
X90430597Y11744337D01*
X90347567Y11899675D01*
X90235829Y12035829D01*
X90099675Y12147567D01*
X89944337Y12230597D01*
X89775784Y12281727D01*
X89600304Y12299010D01*
X89598678Y12300175D01*
X89598874Y12302165D01*
X89600500Y12303000D01*
X89656860Y12303000D01*
X89657056Y12302990D01*
G37*
M02*
